<?xml version="1.0" standalone="no"?>
<!DOCTYPE svg PUBLIC "-//W3C//DTD SVG 1.1//EN" "http://www.w3.org/Graphics/SVG/1.1/DTD/svg11.dtd" >
<svg xmlns="http://www.w3.org/2000/svg" xmlns:xlink="http://www.w3.org/1999/xlink" version="1.1">
<metadata>
Created by FontForge 20161003 at Thu Jan 26 22:19:03 2017
 By www-data
Copyright (c) 2016 by Radomir Tinkov. All rights reserved.
</metadata>
<defs>
<font id="GilroyBold" horiz-adv-x="626" >
  <font-face 
    font-family="GilroyBold"
    font-weight="400"
    font-stretch="normal"
    units-per-em="1000"
    panose-1="0 0 8 0 0 0 0 0 0 0"
    ascent="773"
    descent="-227"
    x-height="500"
    cap-height="700"
    bbox="-415 -263 1094 975"
    underline-thickness="50"
    underline-position="-100"
    unicode-range="U+0020-FB02"
  />
<missing-glyph horiz-adv-x="500" 
d="M410 800v-1000h-317v1000h317zM333 733h-165v-33h65v-37h-66v-33h166v33h-66v37h66v33zM267 604h-100v-104h166v34h-66v70zM233 570v-36h-33v36h33zM333 473h-166v-33h66v-37h-66v-33h100v70h66v33zM333 413h-33v-66h-133v-34h166v100zM333 291h-100v-56h34v23h33v-47
h-100v80h-33v-113h166v113zM333 118h-166v-113h166v113zM300 85v-47h-100v47h100zM333 -18h-166v-33h70l-70 -47v-33h166v33h-102l70 47h32v33z" />
    <glyph glyph-name="fi" unicode="fi" horiz-adv-x="557" 
d="M328 590q-55 0 -80.5 -18.5t-25.5 -66.5v-5h276v-500h-129v376h-147v-376h-129v376h-72v124h72v5q0 209 235 209q53 0 117 -14v-118q-67 8 -117 8z" />
    <glyph glyph-name="fl" unicode="fl" horiz-adv-x="557" 
d="M328 714q65 0 170 -21v-693h-129v600q-14 1 -41 1q-106 0 -106 -96v-5h83v-124h-83v-376h-129v376h-72v124h72v5q0 209 235 209z" />
    <glyph glyph-name="f_f" unicode="ff" horiz-adv-x="605" 
d="M499 515v-15h106v-124h-106v-376h-129v376h-148v-376h-129v376h-72v124h72v5q0 109 60.5 162.5t174.5 46.5v-124q-106 8 -106 -85v-5h148v15q0 108 61 162t174 47v-124q-106 8 -106 -85z" />
    <glyph glyph-name="f_f_i" unicode="ffi" horiz-adv-x="834" 
d="M605 600q-36 0 -58 -7t-35 -26.5t-13 -51.5v-15h276v-500h-129v376h-147v-376h-129v376h-148v-376h-129v376h-72v124h72v5q0 109 60.5 162.5t174.5 46.5v-124q-106 8 -106 -85v-5h148v15q0 209 235 209q54 0 118 -14v-118q-69 8 -118 8z" />
    <glyph glyph-name="f_f_l" unicode="ffl" horiz-adv-x="834" 
d="M605 724q67 0 170 -21v-703h-129v610q-14 1 -41 1q-106 0 -106 -96v-15h84v-124h-84v-376h-129v376h-148v-376h-129v376h-72v124h72v5q0 109 60.5 162.5t174.5 46.5v-124q-106 8 -106 -85v-5h148v15q0 209 235 209z" />
    <glyph glyph-name=".notdef" horiz-adv-x="500" 
d="M410 800v-1000h-317v1000h317zM333 733h-165v-33h65v-37h-66v-33h166v33h-66v37h66v33zM267 604h-100v-104h166v34h-66v70zM233 570v-36h-33v36h33zM333 473h-166v-33h66v-37h-66v-33h100v70h66v33zM333 413h-33v-66h-133v-34h166v100zM333 291h-100v-56h34v23h33v-47
h-100v80h-33v-113h166v113zM333 118h-166v-113h166v113zM300 85v-47h-100v47h100zM333 -18h-166v-33h70l-70 -47v-33h166v33h-102l70 47h32v33z" />
    <glyph glyph-name=".null" horiz-adv-x="0" 
 />
    <glyph glyph-name="nonmarkingreturn" horiz-adv-x="333" 
 />
    <glyph glyph-name="space" unicode=" " horiz-adv-x="250" 
 />
    <glyph glyph-name="exclam" unicode="!" horiz-adv-x="268" 
d="M56 700h155v-200l-26 -265h-102l-27 265v200zM219 72q0 -35 -25 -60t-60 -25t-60 25t-25 60t25 60t60 25t60 -25t25 -60z" />
    <glyph glyph-name="quotedbl" unicode="&#x22;" horiz-adv-x="378" 
d="M60 470l-17 230h122l-17 -230h-88zM230 470l-17 230h122l-17 -230h-88z" />
    <glyph glyph-name="numbersign" unicode="#" horiz-adv-x="616" 
d="M577 395h-108l-15 -90h109l-16 -97h-110l-26 -158h-102l26 158h-102l-26 -158h-101l26 158h-109l16 97h110l15 90h-111l16 98h111l26 157h101l-26 -157h102l26 157h102l-26 -157h108zM352 305l15 90h-102l-15 -90h102z" />
    <glyph glyph-name="dollar" unicode="$" horiz-adv-x="549" 
d="M56 511q0 86 56.5 140t142.5 62v87h67v-89q136 -16 192 -141l-116 -68q-24 60 -76 73v-167q93 -37 125 -59q77 -55 77 -153q0 -89 -56.5 -143t-145.5 -65v-88h-67v87q-85 6 -144.5 47.5t-85.5 110.5l119 69q32 -80 111 -91v173h-1q-13 6 -33.5 14t-25.5 10
q-25 11 -54.5 31t-42.5 37q-42 52 -42 123zM255 578q-18 -4 -31.5 -12t-22 -22.5t-8.5 -33.5q0 -27 15.5 -41.5t46.5 -30.5v140zM386 195q0 28 -16.5 44t-47.5 30v-144q64 14 64 70z" />
    <glyph glyph-name="percent" unicode="%" horiz-adv-x="765" 
d="M382 549q0 -70 -48.5 -117.5t-119.5 -47.5t-120 48t-49 117t49 117t120 48t119.5 -47.5t48.5 -117.5zM116 106l456 507l61 -34l-457 -508zM151 549q0 -27 17.5 -45.5t44.5 -18.5t45 18.5t18 45.5t-18 45t-45 18t-44.5 -18t-17.5 -45zM720 153q0 -70 -49 -117.5
t-119 -47.5t-119 47.5t-49 117.5t49 117.5t119 47.5t119 -47.5t49 -117.5zM490 153q0 -27 17.5 -45.5t44.5 -18.5q26 0 44 19t18 45q0 27 -17.5 45.5t-44.5 18.5t-44.5 -18.5t-17.5 -45.5z" />
    <glyph glyph-name="ampersand" unicode="&#x26;" horiz-adv-x="673" 
d="M349 580q-23 0 -41.5 -9t-30 -26t-11.5 -39q0 -28 13.5 -51t43.5 -55l150 -164q22 47 34 116l116 -66q-19 -81 -61 -147l90 -99l-110 -63l-64 69q-81 -60 -188 -60q-106 0 -175.5 56t-69.5 152q0 68 32 119.5t85 81.5q-34 54 -34 117q0 89 62.5 145.5t156.5 56.5
q81 0 138.5 -41t84.5 -109l-118 -68q-29 84 -103 84zM184 208q0 -46 31.5 -70.5t83.5 -24.5t93 25l-151 164q-2 2 -2 3q-55 -34 -55 -97z" />
    <glyph glyph-name="quotesingle" unicode="'" horiz-adv-x="208" 
d="M60 470l-17 230h122l-17 -230h-88z" />
    <glyph glyph-name="parenleft" unicode="(" horiz-adv-x="307" 
d="M163 -100q-110 220 -110 450t110 450h129q-110 -220 -110 -450t110 -450h-129z" />
    <glyph glyph-name="parenright" unicode=")" horiz-adv-x="307" 
d="M125 350q0 230 -110 450h129q110 -220 110 -450t-110 -450h-129q110 220 110 450z" />
    <glyph glyph-name="asterisk" unicode="*" horiz-adv-x="398" 
d="M346 609v-80l-91 7l55 -70l-68 -42l-43 84l-43 -84l-67 42l54 70l-90 -7v80l90 -8l-54 71l67 42l43 -84l43 84l68 -42l-55 -71z" />
    <glyph glyph-name="plus" unicode="+" horiz-adv-x="555" 
d="M503 411v-121h-165v-165h-121v165h-164v121h164v164h121v-164h165z" />
    <glyph glyph-name="comma" unicode="," horiz-adv-x="278" 
d="M229 138l-75 -278h-105l40 278h140z" />
    <glyph glyph-name="hyphen" unicode="-" horiz-adv-x="505" 
d="M65 240v124h375v-124h-375z" />
    <glyph glyph-name="period" unicode="." horiz-adv-x="268" 
d="M219 72q0 -35 -25 -60t-60 -25t-60 25t-25 60t25 60t60 25t60 -25t25 -60z" />
    <glyph glyph-name="slash" unicode="/" horiz-adv-x="523" 
d="M90 -100h-57l400 900h57z" />
    <glyph glyph-name="zero" unicode="0" horiz-adv-x="630" 
d="M315 -14q-136 0 -208 103t-72 261t72 261t208 103q92 0 156.5 -50t94 -130.5t29.5 -183.5t-29.5 -183.5t-94 -130.5t-156.5 -50zM173 350q0 -229 142 -229q143 0 143 229q0 230 -143 230q-142 0 -142 -230z" />
    <glyph glyph-name="one" unicode="1" horiz-adv-x="387" 
d="M315 700v-700h-138v554l-132 -37l-34 118l184 65h120z" />
    <glyph glyph-name="two" unicode="2" horiz-adv-x="531" 
d="M22 566q30 66 90 107t141 41q95 0 163 -59.5t68 -160.5q0 -109 -115 -224l-137 -137h263v-133h-468v103l239 246q80 84 80 140q0 40 -25.5 65.5t-65.5 25.5q-79 0 -117 -82z" />
    <glyph glyph-name="three" unicode="3" horiz-adv-x="545" 
d="M353 416q69 -20 114.5 -72t45.5 -128q0 -108 -72.5 -169t-177.5 -61q-87 0 -150 40t-90 108l118 68q26 -81 122 -81q51 0 81.5 24.5t30.5 70.5q0 45 -31 70t-81 25h-30l-53 80l138 180h-274v129h440v-114z" />
    <glyph glyph-name="four" unicode="4" horiz-adv-x="580" 
d="M566 247v-128h-75v-119h-139v119h-331v128l233 453h148l-232 -453h182v166h139v-166h75z" />
    <glyph glyph-name="five" unicode="5" horiz-adv-x="548" 
d="M381 216q0 44 -30 69.5t-78 25.5h-212l28 389h397v-129h-269l-9 -126h72q105 0 172 -62.5t67 -166.5q0 -108 -72.5 -169t-177.5 -61q-90 0 -153.5 40t-90.5 110l118 69q26 -84 126 -84q51 0 81.5 24.5t30.5 70.5z" />
    <glyph glyph-name="six" unicode="6" horiz-adv-x="553" 
d="M285 473q107 -3 176 -70t69 -173q0 -108 -72 -176t-182 -68q-111 0 -182 68t-71 176q0 80 41 141l218 329h158zM160 230q0 -51 32.5 -82.5t83.5 -31.5t84 31.5t33 82.5q0 50 -33 81.5t-84 31.5t-83.5 -31t-32.5 -82z" />
    <glyph glyph-name="seven" unicode="7" horiz-adv-x="490" 
d="M13 700h452v-117l-237 -583h-146l230 568h-299v132z" />
    <glyph glyph-name="eight" unicode="8" horiz-adv-x="568" 
d="M284 714q99 0 163 -55t64 -150q0 -93 -73 -145q97 -58 97 -169q0 -100 -69.5 -154.5t-181.5 -54.5t-181.5 54t-69.5 155q0 111 96 169q-73 53 -73 145q0 94 64.5 149.5t163.5 55.5zM374 502q0 38 -25 60t-65 22t-65 -22t-25 -60t25 -60.5t65 -22.5t65 22.5t25 60.5z
M170 213q0 -46 32 -71.5t82 -25.5t82 25.5t32 71.5t-32 71t-82 25t-82 -25t-32 -71z" />
    <glyph glyph-name="nine" unicode="9" horiz-adv-x="553" 
d="M276 714q111 0 182.5 -67t71.5 -176q0 -81 -42 -142h1l-218 -329h-158l156 228q-107 2 -176.5 69.5t-69.5 173.5q0 108 71.5 175.5t181.5 67.5zM276 584q-50 0 -83 -31.5t-33 -81.5t33 -82t83 -32q52 0 84.5 31.5t32.5 82.5t-32.5 82t-84.5 31z" />
    <glyph glyph-name="colon" unicode=":" horiz-adv-x="268" 
d="M219 430q0 -35 -25 -60t-60 -25t-60 25t-25 60t25 60t60 25t60 -25t25 -60zM219 72q0 -35 -25 -60t-60 -25t-60 25t-25 60t25 60t60 25t60 -25t25 -60z" />
    <glyph glyph-name="semicolon" unicode=";" horiz-adv-x="279" 
d="M230 430q0 -35 -25 -60t-60 -25t-60 25t-25 60t25 60t60 25t60 -25t25 -60zM229 138l-75 -278h-105l40 278h140z" />
    <glyph glyph-name="less" unicode="&#x3c;" horiz-adv-x="528" 
d="M483 598v-134l-291 -114l291 -113v-134l-438 190v115z" />
    <glyph glyph-name="equal" unicode="=" horiz-adv-x="525" 
d="M45 393v121h435v-121h-435zM45 186v121h435v-121h-435z" />
    <glyph glyph-name="greater" unicode="&#x3e;" horiz-adv-x="528" 
d="M45 598l438 -190v-115l-438 -190v134l291 113l-291 114v134z" />
    <glyph glyph-name="question" unicode="?" horiz-adv-x="553" 
d="M35 559q28 69 92 112t150 43q91 0 157.5 -52.5t66.5 -144.5q0 -42 -17 -78.5t-38 -57.5t-51 -49.5t-45 -48.5q-17 -24 -17 -48h-138q0 43 25.5 83t58.5 66q84 66 84 123q0 36 -25 54.5t-66 18.5q-84 0 -119 -89zM349 72q0 -35 -25 -60t-60 -25t-60 25t-25 60t25 60t60 25
t60 -25t25 -60z" />
    <glyph glyph-name="at" unicode="@" horiz-adv-x="779" 
d="M415 -112q-162 0 -272 102.5t-110 259.5q0 151 104.5 256.5t259.5 105.5q104 0 187 -51t123 -129q40 -77 40 -162q0 -94 -41 -155.5t-118 -61.5q-101 0 -132 79q-38 -46 -99 -46q-65 0 -106 47.5t-41 116.5t41 116.5t106 47.5q54 0 91 -37v26h107v-231q0 -73 58 -73
q51 0 73.5 48.5t22.5 122.5q0 130 -90.5 219t-221.5 89q-137 0 -232 -95t-95 -233q0 -143 99 -235.5t246 -92.5q94 0 162 25v-36q-67 -23 -162 -23zM319 250q0 -30 18 -49t47 -19q28 0 45.5 19.5t17.5 48.5q0 30 -17 49t-46 19t-47 -19t-18 -49z" />
    <glyph glyph-name="A" unicode="A" horiz-adv-x="668" 
d="M515 0l-42 126h-279l-42 -126h-149l245 700h171l246 -700h-150zM238 255h192l-96 286z" />
    <glyph glyph-name="B" unicode="B" horiz-adv-x="605" 
d="M341 700q58 0 106.5 -24.5t77.5 -70t29 -102.5q0 -87 -66 -140q92 -53 92 -160q0 -88 -63 -145.5t-155 -57.5h-297v700h276zM416 494q0 33 -21 55t-54 22h-138v-154h138q32 0 53.5 22t21.5 55zM443 212q0 35 -23 58.5t-58 23.5h-159v-165h159q35 0 58 23.5t23 59.5z" />
    <glyph glyph-name="C" unicode="C" horiz-adv-x="726" 
d="M698 151q-43 -73 -122 -119t-179 -46q-158 0 -261 105t-103 259q0 155 103 259.5t261 104.5q99 0 178.5 -46.5t122.5 -118.5l-119 -69q-16 29 -42 51.5t-62 35.5t-78 13q-101 0 -164 -64t-63 -166q0 -101 63 -165t164 -64q62 0 110 27.5t72 71.5z" />
    <glyph glyph-name="D" unicode="D" horiz-adv-x="713" 
d="M680 350q0 -146 -96.5 -248t-240.5 -102h-278v700h278q144 0 240.5 -102t96.5 -248zM548 350q0 95 -56.5 156.5t-148.5 61.5h-140v-436h140q92 0 148.5 61.5t56.5 156.5z" />
    <glyph glyph-name="E" unicode="E" horiz-adv-x="530" 
d="M203 132h295v-132h-433v700h428v-132h-290v-149h265v-130h-265v-157z" />
    <glyph glyph-name="F" unicode="F" horiz-adv-x="519" 
d="M483 568h-280v-166h272v-132h-272v-270h-138v700h418v-132z" />
    <glyph glyph-name="G" unicode="G" horiz-adv-x="785" 
d="M170 349q0 -101 67 -164.5t172 -63.5q79 0 132 35.5t72 97.5h-212v122h351v-54q0 -149 -96.5 -242.5t-247.5 -93.5q-162 0 -268.5 105.5t-106.5 257.5q0 153 105.5 259t261.5 106q100 0 181 -45.5t124 -117.5l-118 -68q-25 42 -75.5 69.5t-112.5 27.5q-99 0 -164 -65.5
t-65 -165.5z" />
    <glyph glyph-name="H" unicode="H" horiz-adv-x="665" 
d="M463 700h137v-700h-137v290h-260v-290h-138v700h138v-278h260v278z" />
    <glyph glyph-name="I" unicode="I" horiz-adv-x="268" 
d="M65 700h138v-700h-138v700z" />
    <glyph glyph-name="J" unicode="J" horiz-adv-x="569" 
d="M510 218q0 -107 -68 -169.5t-178 -62.5q-165 0 -231 133l119 68q33 -66 112 -66q52 0 80.5 24.5t28.5 72.5v482h137v-482z" />
    <glyph glyph-name="K" unicode="K" horiz-adv-x="615" 
d="M203 0h-138v700h138v-309l240 309h159l-259 -340l269 -360h-159l-250 328v-328z" />
    <glyph glyph-name="L" unicode="L" horiz-adv-x="483" 
d="M203 132h267v-132h-405v700h138v-568z" />
    <glyph glyph-name="M" unicode="M" horiz-adv-x="815" 
d="M750 700v-700h-137v454l-197 -325h-16l-197 324v-453h-138v700h142l201 -331l200 331h142z" />
    <glyph glyph-name="N" unicode="N" horiz-adv-x="673" 
d="M470 700h138v-700h-105l-300 428v-428h-138v700h105l300 -427v427z" />
    <glyph glyph-name="O" unicode="O" horiz-adv-x="792" 
d="M396 714q152 0 258 -105.5t106 -258.5t-106 -258.5t-258 -105.5t-257.5 105.5t-105.5 258.5t105.5 258.5t257.5 105.5zM170 350q0 -98 64.5 -163.5t161.5 -65.5t161.5 65.5t64.5 163.5t-64.5 164t-161.5 66t-161.5 -66t-64.5 -164z" />
    <glyph glyph-name="P" unicode="P" horiz-adv-x="590" 
d="M565 465q0 -99 -69.5 -167t-169.5 -68h-123v-230h-138v700h261q100 0 169.5 -68t69.5 -167zM428 465q0 45 -29 75.5t-73 30.5h-123v-212h123q44 0 73 30.5t29 75.5z" />
    <glyph glyph-name="Q" unicode="Q" horiz-adv-x="797" 
d="M760 350q0 -136 -86 -236l72 -75l-98 -87l-76 79q-81 -45 -176 -45q-151 0 -257 105.5t-106 258.5t106 258.5t257 105.5t257.5 -105.5t106.5 -258.5zM170 350q0 -97 65 -163t161 -66q39 0 78 13l-115 120l98 87l123 -128q42 60 42 137q0 98 -64.5 164t-161.5 66
t-161.5 -66t-64.5 -164z" />
    <glyph glyph-name="R" unicode="R" horiz-adv-x="614" 
d="M578 468q0 -69 -39 -123.5t-96 -80.5l155 -264h-149l-141 243h-105v-243h-138v700h280q96 0 164.5 -68t68.5 -164zM440 468q0 42 -27.5 72.5t-67.5 30.5h-142v-207h142q40 0 67.5 31t27.5 73z" />
    <glyph glyph-name="S" unicode="S" horiz-adv-x="583" 
d="M558 197q0 -99 -72 -155t-182 -56q-103 0 -174.5 46.5t-100.5 126.5l118 69q41 -107 161 -107q50 0 81 18t31 56q0 37 -33 57.5t-118 44.5q-34 10 -55.5 18t-44 19.5t-45.5 27.5q-66 49 -66 144q0 92 66.5 150t163.5 58q89 0 152 -43t98 -114l-116 -67q-42 90 -134 90
q-40 0 -66 -18t-26 -52q0 -33 27.5 -53.5t105.5 -44.5q6 -2 18 -5.5t18.5 -5.5t17.5 -6t18.5 -6.5t17 -6t17 -7t15.5 -8t15 -9.5q48 -31 66 -62q26 -44 26 -99z" />
    <glyph glyph-name="T" unicode="T" horiz-adv-x="540" 
d="M528 700v-132h-189v-568h-138v568h-188v132h515z" />
    <glyph glyph-name="U" unicode="U" horiz-adv-x="653" 
d="M594 229q0 -111 -75.5 -177t-192.5 -66q-116 0 -191.5 66t-75.5 177v471h137v-460q0 -59 33.5 -89t96.5 -30t96.5 30t33.5 89v460h138v-471z" />
    <glyph glyph-name="V" unicode="V" horiz-adv-x="647" 
d="M238 0l-235 700h150l171 -538l170 538h151l-236 -700h-171z" />
    <glyph glyph-name="W" unicode="W" horiz-adv-x="999" 
d="M211 0l-196 700h145l134 -519l146 519h118l147 -519l134 519h145l-196 -700h-157l-132 462l-131 -462h-157z" />
    <glyph glyph-name="X" unicode="X" horiz-adv-x="610" 
d="M598 0h-157l-136 228l-136 -228h-156l214 359l-203 341h156l125 -210l125 210h156l-203 -340z" />
    <glyph glyph-name="Y" unicode="Y" horiz-adv-x="621" 
d="M379 0h-137v273l-239 427h156l152 -292l152 292h156l-240 -427v-273z" />
    <glyph glyph-name="Z" unicode="Z" horiz-adv-x="535" 
d="M509 132v-132h-473v110l291 458h-284v132h460v-109l-291 -459h297z" />
    <glyph glyph-name="bracketleft" unicode="[" horiz-adv-x="310" 
d="M290 676h-108v-652h108v-124h-237v900h237v-124z" />
    <glyph glyph-name="backslash" unicode="\" horiz-adv-x="523" 
d="M433 -100l-400 900h57l400 -900h-57z" />
    <glyph glyph-name="bracketright" unicode="]" horiz-adv-x="310" 
d="M257 800v-900h-237v124h108v652h-108v124h237z" />
    <glyph glyph-name="asciicircum" unicode="^" horiz-adv-x="560" 
d="M329 700l191 -330h-139l-101 182l-101 -182h-139l191 330h98z" />
    <glyph glyph-name="underscore" unicode="_" horiz-adv-x="520" 
d="M33 -171v124h455v-124h-455z" />
    <glyph glyph-name="grave" unicode="`" horiz-adv-x="275" 
d="M255 563l-80 137h-155l111 -137h124z" />
    <glyph glyph-name="a" unicode="a" 
d="M33 250q0 107 70.5 185.5t172.5 78.5q105 0 163 -73v59h129v-500h-129v59q-58 -73 -163 -73q-102 0 -172.5 78.5t-70.5 185.5zM162 250q0 -61 39 -101t99 -40t99.5 40t39.5 101t-39.5 101t-99.5 40t-99 -40t-39 -101z" />
    <glyph glyph-name="b" unicode="b" 
d="M594 250q0 -108 -70.5 -186t-173.5 -78q-105 0 -162 73v-59h-129v700h129v-259q57 73 162 73q103 0 173.5 -78t70.5 -186zM188 250q0 -61 39 -101t99 -40t99.5 40t39.5 101t-39.5 101t-99.5 40t-99 -40t-39 -101z" />
    <glyph glyph-name="c" unicode="c" horiz-adv-x="536" 
d="M523 116q-32 -57 -91 -93.5t-135 -36.5q-112 0 -188 76t-76 188t76 188t188 76q75 0 134.5 -36.5t89.5 -92.5l-111 -65q-14 30 -44.5 48.5t-69.5 18.5q-58 0 -96 -39t-38 -98q0 -58 38 -97t96 -39q40 0 70.5 18t44.5 48z" />
    <glyph glyph-name="d" unicode="d" 
d="M32 250q0 108 70.5 186t173.5 78q105 0 162 -73v259h129v-700h-129v59q-57 -73 -162 -73q-103 0 -173.5 78t-70.5 186zM161 250q0 -61 39.5 -101t99.5 -40t99 40t39 101t-39 101t-99 40t-99.5 -40t-39.5 -101z" />
    <glyph glyph-name="e" unicode="e" horiz-adv-x="581" 
d="M297 514q72 0 130 -35t90.5 -95.5t32.5 -133.5q0 -25 -5 -53h-377q26 -94 141 -94q74 0 112 50l104 -60q-74 -107 -218 -107q-120 0 -197 73.5t-77 190.5q0 114 75 189t189 75zM421 297q-7 30 -23 52.5t-42 35.5t-59 13q-53 0 -86.5 -27t-44.5 -74h255z" />
    <glyph glyph-name="f" unicode="f" horiz-adv-x="328" 
d="M222 500h106v-124h-106v-376h-129v376h-72v124h72v5q0 109 60.5 162.5t174.5 46.5v-124q-106 8 -106 -85v-5z" />
    <glyph glyph-name="g" unicode="g" 
d="M33 258q0 105 72.5 180.5t176.5 75.5q103 0 160 -76v62h126v-476q0 -116 -76.5 -177t-184.5 -61q-84 0 -144.5 32t-92.5 90l110 63q38 -70 131 -70q61 0 96 32t35 91v54q-57 -76 -160 -76q-105 0 -177 75t-72 181zM302 121q61 0 100.5 38.5t39.5 98.5q0 59 -40 97.5
t-100 38.5t-100 -38.5t-40 -97.5q0 -60 39.5 -98.5t100.5 -38.5z" />
    <glyph glyph-name="h" unicode="h" horiz-adv-x="577" 
d="M298 394q-53 0 -81.5 -33t-28.5 -91v-270h-129v700h129v-256q47 70 149 70q86 0 137.5 -57.5t51.5 -149.5v-307h-129v291q0 48 -26 75.5t-73 27.5z" />
    <glyph glyph-name="i" unicode="i" horiz-adv-x="247" 
d="M203 639q0 -32 -24 -55.5t-56 -23.5t-55.5 23.5t-23.5 55.5t23.5 56t55.5 24t56 -24t24 -56zM59 0v500h129v-500h-129z" />
    <glyph glyph-name="j" unicode="j" horiz-adv-x="264" 
d="M220 639q0 -32 -23.5 -55.5t-55.5 -23.5t-56 23.5t-24 55.5t24 56t56 24t55.5 -24t23.5 -56zM-13 -90q46 -3 67.5 16t21.5 64v510h129v-510q0 -110 -53.5 -160.5t-164.5 -43.5v124z" />
    <glyph glyph-name="k" unicode="k" horiz-adv-x="525" 
d="M188 0h-129v700h129v-420l172 220h154l-201 -247l207 -253h-150l-182 227v-227z" />
    <glyph glyph-name="l" unicode="l" horiz-adv-x="247" 
d="M59 0v730h129v-730h-129z" />
    <glyph glyph-name="m" unicode="m" horiz-adv-x="852" 
d="M282 394q-46 0 -70 -30.5t-24 -82.5v-281h-129v500h129v-53q45 67 139 67q92 0 136 -72q50 72 149 72q87 0 138 -57t51 -149v-308h-129v299q0 44 -21.5 69.5t-62.5 25.5q-46 0 -69.5 -30.5t-23.5 -82.5v-281h-129v299q0 44 -21.5 69.5t-62.5 25.5z" />
    <glyph glyph-name="n" unicode="n" horiz-adv-x="577" 
d="M298 394q-53 0 -81.5 -33t-28.5 -91v-270h-129v500h129v-56q47 70 149 70q86 0 137.5 -57.5t51.5 -149.5v-307h-129v291q0 48 -26 75.5t-73 27.5z" />
    <glyph glyph-name="o" unicode="o" horiz-adv-x="594" 
d="M562 250q0 -110 -77.5 -187t-187.5 -77t-187 77t-77 187t77 187t187 77t187.5 -77t77.5 -187zM162 250q0 -59 38.5 -98.5t96.5 -39.5t97 39.5t39 98.5t-39 98.5t-97 39.5t-96.5 -39.5t-38.5 -98.5z" />
    <glyph glyph-name="p" unicode="p" 
d="M594 250q0 -108 -70.5 -186t-173.5 -78q-105 0 -162 73v-259h-129v700h129v-59q57 73 162 73q103 0 173.5 -78t70.5 -186zM188 250q0 -61 39 -101t99 -40t99.5 40t39.5 101t-39.5 101t-99.5 40t-99 -40t-39 -101z" />
    <glyph glyph-name="q" unicode="q" 
d="M32 250q0 108 70.5 186t173.5 78q105 0 162 -73v59h129v-700h-129v259q-57 -73 -162 -73q-103 0 -173.5 78t-70.5 186zM161 250q0 -61 39.5 -101t99.5 -40t99 40t39 101t-39 101t-99 40t-99.5 -40t-39.5 -101z" />
    <glyph glyph-name="r" unicode="r" horiz-adv-x="356" 
d="M340 510v-144q-59 7 -105.5 -24t-46.5 -103v-239h-129v500h129v-86q17 44 56.5 70t95.5 26z" />
    <glyph glyph-name="s" unicode="s" horiz-adv-x="465" 
d="M236 399q-15 0 -28 -4.5t-21.5 -14t-8.5 -22.5q0 -12 8 -21t26.5 -16t27 -9.5t29.5 -7.5q37 -10 62.5 -20t51.5 -27.5t39.5 -45t13.5 -65.5q0 -77 -57.5 -118.5t-143.5 -41.5q-154 0 -210 119l112 63q22 -65 98 -65q69 0 69 43q0 12 -8 21t-27 16.5t-26.5 9.5t-29.5 8
q-36 10 -61 19.5t-51.5 26.5t-40.5 44.5t-14 63.5q0 74 54.5 116.5t135.5 42.5q65 0 114 -29t76 -77l-110 -60q-24 51 -80 51z" />
    <glyph glyph-name="t" unicode="t" horiz-adv-x="385" 
d="M232 168q0 -27 16 -39.5t41 -12.5t56 1v-117q-127 -14 -184.5 22.5t-57.5 145.5v208h-87v124h87v101l129 39v-140h113v-124h-113v-208z" />
    <glyph glyph-name="u" unicode="u" horiz-adv-x="577" 
d="M279 106q53 0 81.5 33t28.5 91v270h129v-500h-129v56q-47 -70 -149 -70q-86 0 -137.5 57.5t-51.5 149.5v307h129v-291q0 -48 26 -75.5t73 -27.5z" />
    <glyph glyph-name="v" unicode="v" horiz-adv-x="533" 
d="M388 500h142l-190 -500h-147l-190 500h142l121 -350z" />
    <glyph glyph-name="w" unicode="w" horiz-adv-x="770" 
d="M622 500h137l-159 -500h-123l-92 303l-92 -303h-123l-159 500h137l85 -307l91 307h122l91 -308z" />
    <glyph glyph-name="x" unicode="x" horiz-adv-x="525" 
d="M520 0h-149l-108 152l-109 -152h-149l183 255l-175 245h149l101 -141l101 141h148l-175 -244z" />
    <glyph glyph-name="y" unicode="y" horiz-adv-x="525" 
d="M385 500h138l-182 -500q-17 -48 -38.5 -83.5t-52.5 -64t-74.5 -42t-98.5 -10.5v120q55 -1 84.5 23t46.5 73l-205 484h141l130 -336z" />
    <glyph glyph-name="z" unicode="z" horiz-adv-x="474" 
d="M438 121v-121h-395v86l211 293h-201v121h375v-86l-212 -293h222z" />
    <glyph glyph-name="braceleft" unicode="{" horiz-adv-x="359" 
d="M258 79q0 -40 19 -53.5t62 -8.5v-124q-210 -15 -210 186v148q0 40 -18 52.5t-61 9.5v125q43 -3 61 9.5t18 52.5v148q0 201 210 186v-124q-43 5 -62 -8.5t-19 -53.5v-148q0 -91 -60 -124q60 -34 60 -125v-148z" />
    <glyph glyph-name="bar" unicode="|" horiz-adv-x="259" 
d="M65 -200v920h129v-920h-129z" />
    <glyph glyph-name="braceright" unicode="}" horiz-adv-x="359" 
d="M309 289q-43 3 -61 -9.5t-18 -52.5v-148q0 -201 -210 -186v124q43 -5 62 8.5t19 53.5v148q0 91 60 125q-60 33 -60 124v148q0 40 -19 53.5t-62 8.5v124q210 15 210 -186v-148q0 -40 18 -52.5t61 -9.5v-125z" />
    <glyph glyph-name="asciitilde" unicode="~" horiz-adv-x="599" 
d="M449 443l105 -51q-15 -59 -49 -95t-85 -44t-116 26q-40 19 -63 27q-52 16 -71 -10q-10 -14 -20 -41l-105 50q15 58 48.5 94t85 44.5t116.5 -24.5q53 -25 80 -31q31 -7 46.5 7.5t27.5 47.5z" />
    <glyph glyph-name="exclamdown" unicode="&#xa1;" horiz-adv-x="268" 
d="M49 428q0 35 25 60t60 25t60 -25t25 -60t-25 -60t-60 -25t-60 25t-25 60zM211 -200h-155v200l27 265h102l26 -265v-200z" />
    <glyph glyph-name="cent" unicode="&#xa2;" horiz-adv-x="536" 
d="M523 216q-32 -57 -91 -93.5t-135 -36.5q-34 0 -61 7l-30 -93h-58l35 110q-66 30 -108 93t-42 147q0 112 76 188t188 76q27 0 48 -4l29 90h58l-34 -106q83 -33 123 -109l-111 -65q-17 35 -52 52l-82 -257q6 -1 20 -1q40 0 70.5 18t44.5 48zM296 487q-58 0 -96 -39t-38 -98
q0 -78 61 -116l82 253h-9z" />
    <glyph glyph-name="sterling" unicode="&#xa3;" horiz-adv-x="581" 
d="M329 580q-39 0 -62.5 -24.5t-23.5 -65.5v-95h203v-121h-203v-141h327v-133h-537v133h73v141h-61v121h61v100q0 106 65.5 162.5t154.5 56.5q79 0 134.5 -40t82.5 -106l-119 -68q-26 80 -95 80z" />
    <glyph glyph-name="currency" unicode="&#xa4;" horiz-adv-x="543" 
d="M486 350q0 -75 -45 -131l70 -70l-38 -38l-71 71q-54 -42 -130 -42q-74 0 -131 41l-70 -70l-38 38l69 70q-45 56 -45 131q0 74 45 132l-69 69l38 38l70 -70q58 42 131 42q72 0 130 -42l71 70l38 -38l-70 -70q45 -58 45 -131zM185 350q0 -39 24 -63.5t63 -24.5
q38 0 62.5 25t24.5 63t-24.5 63t-62.5 25q-39 0 -63 -24.5t-24 -63.5z" />
    <glyph glyph-name="yen" unicode="&#xa5;" horiz-adv-x="601" 
d="M531 362v-80h-147l-5 -9v-36h152v-81h-152v-156h-137v156h-171v81h171v36l-5 9h-166v80h121l-189 338h156l152 -292l152 292h156l-190 -338h102z" />
    <glyph glyph-name="brokenbar" unicode="&#xa6;" horiz-adv-x="259" 
d="M65 350v370h129v-370h-129zM65 -200v370h129v-370h-129z" />
    <glyph glyph-name="section" unicode="&#xa7;" horiz-adv-x="542" 
d="M272 600q-18 0 -31.5 -5.5t-22 -17.5t-8.5 -28q0 -19 18 -36t38 -26q3 -1 61 -25t78 -35q45 -25 72.5 -58t27.5 -85q0 -77 -59 -128q33 -41 33 -100q0 -79 -57 -123.5t-144 -44.5q-168 0 -221 126l115 66q27 -78 106 -78q72 0 72 54q0 12 -5 22t-17.5 17.5t-19.5 11.5
t-24 11t-20 8q-7 3 -31.5 13t-30.5 12q-70 30 -111.5 69t-41.5 105q0 78 62 125q-30 39 -30 99q0 50 26 88.5t69 57.5t96 19q72 0 123.5 -34.5t76.5 -91.5l-106 -58q-32 70 -94 70zM178 332q0 -17 11.5 -32t33.5 -27t41.5 -20.5t48 -18.5t40.5 -15q23 20 23 50
q0 29 -22 46.5t-67 35.5q-73 27 -85 32q-24 -18 -24 -51z" />
    <glyph glyph-name="dieresis" unicode="&#xa8;" horiz-adv-x="365" 
d="M155 616q0 -28 -19.5 -47.5t-47.5 -19.5t-48 19.5t-20 47.5t20 48t48 20t47.5 -20t19.5 -48zM345 616q0 -28 -19.5 -47.5t-47.5 -19.5t-48 19.5t-20 47.5t20 48t48 20t47.5 -20t19.5 -48z" />
    <glyph glyph-name="copyright" unicode="&#xa9;" horiz-adv-x="789" 
d="M395 712q150 0 256 -106t106 -256t-106 -256t-256 -106t-256 106t-106 256t106 256t256 106zM395 22q134 0 229 96t95 232t-95 232t-229 96q-135 0 -230 -96t-95 -232t95 -232t230 -96zM566 250q-15 -27 -39 -48t-58 -34.5t-71 -13.5q-81 0 -139.5 58t-58.5 138t58.5 138
t139.5 58q56 0 100 -27t67 -69l-96 -56q-21 41 -74 41q-24 0 -43.5 -11t-30 -30.5t-10.5 -43.5q0 -36 24 -60.5t60 -24.5q52 0 74 42z" />
    <glyph glyph-name="guillemotleft" unicode="&#xab;" horiz-adv-x="545" 
d="M292 497l-110 -188l110 -187h-119l-110 187l110 188h119zM482 497l-110 -188l110 -187h-119l-110 187l110 188h119z" />
    <glyph glyph-name="logicalnot" unicode="&#xac;" horiz-adv-x="550" 
d="M45 411h460v-240h-129v119h-331v121z" />
    <glyph glyph-name="registered" unicode="&#xae;" horiz-adv-x="789" 
d="M395 712q150 0 256 -106t106 -256t-106 -256t-256 -106t-256 106t-106 256t106 256t256 106zM395 22q134 0 229 96t95 232t-95 232t-229 96q-135 0 -230 -96t-95 -232t95 -232t230 -96zM407 535q59 0 101 -34t42 -89q0 -72 -55 -111l76 -136h-115l-53 110h-38v-110h-107
v370h149zM398 365q20 0 32.5 9.5t12.5 26.5q0 37 -45 37h-33v-73h33z" />
    <glyph glyph-name="macron" unicode="&#xaf;" horiz-adv-x="330" 
d="M20 564v105h290v-105h-290z" />
    <glyph glyph-name="degree" unicode="&#xb0;" horiz-adv-x="401" 
d="M369 645q0 -70 -48.5 -117.5t-119.5 -47.5q-70 0 -119 48t-49 117q0 70 49 117.5t119 47.5t119 -47.5t49 -117.5zM142 645q0 -26 16.5 -43t42.5 -17t42.5 17t16.5 43t-16.5 43t-42.5 17t-42.5 -17t-16.5 -43z" />
    <glyph glyph-name="plusminus" unicode="&#xb1;" horiz-adv-x="555" 
d="M338 502h165v-121h-165v-146h-121v146h-164v121h164v146h121v-146zM53 53v121h450v-121h-450z" />
    <glyph glyph-name="acute" unicode="&#xb4;" horiz-adv-x="275" 
d="M20 563h124l111 137h-155z" />
    <glyph glyph-name="uni00B5" unicode="&#xb5;" horiz-adv-x="617" 
d="M287 106q53 0 81.5 33t28.5 91v270h129v-347q0 -32 32 -32h36v-121h-60q-75 0 -111 50q-47 -64 -145 -64q-52 0 -90 22v-208h-129v700h129v-290q0 -48 26.5 -76t72.5 -28z" />
    <glyph glyph-name="paragraph" unicode="&#xb6;" horiz-adv-x="669" 
d="M25 485q0 88 63.5 151.5t151.5 63.5h383v-113h-62v-787h-121v787h-79v-787h-121v470q-88 0 -151.5 63.5t-63.5 151.5z" />
    <glyph glyph-name="periodcentered" unicode="&#xb7;" horiz-adv-x="268" 
d="M219 347q0 -35 -25 -60t-60 -25t-60 25t-25 60t25 60t60 25t60 -25t25 -60z" />
    <glyph glyph-name="cedilla" unicode="&#xb8;" horiz-adv-x="260" 
d="M170 -46q30 -7 50 -27t20 -51q0 -105 -220 -92v91q108 -7 108 20q0 20 -63 25v80h105v-46z" />
    <glyph glyph-name="guillemotright" unicode="&#xbb;" horiz-adv-x="545" 
d="M182 497l110 -188l-110 -187h-119l110 187l-110 188h119zM372 497l110 -188l-110 -187h-119l110 187l-110 188h119z" />
    <glyph glyph-name="onequarter" unicode="&#xbc;" horiz-adv-x="814" 
d="M217 300h-107v292l-82 -23l-25 88l120 43h94v-400zM517 700h90l-400 -700h-90zM798 162v-98h-41v-64h-102v64h-187v98l129 238h114l-123 -238h67v69h102v-69h41z" />
    <glyph glyph-name="onehalf" unicode="&#xbd;" horiz-adv-x="813" 
d="M217 300h-107v292l-82 -23l-25 88l120 43h94v-400zM517 700h90l-400 -700h-90zM626 414q62 0 105 -35t43 -91q0 -61 -68 -129l-65 -62h139v-97h-299v70l150 149q35 33 35 61q0 17 -11.5 26.5t-29.5 9.5q-41 0 -62 -51l-87 50q42 99 150 99z" />
    <glyph glyph-name="threequarters" unicode="&#xbe;" horiz-adv-x="895" 
d="M231 535q90 -25 90 -114q0 -66 -41.5 -100.5t-113.5 -34.5q-116 0 -156 89l90 52q17 -47 66 -47q48 0 48 41q0 19 -14.5 29.5t-36.5 10.5h-19l-40 58l69 84h-145v97h275v-79zM598 700h90l-400 -700h-90zM879 162v-98h-41v-64h-102v64h-187v98l129 238h114l-123 -238h67
v69h102v-69h41z" />
    <glyph glyph-name="questiondown" unicode="&#xbf;" horiz-adv-x="553" 
d="M204 428q0 35 25 60t60 25t60 -25t25 -60t-25 -60t-60 -25t-60 25t-25 60zM518 -59q-28 -69 -92 -112t-150 -43q-91 0 -157.5 52.5t-66.5 144.5q0 42 17 78.5t38 57.5t51 49.5t44 48.5q18 24 18 48h138q0 -15 -3.5 -30t-7 -25.5t-13 -24.5t-14 -21t-18 -20.5l-17 -17
t-19 -17.5t-16.5 -15q-60 -53 -60 -101q0 -36 25 -54.5t66 -18.5q84 0 119 89z" />
    <glyph glyph-name="Agrave" unicode="&#xc0;" horiz-adv-x="668" 
d="M416 763h-124l-111 137h155zM515 0l-42 126h-279l-42 -126h-149l245 700h171l246 -700h-150zM238 255h192l-96 286z" />
    <glyph glyph-name="Aacute" unicode="&#xc1;" horiz-adv-x="668" 
d="M489 900l-111 -137h-124l80 137h155zM515 0l-42 126h-279l-42 -126h-149l245 700h171l246 -700h-150zM238 255h192l-96 286z" />
    <glyph glyph-name="Acircumflex" unicode="&#xc2;" horiz-adv-x="668" 
d="M331 820l-44 -65h-128l106 145h131l106 -145h-128zM515 0l-42 126h-279l-42 -126h-149l245 700h171l246 -700h-150zM238 255h192l-96 286z" />
    <glyph glyph-name="Atilde" unicode="&#xc3;" horiz-adv-x="668" 
d="M268 760h-104q0 35 6.5 64t22 52t40.5 30t61 -1q26 -7 52 -24q26 -20 39 -16.5t13 40.5h105q0 -34 -6 -61.5t-19 -49.5t-36.5 -32t-55.5 -4q-32 5 -65 26q-26 20 -39.5 16.5t-13.5 -40.5zM515 0l-42 126h-279l-42 -126h-149l245 700h171l246 -700h-150zM238 255h192
l-96 286z" />
    <glyph glyph-name="Adieresis" unicode="&#xc4;" horiz-adv-x="668" 
d="M306 816q0 -28 -19.5 -47.5t-47.5 -19.5t-48 19.5t-20 47.5t20 48t48 20t47.5 -20t19.5 -48zM496 816q0 -28 -19.5 -47.5t-47.5 -19.5t-48 19.5t-20 47.5t20 48t48 20t47.5 -20t19.5 -48zM515 0l-42 126h-279l-42 -126h-149l245 700h171l246 -700h-150zM238 255h192
l-96 286z" />
    <glyph glyph-name="Aring" unicode="&#xc5;" horiz-adv-x="668" 
d="M334 886q54 0 90 -33t36 -85t-35 -85l240 -683h-150l-42 126h-279l-42 -126h-149l239 684q-34 34 -34 84q0 52 36 85t90 33zM295 768q0 -17 10.5 -27.5t28.5 -10.5q40 0 40 38q0 37 -40 37q-17 0 -28 -10t-11 -27zM238 255h192l-96 286z" />
    <glyph glyph-name="AE" unicode="&#xc6;" horiz-adv-x="880" 
d="M584 132h264v-132h-398v126h-221l-74 -126h-155l414 700h429v-132h-259v-149h236v-130h-236v-157zM450 255v246l-145 -246h145z" />
    <glyph glyph-name="Ccedilla" unicode="&#xc7;" horiz-adv-x="726" 
d="M455 -46q19 -5 34.5 -14.5t25.5 -26t10 -37.5q0 -105 -220 -92v91q108 -7 108 20q0 20 -63 25v69q-136 16 -226.5 116.5t-90.5 244.5q0 155 103 259.5t261 104.5q99 0 178.5 -46.5t122.5 -118.5l-119 -69q-16 29 -42 51.5t-62 35.5t-78 13q-101 0 -164 -64t-63 -166
q0 -101 63 -165t164 -64q62 0 110 27.5t72 71.5l119 -69q-37 -62 -100 -105t-143 -56v-36z" />
    <glyph glyph-name="Egrave" unicode="&#xc8;" horiz-adv-x="530" 
d="M361 763h-124l-111 137h155zM203 132h295v-132h-433v700h428v-132h-290v-149h265v-130h-265v-157z" />
    <glyph glyph-name="Eacute" unicode="&#xc9;" horiz-adv-x="530" 
d="M434 900l-111 -137h-124l80 137h155zM203 132h295v-132h-433v700h428v-132h-290v-149h265v-130h-265v-157z" />
    <glyph glyph-name="Ecircumflex" unicode="&#xca;" horiz-adv-x="530" 
d="M276 820l-44 -65h-128l106 145h131l106 -145h-128zM203 132h295v-132h-433v700h428v-132h-290v-149h265v-130h-265v-157z" />
    <glyph glyph-name="Edieresis" unicode="&#xcb;" horiz-adv-x="530" 
d="M251 816q0 -28 -19.5 -47.5t-47.5 -19.5t-48 19.5t-20 47.5t20 48t48 20t47.5 -20t19.5 -48zM441 816q0 -28 -19.5 -47.5t-47.5 -19.5t-48 19.5t-20 47.5t20 48t48 20t47.5 -20t19.5 -48zM203 132h295v-132h-433v700h428v-132h-290v-149h265v-130h-265v-157z" />
    <glyph glyph-name="Igrave" unicode="&#xcc;" horiz-adv-x="268" 
d="M216 763l-80 137h-155l111 -137h124zM65 700h138v-700h-138v700z" />
    <glyph glyph-name="Iacute" unicode="&#xcd;" horiz-adv-x="268" 
d="M54 763h124l111 137h-155zM65 700h138v-700h-138v700z" />
    <glyph glyph-name="Icircumflex" unicode="&#xce;" horiz-adv-x="268" 
d="M131 820l-44 -65h-128l106 145h131l106 -145h-128zM65 0v700h138v-700h-138z" />
    <glyph glyph-name="Idieresis" unicode="&#xcf;" horiz-adv-x="268" 
d="M106 816q0 -28 -19.5 -47.5t-47.5 -19.5t-48 19.5t-20 47.5t20 48t48 20t47.5 -20t19.5 -48zM296 816q0 -28 -19.5 -47.5t-47.5 -19.5t-48 19.5t-20 47.5t20 48t48 20t47.5 -20t19.5 -48zM65 700h138v-700h-138v700z" />
    <glyph glyph-name="Eth" unicode="&#xd0;" horiz-adv-x="748" 
d="M715 350q0 -146 -96.5 -248t-240.5 -102h-278v281h-78v124h78v295h278q144 0 240.5 -102t96.5 -248zM583 350q0 95 -56.5 156.5t-148.5 61.5h-140v-163h159v-124h-159v-149h140q92 0 148.5 61.5t56.5 156.5z" />
    <glyph glyph-name="Ntilde" unicode="&#xd1;" horiz-adv-x="673" 
d="M159 760q0 76 31.5 119.5t98.5 25.5q26 -7 52 -24q26 -20 39 -16.5t13 40.5h105q0 -34 -6 -61.5t-19 -49.5t-36.5 -32t-56.5 -4q-31 5 -64 26q-26 20 -39.5 16.5t-13.5 -40.5h-104zM470 700h138v-700h-105l-300 428v-428h-138v700h105l300 -427v427z" />
    <glyph glyph-name="Ograve" unicode="&#xd2;" horiz-adv-x="792" 
d="M478 771l-80 137h-155l111 -137h124zM396 714q152 0 258 -105.5t106 -258.5t-106 -258.5t-258 -105.5t-257.5 105.5t-105.5 258.5t105.5 258.5t257.5 105.5zM170 350q0 -98 64.5 -163.5t161.5 -65.5t161.5 65.5t64.5 163.5t-64.5 164t-161.5 66t-161.5 -66t-64.5 -164z
" />
    <glyph glyph-name="Oacute" unicode="&#xd3;" horiz-adv-x="792" 
d="M316 771h124l111 137h-155zM396 714q152 0 258 -105.5t106 -258.5t-106 -258.5t-258 -105.5t-257.5 105.5t-105.5 258.5t105.5 258.5t257.5 105.5zM170 350q0 -98 64.5 -163.5t161.5 -65.5t161.5 65.5t64.5 163.5t-64.5 164t-161.5 66t-161.5 -66t-64.5 -164z" />
    <glyph glyph-name="Ocircumflex" unicode="&#xd4;" horiz-adv-x="792" 
d="M393 828l-44 -65h-128l106 145h131l106 -145h-128zM396 714q152 0 258 -105.5t106 -258.5t-106 -258.5t-258 -105.5t-257.5 105.5t-105.5 258.5t105.5 258.5t257.5 105.5zM170 350q0 -98 64.5 -163.5t161.5 -65.5t161.5 65.5t64.5 163.5t-64.5 164t-161.5 66t-161.5 -66
t-64.5 -164z" />
    <glyph glyph-name="Otilde" unicode="&#xd5;" horiz-adv-x="792" 
d="M226 768q0 76 31.5 119.5t98.5 25.5q26 -7 52 -24q26 -20 39 -16.5t13 40.5h105q0 -34 -6 -61.5t-19 -49.5t-36.5 -32t-55.5 -4q-32 5 -65 26q-26 20 -39.5 16.5t-13.5 -40.5h-104zM396 714q152 0 258 -105.5t106 -258.5t-106 -258.5t-258 -105.5t-257.5 105.5
t-105.5 258.5t105.5 258.5t257.5 105.5zM170 350q0 -98 64.5 -163.5t161.5 -65.5t161.5 65.5t64.5 163.5t-64.5 164t-161.5 66t-161.5 -66t-64.5 -164z" />
    <glyph glyph-name="Odieresis" unicode="&#xd6;" horiz-adv-x="792" 
d="M368 824q0 -28 -19.5 -47.5t-47.5 -19.5t-48 19.5t-20 47.5t20 48t48 20t47.5 -20t19.5 -48zM558 824q0 -28 -19.5 -47.5t-47.5 -19.5t-48 19.5t-20 47.5t20 48t48 20t47.5 -20t19.5 -48zM396 714q152 0 258 -105.5t106 -258.5t-106 -258.5t-258 -105.5t-257.5 105.5
t-105.5 258.5t105.5 258.5t257.5 105.5zM170 350q0 -98 64.5 -163.5t161.5 -65.5t161.5 65.5t64.5 163.5t-64.5 164t-161.5 66t-161.5 -66t-64.5 -164z" />
    <glyph glyph-name="multiply" unicode="&#xd7;" horiz-adv-x="512" 
d="M462 471l-121 -121l121 -121l-86 -84l-120 120l-120 -120l-86 84l121 121l-121 121l86 84l120 -120l120 120z" />
    <glyph glyph-name="Oslash" unicode="&#xd8;" horiz-adv-x="798" 
d="M766 350q0 -153 -106 -258.5t-258 -105.5q-111 0 -201 60l-47 -57l-68 40l55 66q-102 107 -102 255q0 153 105.5 258.5t257.5 105.5q110 0 202 -60l47 57l68 -39l-55 -67q102 -105 102 -255zM402 580q-97 0 -161.5 -66t-64.5 -164q0 -89 52 -150l290 350q-54 30 -116 30z
M402 121q97 0 161.5 65.5t64.5 163.5q0 88 -51 150l-290 -350q52 -29 115 -29z" />
    <glyph glyph-name="Ugrave" unicode="&#xd9;" horiz-adv-x="653" 
d="M408 763l-80 137h-155l111 -137h124zM594 229q0 -111 -75.5 -177t-192.5 -66q-116 0 -191.5 66t-75.5 177v471h137v-460q0 -59 33.5 -89t96.5 -30t96.5 30t33.5 89v460h138v-471z" />
    <glyph glyph-name="Uacute" unicode="&#xda;" horiz-adv-x="653" 
d="M246 763h124l111 137h-155zM594 229q0 -111 -75.5 -177t-192.5 -66q-116 0 -191.5 66t-75.5 177v471h137v-460q0 -59 33.5 -89t96.5 -30t96.5 30t33.5 89v460h138v-471z" />
    <glyph glyph-name="Ucircumflex" unicode="&#xdb;" horiz-adv-x="653" 
d="M323 820l-44 -65h-128l106 145h131l106 -145h-128zM326 121q63 0 96.5 30t33.5 89v460h138v-471q0 -111 -75.5 -177t-192.5 -66q-116 0 -191.5 66t-75.5 177v471h137v-460q0 -59 33.5 -89t96.5 -30z" />
    <glyph glyph-name="Udieresis" unicode="&#xdc;" horiz-adv-x="653" 
d="M298 816q0 -28 -19.5 -47.5t-47.5 -19.5t-48 19.5t-20 47.5t20 48t48 20t47.5 -20t19.5 -48zM488 816q0 -28 -19.5 -47.5t-47.5 -19.5t-48 19.5t-20 47.5t20 48t48 20t47.5 -20t19.5 -48zM594 229q0 -111 -75.5 -177t-192.5 -66q-116 0 -191.5 66t-75.5 177v471h137v-460
q0 -59 33.5 -89t96.5 -30t96.5 30t33.5 89v460h138v-471z" />
    <glyph glyph-name="Yacute" unicode="&#xdd;" horiz-adv-x="621" 
d="M465 900l-111 -137h-124l80 137h155zM379 0h-137v273l-239 427h156l152 -292l152 292h156l-240 -427v-273z" />
    <glyph glyph-name="Thorn" unicode="&#xde;" horiz-adv-x="590" 
d="M565 350q0 -97 -69 -166t-166 -69h-127v-115h-138v700h138v-115h127q97 0 166 -69t69 -166zM428 350q0 44 -28 75t-70 31h-127v-212h127q42 0 70 31t28 75z" />
    <glyph glyph-name="germandbls" unicode="&#xdf;" horiz-adv-x="537" 
d="M273 714q81 0 136.5 -44.5t55.5 -117.5q0 -52 -45 -117q-15 -21 -15 -37t12.5 -39t20.5 -33.5t25 -31.5q23 -28 40.5 -69t17.5 -80q0 -77 -56.5 -120t-185.5 -31v114q113 -11 113 59q0 28 -30 69.5t-59.5 83t-29.5 70.5q0 27 31.5 70t31.5 72q0 28 -19.5 46t-48.5 18
q-38 0 -59 -23.5t-21 -63.5v-509h-129v508q0 95 58.5 150.5t155.5 55.5z" />
    <glyph glyph-name="agrave" unicode="&#xe0;" 
d="M391 563h-124l-111 137h155zM33 250q0 107 70.5 185.5t172.5 78.5q105 0 163 -73v59h129v-500h-129v59q-58 -73 -163 -73q-102 0 -172.5 78.5t-70.5 185.5zM162 250q0 -61 39 -101t99 -40t99.5 40t39.5 101t-39.5 101t-99.5 40t-99 -40t-39 -101z" />
    <glyph glyph-name="aacute" unicode="&#xe1;" 
d="M464 700l-111 -137h-124l80 137h155zM33 250q0 107 70.5 185.5t172.5 78.5q105 0 163 -73v59h129v-500h-129v59q-58 -73 -163 -73q-102 0 -172.5 78.5t-70.5 185.5zM162 250q0 -61 39 -101t99 -40t99.5 40t39.5 101t-39.5 101t-99.5 40t-99 -40t-39 -101z" />
    <glyph glyph-name="acircumflex" unicode="&#xe2;" 
d="M306 620l-44 -65h-128l106 145h131l106 -145h-128zM33 250q0 107 70.5 185.5t172.5 78.5q105 0 163 -73v59h129v-500h-129v59q-58 -73 -163 -73q-102 0 -172.5 78.5t-70.5 185.5zM162 250q0 -61 39 -101t99 -40t99.5 40t39.5 101t-39.5 101t-99.5 40t-99 -40t-39 -101z
" />
    <glyph glyph-name="atilde" unicode="&#xe3;" 
d="M243 560h-104q0 35 6.5 64t22 52t40.5 30t61 -1q26 -7 52 -24q26 -20 39 -16.5t13 40.5h105q0 -34 -6 -61.5t-19 -49.5t-36.5 -32t-56.5 -4q-31 5 -64 26q-26 20 -39.5 16.5t-13.5 -40.5zM33 250q0 107 70.5 185.5t172.5 78.5q105 0 163 -73v59h129v-500h-129v59
q-58 -73 -163 -73q-102 0 -172.5 78.5t-70.5 185.5zM162 250q0 -61 39 -101t99 -40t99.5 40t39.5 101q0 40 -18 72.5t-49.5 50.5t-71.5 18q-60 0 -99 -40t-39 -101z" />
    <glyph glyph-name="adieresis" unicode="&#xe4;" 
d="M281 616q0 -28 -19.5 -47.5t-47.5 -19.5t-48 19.5t-20 47.5t20 48t48 20t47.5 -20t19.5 -48zM471 616q0 -28 -19.5 -47.5t-47.5 -19.5t-48 19.5t-20 47.5t20 48t48 20t47.5 -20t19.5 -48zM33 250q0 107 70.5 185.5t172.5 78.5q105 0 163 -73v59h129v-500h-129v59
q-58 -73 -163 -73q-102 0 -172.5 78.5t-70.5 185.5zM162 250q0 -61 39 -101t99 -40t99.5 40t39.5 101t-39.5 101t-99.5 40t-99 -40t-39 -101z" />
    <glyph glyph-name="aring" unicode="&#xe5;" 
d="M435 658q0 -53 -35.5 -86t-90.5 -33q-54 0 -90 33.5t-36 85.5t36 85t90 33t90 -33t36 -85zM270 658q0 -17 10.5 -27.5t28.5 -10.5q40 0 40 38q0 37 -40 37q-17 0 -28 -10t-11 -27zM33 250q0 107 70.5 185.5t172.5 78.5q105 0 163 -73v59h129v-500h-129v59
q-58 -73 -163 -73q-102 0 -172.5 78.5t-70.5 185.5zM162 250q0 -61 39 -101t99 -40t99.5 40t39.5 101t-39.5 101t-99.5 40t-99 -40t-39 -101z" />
    <glyph glyph-name="ae" unicode="&#xe6;" horiz-adv-x="988" 
d="M575 197q9 -30 27.5 -50.5t47.5 -32t65 -11.5q75 0 113 50l104 -60q-74 -107 -202 -107q-106 0 -170 77v-63h-121v59q-58 -73 -163 -73q-102 0 -172.5 78.5t-70.5 185.5t70.5 185.5t172.5 78.5q105 0 163 -73v59h121v-62q63 76 166 76q107 0 169 -75t62 -189
q0 -25 -5 -53h-377zM828 298q-10 47 -41.5 73.5t-81.5 26.5q-53 0 -86.5 -27t-45.5 -73h255zM162 250q0 -61 39 -101t99 -40t99.5 40t39.5 101q0 40 -18 72.5t-49.5 50.5t-71.5 18q-60 0 -99 -40t-39 -101z" />
    <glyph glyph-name="ccedilla" unicode="&#xe7;" horiz-adv-x="536" 
d="M355 -46q19 -5 34.5 -14.5t25.5 -26t10 -37.5q0 -105 -220 -92v91q108 -7 108 20q0 20 -63 25v70q-93 16 -155 87t-62 173q0 112 76 188t188 76q75 0 134.5 -36.5t89.5 -92.5l-111 -65q-14 30 -44.5 48.5t-69.5 18.5q-58 0 -96 -39t-38 -98q0 -58 38 -97t96 -39
q40 0 70.5 18t44.5 48l112 -64q-25 -46 -69 -79t-99 -45v-38z" />
    <glyph glyph-name="egrave" unicode="&#xe8;" horiz-adv-x="581" 
d="M373 567h-124l-111 137h155zM297 514q72 0 130 -35t90.5 -95.5t32.5 -133.5q0 -25 -5 -53h-377q26 -94 141 -94q74 0 112 50l104 -60q-74 -107 -218 -107q-120 0 -197 73.5t-77 190.5q0 114 75 189t189 75zM421 297q-7 30 -23 52.5t-42 35.5t-59 13q-53 0 -86.5 -27
t-44.5 -74h255z" />
    <glyph glyph-name="eacute" unicode="&#xe9;" horiz-adv-x="581" 
d="M446 704l-111 -137h-124l80 137h155zM297 514q72 0 130 -35t90.5 -95.5t32.5 -133.5q0 -25 -5 -53h-377q26 -94 141 -94q74 0 112 50l104 -60q-74 -107 -218 -107q-120 0 -197 73.5t-77 190.5q0 114 75 189t189 75zM421 297q-7 30 -23 52.5t-42 35.5t-59 13
q-53 0 -86.5 -27t-44.5 -74h255z" />
    <glyph glyph-name="ecircumflex" unicode="&#xea;" horiz-adv-x="581" 
d="M288 624l-44 -65h-128l106 145h131l106 -145h-128zM297 514q72 0 130 -35t90.5 -95.5t32.5 -133.5q0 -25 -5 -53h-377q26 -94 141 -94q74 0 112 50l104 -60q-74 -107 -218 -107q-120 0 -197 73.5t-77 190.5q0 114 75 189t189 75zM421 297q-7 30 -23 52.5t-42 35.5t-59 13
q-53 0 -86.5 -27t-44.5 -74h255z" />
    <glyph glyph-name="edieresis" unicode="&#xeb;" horiz-adv-x="581" 
d="M263 620q0 -28 -19.5 -47.5t-47.5 -19.5t-48 19.5t-20 47.5t20 48t48 20t47.5 -20t19.5 -48zM453 620q0 -28 -19.5 -47.5t-47.5 -19.5t-48 19.5t-20 47.5t20 48t48 20t47.5 -20t19.5 -48zM297 514q72 0 130 -35t90.5 -95.5t32.5 -133.5q0 -25 -5 -53h-377q26 -94 141 -94
q74 0 112 50l104 -60q-74 -107 -218 -107q-120 0 -197 73.5t-77 190.5q0 114 75 189t189 75zM421 297q-7 30 -23 52.5t-42 35.5t-59 13q-53 0 -86.5 -27t-44.5 -74h255z" />
    <glyph glyph-name="igrave" unicode="&#xec;" horiz-adv-x="247" 
d="M184 555l-43 145h-148l67 -145h124zM188 0h-129v500h129v-500z" />
    <glyph glyph-name="iacute" unicode="&#xed;" horiz-adv-x="247" 
d="M60 555h124l66 145h-148zM59 0v500h129v-500h-129z" />
    <glyph glyph-name="icircumflex" unicode="&#xee;" horiz-adv-x="247" 
d="M124 609l-32 -54h-128l94 145h131l93 -145h-127zM59 0v500h129v-500h-129z" />
    <glyph glyph-name="idieresis" unicode="&#xef;" horiz-adv-x="247" 
d="M106 620q0 -28 -20 -47.5t-48 -19.5t-47.5 19.5t-19.5 47.5t19.5 48t47.5 20t48 -20t20 -48zM276 620q0 -28 -20 -47.5t-48 -19.5t-47.5 19.5t-19.5 47.5t19.5 48t47.5 20t48 -20t20 -48zM59 0v500h129v-500h-129z" />
    <glyph glyph-name="eth" unicode="&#xf0;" horiz-adv-x="571" 
d="M33 230q0 98 72 165t171 60l-58 80l-127 -63v90l79 39l-72 99h149l33 -44l118 58v-90l-69 -34l164 -220q46 -63 46 -140q0 -110 -74 -176t-179 -66t-179 66t-74 176zM162 230q0 -55 34 -88t90 -33q55 0 89.5 33t34.5 88q0 54 -35.5 85.5t-88.5 31.5q-55 0 -89.5 -32
t-34.5 -85z" />
    <glyph glyph-name="ntilde" unicode="&#xf1;" horiz-adv-x="577" 
d="M232 568h-104q0 35 6.5 64t22 52t40.5 30t61 -1q26 -7 52 -24q26 -20 39 -16.5t13 40.5h105q0 -34 -6 -61.5t-19 -49.5t-36.5 -32t-55.5 -4q-32 5 -65 26q-26 20 -39.5 16.5t-13.5 -40.5zM298 394q-53 0 -81.5 -33t-28.5 -91v-270h-129v500h129v-56q47 70 149 70
q86 0 137.5 -57.5t51.5 -149.5v-307h-129v291q0 48 -26 75.5t-73 27.5z" />
    <glyph glyph-name="ograve" unicode="&#xf2;" horiz-adv-x="594" 
d="M379 571l-80 137h-155l111 -137h124zM562 250q0 -110 -77.5 -187t-187.5 -77t-187 77t-77 187t77 187t187 77t187.5 -77t77.5 -187zM162 250q0 -59 38.5 -98.5t96.5 -39.5t97 39.5t39 98.5t-39 98.5t-97 39.5t-96.5 -39.5t-38.5 -98.5z" />
    <glyph glyph-name="oacute" unicode="&#xf3;" horiz-adv-x="594" 
d="M217 571h124l111 137h-155zM562 250q0 -110 -77.5 -187t-187.5 -77t-187 77t-77 187t77 187t187 77t187.5 -77t77.5 -187zM162 250q0 -59 38.5 -98.5t96.5 -39.5t97 39.5t39 98.5t-39 98.5t-97 39.5t-96.5 -39.5t-38.5 -98.5z" />
    <glyph glyph-name="ocircumflex" unicode="&#xf4;" horiz-adv-x="594" 
d="M294 628l-44 -65h-128l106 145h131l106 -145h-128zM33 250q0 110 77 187t187 77t187.5 -77t77.5 -187t-77.5 -187t-187.5 -77t-187 77t-77 187zM162 250q0 -59 38.5 -98.5t96.5 -39.5t97 39.5t39 98.5t-39 98.5t-97 39.5t-96.5 -39.5t-38.5 -98.5z" />
    <glyph glyph-name="otilde" unicode="&#xf5;" horiz-adv-x="594" 
d="M127 568q0 35 6.5 64t22 52t40.5 30t61 -1q26 -7 52 -24q26 -20 39 -16.5t13 40.5h105q0 -34 -6 -61.5t-19 -49.5t-36.5 -32t-56.5 -4q-31 5 -64 26q-26 20 -39.5 16.5t-13.5 -40.5h-104zM562 250q0 -110 -77.5 -187t-187.5 -77t-187 77t-77 187t77 187t187 77t187.5 -77
t77.5 -187zM162 250q0 -59 38.5 -98.5t96.5 -39.5t97 39.5t39 98.5t-39 98.5t-97 39.5q-38 0 -69 -18t-48.5 -49.5t-17.5 -70.5z" />
    <glyph glyph-name="odieresis" unicode="&#xf6;" horiz-adv-x="594" 
d="M269 624q0 -28 -19.5 -47.5t-47.5 -19.5t-48 19.5t-20 47.5t20 48t48 20t47.5 -20t19.5 -48zM459 624q0 -28 -19.5 -47.5t-47.5 -19.5t-48 19.5t-20 47.5t20 48t48 20t47.5 -20t19.5 -48zM562 250q0 -110 -77.5 -187t-187.5 -77t-187 77t-77 187t77 187t187 77t187.5 -77
t77.5 -187zM162 250q0 -59 38.5 -98.5t96.5 -39.5t97 39.5t39 98.5t-39 98.5t-97 39.5t-96.5 -39.5t-38.5 -98.5z" />
    <glyph glyph-name="divide" unicode="&#xf7;" horiz-adv-x="565" 
d="M364 545q0 -34 -23.5 -58t-57.5 -24q-35 0 -58.5 23.5t-23.5 58.5q0 34 24 57.5t58 23.5q35 0 58 -23t23 -58zM45 290v121h475v-121h-475zM364 156q0 -34 -23.5 -58t-57.5 -24t-58 24t-24 58t24 57.5t58 23.5t57.5 -23.5t23.5 -57.5z" />
    <glyph glyph-name="oslash" unicode="&#xf8;" horiz-adv-x="594" 
d="M33 250q0 110 77 187t187 77q79 0 146 -43l32 38l55 -32l-39 -46q71 -76 71 -181q0 -110 -77.5 -187t-187.5 -77q-81 0 -145 42l-32 -37l-55 32l39 46q-71 74 -71 181zM297 388q-58 0 -96.5 -39.5t-38.5 -98.5q0 -47 25 -83l174 206q-29 15 -64 15zM297 112q58 0 97 39.5
t39 98.5q0 48 -25 82l-174 -205q28 -15 63 -15z" />
    <glyph glyph-name="ugrave" unicode="&#xf9;" horiz-adv-x="577" 
d="M366 563h-124l-111 137h155zM279 106q53 0 81.5 33t28.5 91v270h129v-500h-129v56q-47 -70 -149 -70q-86 0 -137.5 57.5t-51.5 149.5v307h129v-291q0 -48 26 -75.5t73 -27.5z" />
    <glyph glyph-name="uacute" unicode="&#xfa;" horiz-adv-x="577" 
d="M439 700l-111 -137h-124l80 137h155zM279 106q53 0 81.5 33t28.5 91v270h129v-500h-129v56q-47 -70 -149 -70q-86 0 -137.5 57.5t-51.5 149.5v307h129v-291q0 -48 26 -75.5t73 -27.5z" />
    <glyph glyph-name="ucircumflex" unicode="&#xfb;" horiz-adv-x="577" 
d="M281 620l-44 -65h-128l106 145h131l106 -145h-128zM279 106q53 0 81.5 33t28.5 91v270h129v-500h-129v56q-47 -70 -149 -70q-86 0 -137.5 57.5t-51.5 149.5v307h129v-291q0 -48 26 -75.5t73 -27.5z" />
    <glyph glyph-name="udieresis" unicode="&#xfc;" horiz-adv-x="577" 
d="M256 616q0 -28 -19.5 -47.5t-47.5 -19.5t-48 19.5t-20 47.5t20 48t48 20t47.5 -20t19.5 -48zM446 616q0 -28 -19.5 -47.5t-47.5 -19.5t-48 19.5t-20 47.5t20 48t48 20t47.5 -20t19.5 -48zM279 106q53 0 81.5 33t28.5 91v270h129v-500h-129v56q-47 -70 -149 -70
q-86 0 -137.5 57.5t-51.5 149.5v307h129v-291q0 -48 26 -75.5t73 -27.5z" />
    <glyph glyph-name="yacute" unicode="&#xfd;" horiz-adv-x="525" 
d="M418 700l-111 -137h-124l80 137h155zM385 500h138l-182 -500q-17 -48 -38.5 -83.5t-52.5 -64t-74.5 -42t-98.5 -10.5v120q55 -1 84.5 23t46.5 73l-205 484h141l130 -336z" />
    <glyph glyph-name="thorn" unicode="&#xfe;" 
d="M594 250q0 -108 -70.5 -186t-173.5 -78q-105 0 -162 73v-259h-129v900h129v-259q57 73 162 73q103 0 173.5 -78t70.5 -186zM188 250q0 -61 39 -101t99 -40t99.5 40t39.5 101t-39.5 101t-99.5 40t-99 -40t-39 -101z" />
    <glyph glyph-name="ydieresis" unicode="&#xff;" horiz-adv-x="525" 
d="M235 616q0 -28 -19.5 -47.5t-47.5 -19.5t-48 19.5t-20 47.5t20 48t48 20t47.5 -20t19.5 -48zM425 616q0 -28 -19.5 -47.5t-47.5 -19.5t-48 19.5t-20 47.5t20 48t48 20t47.5 -20t19.5 -48zM385 500h138l-182 -500q-17 -48 -38.5 -83.5t-52.5 -64t-74.5 -42t-98.5 -10.5
v120q55 -1 84.5 23t46.5 73l-205 484h141l130 -336z" />
    <glyph glyph-name="Amacron" unicode="&#x100;" horiz-adv-x="668" 
d="M479 869v-105h-290v105h290zM515 0l-42 126h-279l-42 -126h-149l245 700h171l246 -700h-150zM238 255h192l-96 286z" />
    <glyph glyph-name="amacron" unicode="&#x101;" 
d="M454 669v-105h-290v105h290zM33 250q0 107 70.5 185.5t172.5 78.5q105 0 163 -73v59h129v-500h-129v59q-58 -73 -163 -73q-102 0 -172.5 78.5t-70.5 185.5zM162 250q0 -61 39 -101t99 -40t99.5 40t39.5 101t-39.5 101t-99.5 40t-99 -40t-39 -101z" />
    <glyph glyph-name="Abreve" unicode="&#x102;" horiz-adv-x="668" 
d="M501 892q0 -71 -45 -108t-122 -37t-121.5 37t-44.5 108h115q0 -52 51 -52q52 0 52 52h115zM515 0l-42 126h-279l-42 -126h-149l245 700h171l246 -700h-150zM238 255h192l-96 286z" />
    <glyph glyph-name="abreve" unicode="&#x103;" 
d="M476 692q0 -71 -45 -108t-122 -37t-121.5 37t-44.5 108h115q0 -52 51 -52q52 0 52 52h115zM33 250q0 107 70.5 185.5t172.5 78.5q105 0 163 -73v59h129v-500h-129v59q-58 -73 -163 -73q-102 0 -172.5 78.5t-70.5 185.5zM162 250q0 -61 39 -101t99 -40t99.5 40t39.5 101
t-39.5 101t-99.5 40t-99 -40t-39 -101z" />
    <glyph glyph-name="Aogonek" unicode="&#x104;" horiz-adv-x="668" 
d="M584 -214q-43 0 -69 23t-26 65q0 57 66 126h-40l-42 126h-279l-42 -126h-149l245 700h171l246 -700q-53 -56 -53 -95q0 -27 25 -27q12 -1 28 5v-81q-38 -16 -81 -16zM238 255h192l-96 286z" />
    <glyph glyph-name="aogonek" unicode="&#x105;" 
d="M33 250q0 107 70.5 185.5t172.5 78.5q105 0 163 -73v59h129v-500q-53 -55 -53 -95q-2 -27 25 -27q11 -1 28 5v-81q-40 -16 -81 -16q-44 0 -70 23t-26 65q0 56 64 126h-16v59q-58 -73 -163 -73q-102 0 -172.5 78.5t-70.5 185.5zM162 250q0 -61 39 -101t99 -40t99.5 40
t39.5 101q0 40 -18 72.5t-49.5 50.5t-71.5 18q-60 0 -99 -40t-39 -101z" />
    <glyph glyph-name="Cacute" unicode="&#x106;" horiz-adv-x="726" 
d="M317 771h124l111 137h-155zM698 151q-43 -73 -122 -119t-179 -46q-158 0 -261 105t-103 259q0 155 103 259.5t261 104.5q99 0 178.5 -46.5t122.5 -118.5l-119 -69q-16 29 -42 51.5t-62 35.5t-78 13q-101 0 -164 -64t-63 -166q0 -101 63 -165t164 -64q62 0 110 27.5
t72 71.5z" />
    <glyph glyph-name="cacute" unicode="&#x107;" horiz-adv-x="536" 
d="M216 563h124l111 137h-155zM523 116q-32 -57 -91 -93.5t-135 -36.5q-112 0 -188 76t-76 188t76 188t188 76q75 0 134.5 -36.5t89.5 -92.5l-111 -65q-14 30 -44.5 48.5t-69.5 18.5q-58 0 -96 -39t-38 -98q0 -58 38 -97t96 -39q40 0 70.5 18t44.5 48z" />
    <glyph glyph-name="Cdotaccent" unicode="&#x10a;" horiz-adv-x="726" 
d="M474 837q0 -31 -23 -54.5t-54 -23.5q-32 0 -55 23t-23 55t23 54.5t55 22.5q31 0 54 -23t23 -54zM698 151q-43 -73 -122 -119t-179 -46q-158 0 -261 105t-103 259q0 155 103 259.5t261 104.5q99 0 178.5 -46.5t122.5 -118.5l-119 -69q-16 29 -42 51.5t-62 35.5t-78 13
q-101 0 -164 -64t-63 -166q0 -101 63 -165t164 -64q62 0 110 27.5t72 71.5z" />
    <glyph glyph-name="cdotaccent" unicode="&#x10b;" horiz-adv-x="536" 
d="M373 629q0 -31 -23 -54.5t-54 -23.5q-32 0 -55 23t-23 55t23 54.5t55 22.5q31 0 54 -23t23 -54zM523 116q-32 -57 -91 -93.5t-135 -36.5q-112 0 -188 76t-76 188t76 188t188 76q75 0 134.5 -36.5t89.5 -92.5l-111 -65q-14 30 -44.5 48.5t-69.5 18.5q-58 0 -96 -39
t-38 -98q0 -58 38 -97t96 -39q40 0 70.5 18t44.5 48z" />
    <glyph glyph-name="Ccaron" unicode="&#x10c;" horiz-adv-x="726" 
d="M328 763l-106 145h128l44 -65l43 65h128l-106 -145h-131zM698 151q-43 -73 -122 -119t-179 -46q-158 0 -261 105t-103 259q0 155 103 259.5t261 104.5q99 0 178.5 -46.5t122.5 -118.5l-119 -69q-16 29 -42 51.5t-62 35.5t-78 13q-101 0 -164 -64t-63 -166q0 -101 63 -165
t164 -64q62 0 110 27.5t72 71.5z" />
    <glyph glyph-name="ccaron" unicode="&#x10d;" horiz-adv-x="536" 
d="M227 555l-106 145h128l44 -65l43 65h128l-106 -145h-131zM523 116q-32 -57 -91 -93.5t-135 -36.5q-112 0 -188 76t-76 188t76 188t188 76q75 0 134.5 -36.5t89.5 -92.5l-111 -65q-14 30 -44.5 48.5t-69.5 18.5q-58 0 -96 -39t-38 -98q0 -58 38 -97t96 -39q40 0 70.5 18
t44.5 48z" />
    <glyph glyph-name="Dcaron" unicode="&#x10e;" horiz-adv-x="713" 
d="M266 755l-106 145h128l44 -65l43 65h128l-106 -145h-131zM680 350q0 -146 -96.5 -248t-240.5 -102h-278v700h278q144 0 240.5 -102t96.5 -248zM548 350q0 95 -56.5 156.5t-148.5 61.5h-140v-436h140q92 0 148.5 61.5t56.5 156.5z" />
    <glyph glyph-name="dcaron" unicode="&#x10f;" horiz-adv-x="735" 
d="M32 250q0 108 70.5 186t173.5 78q105 0 162 -73v259h129v-700h-129v59q-57 -73 -162 -73q-103 0 -173.5 78t-70.5 186zM624 700h121l-30 -200h-101zM161 250q0 -61 39.5 -101t99.5 -40t99 40t39 101t-39 101t-99 40t-99.5 -40t-39.5 -101z" />
    <glyph glyph-name="Dcroat" unicode="&#x110;" horiz-adv-x="748" 
d="M715 350q0 -146 -96.5 -248t-240.5 -102h-278v281h-78v124h78v295h278q144 0 240.5 -102t96.5 -248zM583 350q0 95 -56.5 156.5t-148.5 61.5h-140v-163h159v-124h-159v-149h140q92 0 148.5 61.5t56.5 156.5z" />
    <glyph glyph-name="dcroat" unicode="&#x111;" horiz-adv-x="633" 
d="M33 250q0 107 70.5 185.5t172.5 78.5q105 0 163 -73v113h-151v84h151v62h129v-62h62v-84h-62v-554h-129v59q-58 -73 -163 -73q-102 0 -172.5 78.5t-70.5 185.5zM162 250q0 -61 39 -101t99 -40t99.5 40t39.5 101t-39.5 101t-99.5 40t-99 -40t-39 -101z" />
    <glyph glyph-name="Emacron" unicode="&#x112;" horiz-adv-x="530" 
d="M424 869v-105h-290v105h290zM203 132h295v-132h-433v700h428v-132h-290v-149h265v-130h-265v-157z" />
    <glyph glyph-name="emacron" unicode="&#x113;" horiz-adv-x="581" 
d="M436 673v-105h-290v105h290zM297 514q72 0 130 -35t90.5 -95.5t32.5 -133.5q0 -25 -5 -53h-377q26 -94 141 -94q74 0 112 50l104 -60q-74 -107 -218 -107q-120 0 -197 73.5t-77 190.5q0 114 75 189t189 75zM421 297q-7 30 -23 52.5t-42 35.5t-59 13q-53 0 -86.5 -27
t-44.5 -74h255z" />
    <glyph glyph-name="Edotaccent" unicode="&#x116;" horiz-adv-x="530" 
d="M356 829q0 -31 -23 -54.5t-54 -23.5q-32 0 -55 23t-23 55t23 54.5t55 22.5q31 0 54 -23t23 -54zM203 132h295v-132h-433v700h428v-132h-290v-149h265v-130h-265v-157z" />
    <glyph glyph-name="edotaccent" unicode="&#x117;" horiz-adv-x="581" 
d="M368 633q0 -31 -23 -54.5t-54 -23.5q-32 0 -55 23t-23 55t23 54.5t55 22.5q31 0 54 -23t23 -54zM297 514q72 0 130 -35t90.5 -95.5t32.5 -133.5q0 -25 -5 -53h-377q26 -94 141 -94q74 0 112 50l104 -60q-74 -107 -218 -107q-120 0 -197 73.5t-77 190.5q0 114 75 189
t189 75zM421 297q-7 30 -23 52.5t-42 35.5t-59 13q-53 0 -86.5 -27t-44.5 -74h255z" />
    <glyph glyph-name="Eogonek" unicode="&#x118;" horiz-adv-x="530" 
d="M417 -214q-29 0 -50.5 10t-33.5 30t-12 48q0 57 66 126h-322v700h428v-132h-290v-149h265v-130h-265v-157h295v-132h-1q-52 -55 -52 -95q-2 -27 25 -27q11 -1 27 5v-81q-38 -16 -80 -16z" />
    <glyph glyph-name="eogonek" unicode="&#x119;" horiz-adv-x="581" 
d="M297 514q72 0 130 -35t90.5 -95.5t32.5 -133.5q0 -25 -5 -53h-377q26 -94 141 -94q74 0 112 50l104 -60q-13 -19 -37 -43q-84 -90 -84 -145q0 -27 25 -27q12 -1 28 5v-81q-40 -16 -81 -16q-44 0 -69.5 23t-25.5 65q0 59 65 114q-26 -2 -39 -2q-120 0 -197 73.5t-77 190.5
q0 114 75 189t189 75zM421 297q-7 30 -23 52.5t-42 35.5t-59 13q-53 0 -86.5 -27t-44.5 -74h255z" />
    <glyph glyph-name="Ecaron" unicode="&#x11a;" horiz-adv-x="530" 
d="M210 755l-106 145h128l44 -65l43 65h128l-106 -145h-131zM203 132h295v-132h-433v700h428v-132h-290v-149h265v-130h-265v-157z" />
    <glyph glyph-name="ecaron" unicode="&#x11b;" horiz-adv-x="581" 
d="M222 559l-106 145h128l44 -65l43 65h128l-106 -145h-131zM297 514q72 0 130 -35t90.5 -95.5t32.5 -133.5q0 -25 -5 -53h-377q26 -94 141 -94q74 0 112 50l104 -60q-74 -107 -218 -107q-120 0 -197 73.5t-77 190.5q0 114 75 189t189 75zM421 297q-7 30 -23 52.5t-42 35.5
t-59 13q-53 0 -86.5 -27t-44.5 -74h255z" />
    <glyph glyph-name="Gbreve" unicode="&#x11e;" horiz-adv-x="785" 
d="M564 900q0 -71 -45 -108t-122 -37t-121.5 37t-44.5 108h115q0 -52 51 -52q52 0 52 52h115zM170 349q0 -101 67 -164.5t172 -63.5q79 0 132 35.5t72 97.5h-212v122h351v-54q0 -149 -96.5 -242.5t-247.5 -93.5q-162 0 -268.5 105.5t-106.5 257.5q0 153 105.5 259t261.5 106
q100 0 181 -45.5t124 -117.5l-118 -68q-25 42 -75.5 69.5t-112.5 27.5q-99 0 -164 -65.5t-65 -165.5z" />
    <glyph glyph-name="gbreve" unicode="&#x11f;" 
d="M464 700q0 -71 -45 -108t-122 -37t-121.5 37t-44.5 108h115q0 -52 51 -52q52 0 52 52h115zM33 258q0 105 72.5 180.5t176.5 75.5q103 0 160 -76v62h126v-476q0 -116 -76.5 -177t-184.5 -61q-84 0 -144.5 32t-92.5 90l110 63q38 -70 131 -70q61 0 96 32t35 91v54
q-57 -76 -160 -76q-105 0 -177 75t-72 181zM302 121q61 0 100.5 38.5t39.5 98.5q0 59 -40 97.5t-100 38.5t-100 -38.5t-40 -97.5q0 -60 39.5 -98.5t100.5 -38.5z" />
    <glyph glyph-name="Gdotaccent" unicode="&#x120;" horiz-adv-x="785" 
d="M474 837q0 -31 -23 -54.5t-54 -23.5q-32 0 -55 23t-23 55t23 54.5t55 22.5q31 0 54 -23t23 -54zM170 349q0 -101 67 -164.5t172 -63.5q79 0 132 35.5t72 97.5h-212v122h351v-54q0 -149 -96.5 -242.5t-247.5 -93.5q-162 0 -268.5 105.5t-106.5 257.5q0 153 105.5 259
t261.5 106q100 0 181 -45.5t124 -117.5l-118 -68q-25 42 -75.5 69.5t-112.5 27.5q-99 0 -164 -65.5t-65 -165.5z" />
    <glyph glyph-name="gdotaccent" unicode="&#x121;" 
d="M374 637q0 -31 -23 -54.5t-54 -23.5q-32 0 -55 23t-23 55t23 54.5t55 22.5q31 0 54 -23t23 -54zM33 258q0 105 72.5 180.5t176.5 75.5q103 0 160 -76v62h126v-476q0 -116 -76.5 -177t-184.5 -61q-84 0 -144.5 32t-92.5 90l110 63q38 -70 131 -70q61 0 96 32t35 91v54
q-57 -76 -160 -76q-105 0 -177 75t-72 181zM302 121q61 0 100.5 38.5t39.5 98.5q0 59 -40 97.5t-100 38.5t-100 -38.5t-40 -97.5q0 -60 39.5 -98.5t100.5 -38.5z" />
    <glyph glyph-name="Gcommaaccent" unicode="&#x122;" horiz-adv-x="785" 
d="M170 349q0 -101 67 -164.5t172 -63.5q79 0 132 35.5t72 97.5h-212v122h351v-54q0 -149 -96.5 -242.5t-247.5 -93.5q-162 0 -268.5 105.5t-106.5 257.5q0 153 105.5 259t261.5 106q100 0 181 -45.5t124 -117.5l-118 -68q-25 42 -75.5 69.5t-112.5 27.5q-99 0 -164 -65.5
t-65 -165.5zM341 -263l10 200h122l-30 -200h-102z" />
    <glyph glyph-name="gcommaaccent" unicode="&#x123;" 
d="M361 783l-10 -200h-122l30 200h102zM33 258q0 105 72.5 180.5t176.5 75.5q103 0 160 -76v62h126v-476q0 -116 -76.5 -177t-184.5 -61q-84 0 -144.5 32t-92.5 90l110 63q38 -70 131 -70q61 0 96 32t35 91v54q-57 -76 -160 -76q-105 0 -177 75t-72 181zM302 121
q61 0 100.5 38.5t39.5 98.5q0 59 -40 97.5t-100 38.5t-100 -38.5t-40 -97.5q0 -60 39.5 -98.5t100.5 -38.5z" />
    <glyph glyph-name="Hbar" unicode="&#x126;" horiz-adv-x="708" 
d="M683 602v-101h-62v-501h-137v272h-260v-272h-138v501h-61v101h61v98h138v-98h260v98h137v-98h62zM484 404v97h-260v-97h260z" />
    <glyph glyph-name="hbar" unicode="&#x127;" horiz-adv-x="583" 
d="M304 394q-53 0 -81.5 -33t-28.5 -91v-270h-129v554h-62v84h62v62h129v-62h141v-84h-141v-111q46 71 149 71q87 0 138.5 -57.5t51.5 -149.5v-307h-129v291q0 48 -26.5 75.5t-73.5 27.5z" />
    <glyph glyph-name="Imacron" unicode="&#x12a;" horiz-adv-x="268" 
d="M-11 764v105h290v-105h-290zM65 700h138v-700h-138v700z" />
    <glyph glyph-name="imacron" unicode="&#x12b;" horiz-adv-x="247" 
d="M8 564v112h230v-112h-230zM59 0v500h129v-500h-129z" />
    <glyph glyph-name="Iogonek" unicode="&#x12e;" horiz-adv-x="268" 
d="M141 -214q-44 0 -70 23t-26 65q0 56 46 126h-26v700h138v-700q-34 -56 -34 -95q-2 -27 25 -27q11 -1 28 5v-81q-40 -16 -81 -16z" />
    <glyph glyph-name="iogonek" unicode="&#x12f;" horiz-adv-x="247" 
d="M203 639q0 -32 -24 -55.5t-56 -23.5t-55.5 23.5t-23.5 55.5t23.5 56t55.5 24t56 -24t24 -56zM126 -214q-43 0 -69.5 24t-26.5 66q0 53 43 124h-14v500h129v-500q-34 -55 -34 -92q-2 -30 25 -30q11 -1 27 5v-81q-38 -16 -80 -16z" />
    <glyph glyph-name="Idotaccent" unicode="&#x130;" horiz-adv-x="268" 
d="M211 829q0 -31 -23 -54.5t-54 -23.5q-32 0 -55 23t-23 55t23 54.5t55 22.5q31 0 54 -23t23 -54zM65 700h138v-700h-138v700z" />
    <glyph glyph-name="dotlessi" unicode="&#x131;" horiz-adv-x="247" 
d="M59 0v500h129v-500h-129z" />
    <glyph glyph-name="Kcommaaccent" unicode="&#x136;" horiz-adv-x="615" 
d="M203 0h-138v700h138v-309l240 309h159l-259 -340l269 -360h-159l-250 328v-328zM242 -263l10 200h122l-30 -200h-102z" />
    <glyph glyph-name="kcommaaccent" unicode="&#x137;" horiz-adv-x="525" 
d="M188 0h-129v700h129v-420l172 220h154l-201 -247l207 -253h-150l-182 227v-227zM215 -263l10 200h122l-30 -200h-102z" />
    <glyph glyph-name="Lacute" unicode="&#x139;" horiz-adv-x="483" 
d="M302 900l-111 -137h-124l80 137h155zM203 132h267v-132h-405v700h138v-568z" />
    <glyph glyph-name="lacute" unicode="&#x13a;" horiz-adv-x="247" 
d="M57 763h124l111 137h-155zM59 0v730h129v-730h-129z" />
    <glyph glyph-name="Lcommaaccent" unicode="&#x13b;" horiz-adv-x="483" 
d="M203 132h267v-132h-405v700h138v-568zM209 -263l10 200h122l-30 -200h-102z" />
    <glyph glyph-name="lcommaaccent" unicode="&#x13c;" horiz-adv-x="247" 
d="M59 0v730h129v-730h-129zM157 -263l30 200h-122l-10 -200h102z" />
    <glyph glyph-name="Lcaron" unicode="&#x13d;" horiz-adv-x="483" 
d="M203 132h267v-132h-405v700h138v-568zM406 700l-30 -185h-109l10 185h129z" />
    <glyph glyph-name="lcaron" unicode="&#x13e;" horiz-adv-x="354" 
d="M59 0v730h129v-730h-129zM334 530l30 200h-122l-10 -200h102z" />
    <glyph glyph-name="Lslash" unicode="&#x141;" horiz-adv-x="503" 
d="M223 132h267v-132h-405v211l-60 -36v138l60 36v351h138v-269l132 78v-138l-132 -78v-161z" />
    <glyph glyph-name="lslash" unicode="&#x142;" horiz-adv-x="263" 
d="M196 0h-129v242l-54 -37v123l54 37v365h129v-277l54 37v-123l-54 -37v-330z" />
    <glyph glyph-name="Nacute" unicode="&#x143;" horiz-adv-x="673" 
d="M249 763h124l111 137h-155zM470 700h138v-700h-105l-300 428v-428h-138v700h105l300 -427v427z" />
    <glyph glyph-name="nacute" unicode="&#x144;" horiz-adv-x="577" 
d="M453 708l-111 -137h-124l80 137h155zM298 394q-53 0 -81.5 -33t-28.5 -91v-270h-129v500h129v-56q47 70 149 70q86 0 137.5 -57.5t51.5 -149.5v-307h-129v291q0 48 -26 75.5t-73 27.5z" />
    <glyph glyph-name="Ncommaaccent" unicode="&#x145;" horiz-adv-x="673" 
d="M470 700h138v-700h-105l-300 428v-428h-138v700h105l300 -427v427zM373 -263l30 200h-122l-10 -200h102z" />
    <glyph glyph-name="ncommaaccent" unicode="&#x146;" horiz-adv-x="577" 
d="M298 394q-53 0 -81.5 -33t-28.5 -91v-270h-129v500h129v-56q47 70 149 70q86 0 137.5 -57.5t51.5 -149.5v-307h-129v291q0 48 -26 75.5t-73 27.5zM228 -263l10 200h122l-30 -200h-102z" />
    <glyph glyph-name="Ncaron" unicode="&#x147;" horiz-adv-x="673" 
d="M260 755l-106 145h128l44 -65l43 65h128l-106 -145h-131zM470 700h138v-700h-105l-300 428v-428h-138v700h105l300 -427v427z" />
    <glyph glyph-name="ncaron" unicode="&#x148;" horiz-adv-x="577" 
d="M229 563l-106 145h128l44 -65l43 65h128l-106 -145h-131zM298 394q-53 0 -81.5 -33t-28.5 -91v-270h-129v500h129v-56q47 70 149 70q86 0 137.5 -57.5t51.5 -149.5v-307h-129v291q0 48 -26 75.5t-73 27.5z" />
    <glyph glyph-name="Eng" unicode="&#x14a;" horiz-adv-x="673" 
d="M375 -74q50 0 72.5 18t22.5 64v39l-267 381v-428h-138v700h105l300 -427v427h138v-700q0 -103 -61.5 -154.5t-171.5 -45.5v126z" />
    <glyph glyph-name="eng" unicode="&#x14b;" horiz-adv-x="577" 
d="M298 394q-53 0 -81.5 -33t-28.5 -91v-270h-129v500h129v-56q47 70 149 70q86 0 137.5 -57.5t51.5 -149.5v-317q0 -105 -53 -158t-157 -46v124q43 -4 62 15.5t19 64.5v301q0 48 -26 75.5t-73 27.5z" />
    <glyph glyph-name="Omacron" unicode="&#x14c;" horiz-adv-x="792" 
d="M251 772v105h290v-105h-290zM396 714q152 0 258 -105.5t106 -258.5t-106 -258.5t-258 -105.5t-257.5 105.5t-105.5 258.5t105.5 258.5t257.5 105.5zM170 350q0 -98 64.5 -163.5t161.5 -65.5t161.5 65.5t64.5 163.5t-64.5 164t-161.5 66t-161.5 -66t-64.5 -164z" />
    <glyph glyph-name="omacron" unicode="&#x14d;" horiz-adv-x="594" 
d="M152 572v105h290v-105h-290zM562 250q0 -110 -77.5 -187t-187.5 -77t-187 77t-77 187t77 187t187 77t187.5 -77t77.5 -187zM162 250q0 -59 38.5 -98.5t96.5 -39.5t97 39.5t39 98.5t-39 98.5t-97 39.5t-96.5 -39.5t-38.5 -98.5z" />
    <glyph glyph-name="Ohungarumlaut" unicode="&#x150;" horiz-adv-x="792" 
d="M221 763h128l84 138h-134zM394 763h128l94 138h-134zM396 714q152 0 258 -105.5t106 -258.5t-106 -258.5t-258 -105.5t-257.5 105.5t-105.5 258.5t105.5 258.5t257.5 105.5zM170 350q0 -98 64.5 -163.5t161.5 -65.5t161.5 65.5t64.5 163.5t-64.5 164t-161.5 66
t-161.5 -66t-64.5 -164z" />
    <glyph glyph-name="ohungarumlaut" unicode="&#x151;" horiz-adv-x="594" 
d="M122 563h128l84 138h-134zM295 563h128l94 138h-134zM562 250q0 -110 -77.5 -187t-187.5 -77t-187 77t-77 187t77 187t187 77t187.5 -77t77.5 -187zM162 250q0 -59 38.5 -98.5t96.5 -39.5t97 39.5t39 98.5t-39 98.5t-97 39.5t-96.5 -39.5t-38.5 -98.5z" />
    <glyph glyph-name="OE" unicode="&#x152;" horiz-adv-x="916" 
d="M623 132h260v-132h-397q-48 -14 -100 -14q-151 0 -252 105t-101 259t101 259t252 105q52 0 100 -14h392v-132h-255v-149h233v-130h-233v-157zM170 350q0 -99 60 -164t156 -65q59 0 100 15v429q-45 15 -100 15q-96 0 -156 -65.5t-60 -164.5z" />
    <glyph glyph-name="oe" unicode="&#x153;" horiz-adv-x="981" 
d="M568 197q13 -44 48.5 -69t88.5 -25q78 0 116 50l104 -60q-74 -107 -218 -107t-210 112q-69 -112 -204 -112q-110 0 -185 76.5t-75 187.5t75 187.5t185 76.5q69 0 121 -30.5t82 -80.5q65 111 207 111q108 0 177.5 -76t69.5 -188q0 -25 -5 -53h-377zM821 298q-10 46 -42 73
t-81 27q-52 0 -86 -27t-46 -73h255zM162 250q0 -60 38 -99t97 -39q58 0 97 39.5t39 98.5t-39 98.5t-97 39.5q-39 0 -70 -18t-48 -49t-17 -71z" />
    <glyph glyph-name="Racute" unicode="&#x154;" horiz-adv-x="614" 
d="M450 900l-111 -137h-124l80 137h155zM578 468q0 -69 -39 -123.5t-96 -80.5l155 -264h-149l-141 243h-105v-243h-138v700h280q96 0 164.5 -68t68.5 -164zM440 468q0 42 -27.5 72.5t-67.5 30.5h-142v-207h142q40 0 67.5 31t27.5 73z" />
    <glyph glyph-name="racute" unicode="&#x155;" horiz-adv-x="356" 
d="M348 700l-111 -137h-124l80 137h155zM340 510v-144q-59 7 -105.5 -24t-46.5 -103v-239h-129v500h129v-86q17 44 56.5 70t95.5 26z" />
    <glyph glyph-name="Rcommaaccent" unicode="&#x156;" horiz-adv-x="614" 
d="M578 468q0 -69 -39 -123.5t-96 -80.5l155 -264h-149l-141 243h-105v-243h-138v700h280q96 0 164.5 -68t68.5 -164zM440 468q0 42 -27.5 72.5t-67.5 30.5h-142v-207h142q40 0 67.5 31t27.5 73zM258 -263l10 200h122l-30 -200h-102z" />
    <glyph glyph-name="rcommaaccent" unicode="&#x157;" horiz-adv-x="356" 
d="M340 510v-144q-59 7 -105.5 -24t-46.5 -103v-239h-129v500h129v-86q17 44 56.5 70t95.5 26zM55 -263l10 200h122l-30 -200h-102z" />
    <glyph glyph-name="Rcaron" unicode="&#x158;" horiz-adv-x="614" 
d="M226 755l-106 145h128l44 -65l43 65h128l-106 -145h-131zM578 468q0 -69 -39 -123.5t-96 -80.5l155 -264h-149l-141 243h-105v-243h-138v700h280q96 0 164.5 -68t68.5 -164zM440 468q0 42 -27.5 72.5t-67.5 30.5h-142v-207h142q40 0 67.5 31t27.5 73z" />
    <glyph glyph-name="rcaron" unicode="&#x159;" horiz-adv-x="356" 
d="M124 555l-106 145h128l44 -65l43 65h128l-106 -145h-131zM340 510v-144q-59 7 -105.5 -24t-46.5 -103v-239h-129v500h129v-86q17 44 56.5 70t95.5 26z" />
    <glyph glyph-name="Sacute" unicode="&#x15a;" horiz-adv-x="583" 
d="M213 771h124l111 137h-155zM558 197q0 -99 -72 -155t-182 -56q-103 0 -174.5 46.5t-100.5 126.5l118 69q41 -107 161 -107q50 0 81 18t31 56q0 37 -33 57.5t-118 44.5q-34 10 -55.5 18t-44 19.5t-45.5 27.5q-66 49 -66 144q0 92 66.5 150t163.5 58q89 0 152 -43t98 -114
l-116 -67q-42 90 -134 90q-40 0 -66 -18t-26 -52q0 -33 27.5 -53.5t105.5 -44.5q6 -2 18 -5.5t18.5 -5.5t17.5 -6t18.5 -6.5t17 -6t17 -7t15.5 -8t15 -9.5q48 -31 66 -62q26 -44 26 -99z" />
    <glyph glyph-name="sacute" unicode="&#x15b;" horiz-adv-x="465" 
d="M386 708l-111 -137h-124l80 137h155zM236 399q-15 0 -28 -4.5t-21.5 -14t-8.5 -22.5q0 -12 8 -21t26.5 -16t27 -9.5t29.5 -7.5q37 -10 62.5 -20t51.5 -27.5t39.5 -45t13.5 -65.5q0 -77 -57.5 -118.5t-143.5 -41.5q-154 0 -210 119l112 63q22 -65 98 -65q69 0 69 43
q0 12 -8 21t-27 16.5t-26.5 9.5t-29.5 8q-36 10 -61 19.5t-51.5 26.5t-40.5 44.5t-14 63.5q0 74 54.5 116.5t135.5 42.5q65 0 114 -29t76 -77l-110 -60q-24 51 -80 51z" />
    <glyph glyph-name="Scedilla" unicode="&#x15e;" horiz-adv-x="583" 
d="M288 580q-40 0 -66 -18t-26 -52q0 -33 27.5 -53.5t105.5 -44.5q4 -1 23.5 -7l26 -8t22.5 -7.5t24 -9.5l20 -10t21 -12q48 -31 66 -62q26 -44 26 -99q0 -88 -55.5 -141t-144.5 -66v-36q30 -7 50 -27t20 -51q0 -105 -220 -92v91q108 -7 108 20q0 20 -63 25v69
q-83 11 -141 55.5t-83 114.5l118 69q41 -107 161 -107q50 0 81 18t31 56q0 37 -33 57.5t-118 44.5q-34 10 -55.5 18t-44 19.5t-45.5 27.5q-66 49 -66 144q0 92 66.5 150t163.5 58q89 0 152 -43t98 -114l-116 -67q-42 90 -134 90z" />
    <glyph glyph-name="scedilla" unicode="&#x15f;" horiz-adv-x="465" 
d="M236 399q-24 0 -41 -10.5t-17 -30.5q0 -12 8 -21t26.5 -16t27 -9.5t29.5 -7.5q37 -10 62.5 -20t51.5 -27.5t39.5 -45t13.5 -65.5q0 -63 -38.5 -102t-100.5 -52v-38q30 -7 50 -27t20 -51q0 -105 -220 -92v91q108 -7 108 20q0 20 -63 25v69q-120 15 -167 116l112 63
q22 -65 98 -65q69 0 69 43q0 12 -8 21t-27 16.5t-26.5 9.5t-29.5 8q-36 10 -61 19.5t-51.5 26.5t-40.5 44.5t-14 63.5q0 74 54.5 116.5t135.5 42.5q65 0 114 -29t76 -77l-110 -60q-24 51 -80 51z" />
    <glyph glyph-name="Scaron" unicode="&#x160;" horiz-adv-x="583" 
d="M224 763l-106 145h128l44 -65l43 65h128l-106 -145h-131zM288 580q-40 0 -66 -18t-26 -52q0 -33 27.5 -53.5t105.5 -44.5q4 -1 23.5 -7l26 -8t22.5 -7.5t24 -9.5l20 -10t21 -12q48 -31 66 -62q26 -44 26 -99q0 -99 -72 -155t-182 -56q-103 0 -174.5 46.5t-100.5 126.5
l118 69q41 -107 161 -107q50 0 81 18t31 56q0 37 -33 57.5t-118 44.5q-34 10 -55.5 18t-44 19.5t-45.5 27.5q-66 49 -66 144q0 92 66.5 150t163.5 58q89 0 152 -43t98 -114l-116 -67q-42 90 -134 90z" />
    <glyph glyph-name="scaron" unicode="&#x161;" horiz-adv-x="465" 
d="M162 563l-106 145h128l44 -65l43 65h128l-106 -145h-131zM236 399q-15 0 -28 -4.5t-21.5 -14t-8.5 -22.5q0 -12 8 -21t26.5 -16t27 -9.5t29.5 -7.5q37 -10 62.5 -20t51.5 -27.5t39.5 -45t13.5 -65.5q0 -77 -57.5 -118.5t-143.5 -41.5q-154 0 -210 119l112 63
q22 -65 98 -65q69 0 69 43q0 12 -8 21t-27 16.5t-26.5 9.5t-29.5 8q-36 10 -61 19.5t-51.5 26.5t-40.5 44.5t-14 63.5q0 74 54.5 116.5t135.5 42.5q65 0 114 -29t76 -77l-110 -60q-24 51 -80 51z" />
    <glyph glyph-name="uni0162" unicode="&#x162;" horiz-adv-x="540" 
d="M528 700v-132h-189v-568h-138v568h-188v132h515zM205 -263l10 200h122l-30 -200h-102z" />
    <glyph glyph-name="uni0163" unicode="&#x163;" horiz-adv-x="385" 
d="M232 168q0 -27 16 -39.5t41 -12.5t56 1v-117q-127 -14 -184.5 22.5t-57.5 145.5v208h-87v124h87v101l129 39v-140h113v-124h-113v-208zM162 -263l10 200h122l-30 -200h-102z" />
    <glyph glyph-name="Tcaron" unicode="&#x164;" horiz-adv-x="540" 
d="M201 755l-106 145h128l44 -65l43 65h128l-106 -145h-131zM528 700v-132h-189v-568h-138v568h-188v132h515z" />
    <glyph glyph-name="tcaron" unicode="&#x165;" horiz-adv-x="406" 
d="M286 726h122l-30 -182h-102zM232 168q0 -27 16 -39.5t41 -12.5t56 1v-117q-127 -14 -184.5 22.5t-57.5 145.5v208h-87v124h87v101l129 39v-140h113v-124h-113v-208z" />
    <glyph glyph-name="Tbar" unicode="&#x166;" horiz-adv-x="540" 
d="M528 568h-189v-163h119v-124h-119v-281h-138v281h-118v124h118v163h-188v132h515v-132z" />
    <glyph glyph-name="tbar" unicode="&#x167;" horiz-adv-x="385" 
d="M232 168q0 -27 16 -39.5t41 -12.5t56 1v-117q-127 -14 -184.5 22.5t-57.5 145.5v31h-58v104h58v73h-87v124h87v101l129 39v-140h113v-124h-113v-73h80v-104h-80v-31z" />
    <glyph glyph-name="Umacron" unicode="&#x16a;" horiz-adv-x="653" 
d="M181 764v105h290v-105h-290zM594 229q0 -111 -75.5 -177t-192.5 -66q-116 0 -191.5 66t-75.5 177v471h137v-460q0 -59 33.5 -89t96.5 -30t96.5 30t33.5 89v460h138v-471z" />
    <glyph glyph-name="umacron" unicode="&#x16b;" horiz-adv-x="577" 
d="M429 669v-105h-290v105h290zM279 106q53 0 81.5 33t28.5 91v270h129v-500h-129v56q-47 -70 -149 -70q-86 0 -137.5 57.5t-51.5 149.5v307h129v-291q0 -48 26 -75.5t73 -27.5z" />
    <glyph glyph-name="Uring" unicode="&#x16e;" horiz-adv-x="653" 
d="M452 828q0 -53 -35.5 -86t-90.5 -33q-54 0 -90 33.5t-36 85.5t36 85t90 33t90 -33t36 -85zM287 828q0 -17 10.5 -27.5t28.5 -10.5q40 0 40 38q0 37 -40 37q-17 0 -28 -10t-11 -27zM594 229q0 -111 -75.5 -177t-192.5 -66q-116 0 -191.5 66t-75.5 177v471h137v-460
q0 -59 33.5 -89t96.5 -30t96.5 30t33.5 89v460h138v-471z" />
    <glyph glyph-name="uring" unicode="&#x16f;" horiz-adv-x="577" 
d="M410 658q0 -53 -35.5 -86t-90.5 -33q-54 0 -90 33.5t-36 85.5t36 85t90 33t90 -33t36 -85zM245 658q0 -17 10.5 -27.5t28.5 -10.5q40 0 40 38q0 37 -40 37q-17 0 -28 -10t-11 -27zM279 106q53 0 81.5 33t28.5 91v270h129v-500h-129v56q-47 -70 -149 -70
q-86 0 -137.5 57.5t-51.5 149.5v307h129v-291q0 -48 26 -75.5t73 -27.5z" />
    <glyph glyph-name="Uhungarumlaut" unicode="&#x170;" horiz-adv-x="653" 
d="M151 755h128l84 138h-134zM324 755h128l94 138h-134zM594 229q0 -111 -75.5 -177t-192.5 -66q-116 0 -191.5 66t-75.5 177v471h137v-460q0 -59 33.5 -89t96.5 -30t96.5 30t33.5 89v460h138v-471z" />
    <glyph glyph-name="uhungarumlaut" unicode="&#x171;" horiz-adv-x="577" 
d="M321 693l-84 -138h-128l78 138h134zM410 555h-128l88 138h134zM279 106q53 0 81.5 33t28.5 91v270h129v-500h-129v56q-47 -70 -149 -70q-86 0 -137.5 57.5t-51.5 149.5v307h129v-291q0 -48 26 -75.5t73 -27.5z" />
    <glyph glyph-name="Uogonek" unicode="&#x172;" horiz-adv-x="653" 
d="M326 121q63 0 96.5 30t33.5 89v460h138v-471q0 -122 -90 -189q-51 -48 -71 -77q-7 -10 -12.5 -23t-8.5 -27t3 -24t22 -11q11 -1 27 5v-81q-38 -16 -80 -16q-44 0 -70 23t-26 65q0 50 54 112h-16q-116 0 -191.5 66t-75.5 177v471h137v-460q0 -59 33.5 -89t96.5 -30z" />
    <glyph glyph-name="uogonek" unicode="&#x173;" horiz-adv-x="577" 
d="M279 106q53 0 81.5 33t28.5 91v270h129v-500q-53 -56 -53 -95q0 -27 25 -27q12 -1 28 5v-81q-38 -16 -81 -16t-69 23t-26 65q0 52 64 126h-17v56q-47 -70 -149 -70q-86 0 -137.5 57.5t-51.5 149.5v307h129v-291q0 -48 26 -75.5t73 -27.5z" />
    <glyph glyph-name="Wcircumflex" unicode="&#x174;" horiz-adv-x="999" 
d="M526 820l-44 -65h-128l106 145h131l106 -145h-128zM839 700h145l-196 -700h-157l-132 462l-131 -462h-157l-196 700h145l134 -519l146 519h118l147 -519z" />
    <glyph glyph-name="wcircumflex" unicode="&#x175;" horiz-adv-x="770" 
d="M382 620l-44 -65h-128l106 145h131l106 -145h-128zM622 500h137l-159 -500h-123l-92 303l-92 -303h-123l-159 500h137l85 -307l91 307h122l91 -308z" />
    <glyph glyph-name="Ycircumflex" unicode="&#x176;" horiz-adv-x="621" 
d="M307 820l-44 -65h-128l106 145h131l106 -145h-128zM379 0h-137v273l-239 427h156l152 -292l152 292h156l-240 -427v-273z" />
    <glyph glyph-name="ycircumflex" unicode="&#x177;" horiz-adv-x="525" 
d="M260 620l-44 -65h-128l106 145h131l106 -145h-128zM385 500h138l-182 -500q-17 -48 -38.5 -83.5t-52.5 -64t-74.5 -42t-98.5 -10.5v120q55 -1 84.5 23t46.5 73l-205 484h141l130 -336z" />
    <glyph glyph-name="Ydieresis" unicode="&#x178;" horiz-adv-x="621" 
d="M282 816q0 -28 -19.5 -47.5t-47.5 -19.5t-48 19.5t-20 47.5t20 48t48 20t47.5 -20t19.5 -48zM472 816q0 -28 -19.5 -47.5t-47.5 -19.5t-48 19.5t-20 47.5t20 48t48 20t47.5 -20t19.5 -48zM379 0h-137v273l-239 427h156l152 -292l152 292h156l-240 -427v-273z" />
    <glyph glyph-name="Zacute" unicode="&#x179;" horiz-adv-x="535" 
d="M428 900l-111 -137h-124l80 137h155zM509 132v-132h-473v110l291 458h-284v132h460v-109l-291 -459h297z" />
    <glyph glyph-name="zacute" unicode="&#x17a;" horiz-adv-x="474" 
d="M396 700l-111 -137h-124l80 137h155zM438 121v-121h-395v86l211 293h-201v121h375v-86l-212 -293h222z" />
    <glyph glyph-name="Zdotaccent" unicode="&#x17b;" horiz-adv-x="535" 
d="M350 829q0 -31 -23 -54.5t-54 -23.5q-32 0 -55 23t-23 55t23 54.5t55 22.5q31 0 54 -23t23 -54zM509 132v-132h-473v110l291 458h-284v132h460v-109l-291 -459h297z" />
    <glyph glyph-name="zdotaccent" unicode="&#x17c;" horiz-adv-x="474" 
d="M318 629q0 -31 -23 -54.5t-54 -23.5q-32 0 -55 23t-23 55t23 54.5t55 22.5q31 0 54 -23t23 -54zM438 121v-121h-395v86l211 293h-201v121h375v-86l-212 -293h222z" />
    <glyph glyph-name="Zcaron" unicode="&#x17d;" horiz-adv-x="535" 
d="M204 755l-106 145h128l44 -65l43 65h128l-106 -145h-131zM509 132v-132h-473v110l291 458h-284v132h460v-109l-291 -459h297z" />
    <glyph glyph-name="zcaron" unicode="&#x17e;" horiz-adv-x="474" 
d="M172 555l-106 145h128l44 -65l43 65h128l-106 -145h-131zM438 121v-121h-395v86l211 293h-201v121h375v-86l-212 -293h222z" />
    <glyph glyph-name="florin" unicode="&#x192;" horiz-adv-x="441" 
d="M406 414v-124h-112l-56 -331q-16 -96 -76 -141.5t-162 -18.5v128q33 -18 67 -3t41 59l52 307h-84v124h106l22 131q16 96 76 141.5t161 18.5v-129q-32 18 -66 3t-42 -59l-18 -106h91z" />
    <glyph glyph-name="Scommaaccent" unicode="&#x218;" horiz-adv-x="583" 
d="M558 197q0 -99 -72 -155t-182 -56q-103 0 -174.5 46.5t-100.5 126.5l118 69q41 -107 161 -107q50 0 81 18t31 56q0 37 -33 57.5t-118 44.5q-34 10 -55.5 18t-44 19.5t-45.5 27.5q-66 49 -66 144q0 92 66.5 150t163.5 58q89 0 152 -43t98 -114l-116 -67q-42 90 -134 90
q-40 0 -66 -18t-26 -52q0 -33 27.5 -53.5t105.5 -44.5q6 -2 18 -5.5t18.5 -5.5t17.5 -6t18.5 -6.5t17 -6t17 -7t15.5 -8t15 -9.5q48 -31 66 -62q26 -44 26 -99zM341 -263l30 200h-122l-10 -200h102z" />
    <glyph glyph-name="scommaaccent" unicode="&#x219;" horiz-adv-x="465" 
d="M236 399q-15 0 -28 -4.5t-21.5 -14t-8.5 -22.5q0 -12 8 -21t26.5 -16t27 -9.5t29.5 -7.5q37 -10 62.5 -20t51.5 -27.5t39.5 -45t13.5 -65.5q0 -77 -57.5 -118.5t-143.5 -41.5q-154 0 -210 119l112 63q22 -65 98 -65q69 0 69 43q0 12 -8 21t-27 16.5t-26.5 9.5t-29.5 8
q-36 10 -61 19.5t-51.5 26.5t-40.5 44.5t-14 63.5q0 74 54.5 116.5t135.5 42.5q65 0 114 -29t76 -77l-110 -60q-24 51 -80 51zM178 -263l10 200h122l-30 -200h-102z" />
    <glyph glyph-name="uni021A" unicode="&#x21a;" horiz-adv-x="540" 
d="M528 700v-132h-189v-568h-138v568h-188v132h515zM205 -263l10 200h122l-30 -200h-102z" />
    <glyph glyph-name="uni021B" unicode="&#x21b;" horiz-adv-x="385" 
d="M232 168q0 -27 16 -39.5t41 -12.5t56 1v-117q-127 -14 -184.5 22.5t-57.5 145.5v208h-87v124h87v101l129 39v-140h113v-124h-113v-208zM162 -263l10 200h122l-30 -200h-102z" />
    <glyph glyph-name="circumflex" unicode="&#x2c6;" horiz-adv-x="383" 
d="M363 555h-128l-43 65l-44 -65h-128l106 145h131z" />
    <glyph glyph-name="caron" unicode="&#x2c7;" horiz-adv-x="383" 
d="M235 700h128l-106 -145h-131l-106 145h128l44 -65z" />
    <glyph glyph-name="breve" unicode="&#x2d8;" horiz-adv-x="373" 
d="M353 692q0 -71 -45 -108t-122 -37t-121.5 37t-44.5 108h115q0 -52 51 -52q52 0 52 52h115z" />
    <glyph glyph-name="dotaccent" unicode="&#x2d9;" horiz-adv-x="203" 
d="M175 629q0 -31 -23 -54.5t-54 -23.5q-32 0 -55 23t-23 55t23 54.5t55 22.5q31 0 54 -23t23 -54z" />
    <glyph glyph-name="ring" unicode="&#x2da;" horiz-adv-x="293" 
d="M272 658q0 -53 -35.5 -86t-90.5 -33q-54 0 -90 33.5t-36 85.5t36 85t90 33t90 -33t36 -85zM107 658q0 -17 10.5 -27.5t28.5 -10.5q40 0 40 38q0 37 -40 37q-17 0 -28 -10t-11 -27z" />
    <glyph glyph-name="ogonek" unicode="&#x2db;" horiz-adv-x="216" 
d="M116 -214q-29 0 -50.5 10t-33.5 30t-12 48q0 57 66 126h110q-52 -55 -52 -95q-2 -27 25 -27q11 -1 27 5v-81q-38 -16 -80 -16z" />
    <glyph glyph-name="tilde" unicode="&#x2dc;" horiz-adv-x="379" 
d="M21 560q0 35 6.5 64t22 52t40.5 30t61 -1q26 -7 52 -24q26 -20 39 -16.5t13 40.5h105q0 -34 -6 -61.5t-19 -49.5t-36.5 -32t-56.5 -4q-31 5 -64 26q-26 20 -39.5 16.5t-13.5 -40.5h-104z" />
    <glyph glyph-name="hungarumlaut" unicode="&#x2dd;" horiz-adv-x="435" 
d="M20 555h128l84 138h-134zM193 555h128l94 138h-134z" />
    <glyph glyph-name="gravecomb" unicode="&#x300;" horiz-adv-x="0" 
d="M-20 563l-80 137h-155l111 -137h124z" />
    <glyph glyph-name="acutecomb" unicode="&#x301;" horiz-adv-x="0" 
d="M-255 563h124l111 137h-155z" />
    <glyph glyph-name="uni0302" unicode="&#x302;" horiz-adv-x="0" 
d="M-20 555h-128l-43 65l-44 -65h-128l106 145h131z" />
    <glyph glyph-name="tildecomb" unicode="&#x303;" horiz-adv-x="0" 
d="M-351 560q0 35 6.5 64t22 52t40.5 30t61 -1q26 -7 52 -24q26 -20 39 -16.5t13 40.5h105q0 -34 -6 -61.5t-19 -49.5t-36.5 -32t-56.5 -4q-31 5 -64 26q-26 20 -39.5 16.5t-13.5 -40.5h-104z" />
    <glyph glyph-name="uni0304" unicode="&#x304;" horiz-adv-x="0" 
d="M-310 564v105h290v-105h-290z" />
    <glyph glyph-name="uni0306" unicode="&#x306;" horiz-adv-x="0" 
d="M-20 692q0 -71 -45 -108t-122 -37t-121.5 37t-44.5 108h115q0 -52 51 -52q52 0 52 52h115z" />
    <glyph glyph-name="uni0307" unicode="&#x307;" horiz-adv-x="0" 
d="M-20 629q0 -31 -23 -54.5t-54 -23.5q-32 0 -55 23t-23 55t23 54.5t55 22.5q31 0 54 -23t23 -54z" />
    <glyph glyph-name="uni0308" unicode="&#x308;" horiz-adv-x="0" 
d="M-210 616q0 -28 -19.5 -47.5t-47.5 -19.5t-48 19.5t-20 47.5t20 48t48 20t47.5 -20t19.5 -48zM-20 616q0 -28 -19.5 -47.5t-47.5 -19.5t-48 19.5t-20 47.5t20 48t48 20t47.5 -20t19.5 -48z" />
    <glyph glyph-name="uni030A" unicode="&#x30a;" horiz-adv-x="0" 
d="M-24 658q0 -53 -35.5 -86t-90.5 -33q-54 0 -90 33.5t-36 85.5t36 85t90 33t90 -33t36 -85zM-189 658q0 -17 10.5 -27.5t28.5 -10.5q40 0 40 38q0 37 -40 37q-17 0 -28 -10t-11 -27z" />
    <glyph glyph-name="uni030B" unicode="&#x30b;" horiz-adv-x="0" 
d="M-415 555h128l84 138h-134zM-242 555h128l94 138h-134z" />
    <glyph glyph-name="uni030C" unicode="&#x30c;" horiz-adv-x="0" 
d="M-148 700h128l-106 -145h-131l-106 145h128l44 -65z" />
    <glyph glyph-name="uni0312" unicode="&#x312;" horiz-adv-x="0" 
d="M-122 975l-30 -200h122l10 200h-102z" />
    <glyph glyph-name="uni0326" unicode="&#x326;" horiz-adv-x="0" 
d="M-50 -263l30 200h-122l-10 -200h102z" />
    <glyph glyph-name="uni0327" unicode="&#x327;" horiz-adv-x="0" 
d="M-90 -46q30 -7 50 -27t20 -51q0 -105 -220 -92v91q108 -7 108 20q0 20 -63 25v80h105v-46z" />
    <glyph glyph-name="uni0328" unicode="&#x328;" horiz-adv-x="0" 
d="M-108 -214q-21 0 -39 6t-30.5 16.5t-19.5 27.5t-7 38q0 57 66 126h110q-52 -55 -52 -95q-2 -27 25 -27q11 -1 27 5v-81q-38 -16 -80 -16z" />
    <glyph glyph-name="uni0394" unicode="&#x394;" horiz-adv-x="653" 
d="M412 700l238 -700h-647l238 700h171zM193 129h266l-133 418z" />
    <glyph glyph-name="uni03A9" unicode="&#x3a9;" horiz-adv-x="777" 
d="M163 350q0 -80 42.5 -138.5t109.5 -79.5v-132h-276v132h93q-107 92 -107 233q0 147 106 248t258 101q151 0 257 -101t106 -248q0 -141 -107 -233h94v-132h-277v132q67 21 110 79.5t43 138.5q0 98 -64.5 164t-161.5 66t-161.5 -66t-64.5 -164z" />
    <glyph glyph-name="pi" unicode="&#x3c0;" horiz-adv-x="665" 
d="M643 500v-121h-80v-379h-129v379h-199v-379h-129v379h-83v121h620z" />
    <glyph glyph-name="uni0401" unicode="&#x401;" horiz-adv-x="530" 
d="M251 816q0 -28 -19.5 -47.5t-47.5 -19.5t-48 19.5t-20 47.5t20 48t48 20t47.5 -20t19.5 -48zM441 816q0 -28 -19.5 -47.5t-47.5 -19.5t-48 19.5t-20 47.5t20 48t48 20t47.5 -20t19.5 -48zM203 132h295v-132h-433v700h428v-132h-290v-149h265v-130h-265v-157z" />
    <glyph glyph-name="uni0402" unicode="&#x402;" horiz-adv-x="703" 
d="M436 118q44 -3 62 14.5t18 61.5v63q0 85 -81 85q-47 0 -109 -20v-322h-137v568h-176v132h512v-132h-199v-124q72 22 139 22q88 0 138 -52t50 -143v-77q0 -110 -53.5 -160.5t-163.5 -43.5v128z" />
    <glyph glyph-name="uni0403" unicode="&#x403;" horiz-adv-x="475" 
d="M424 899l-111 -137h-124l80 137h155zM463 700v-132h-260v-568h-138v700h398z" />
    <glyph glyph-name="uni0404" unicode="&#x404;" horiz-adv-x="724" 
d="M696 151q-43 -72 -122 -118.5t-178 -46.5q-158 0 -261 105t-103 259q0 155 103 259.5t261 104.5q98 0 177.5 -46.5t122.5 -118.5l-119 -69q-25 45 -72.5 72.5t-108.5 27.5q-86 0 -143.5 -45t-75.5 -120h312v-129h-312q18 -75 75.5 -120t143.5 -45q61 0 109 27.5t72 71.5z
" />
    <glyph glyph-name="uni0405" unicode="&#x405;" horiz-adv-x="583" 
d="M558 197q0 -99 -72 -155t-182 -56q-103 0 -174.5 46.5t-100.5 126.5l118 69q41 -107 161 -107q50 0 81 18t31 56q0 37 -33 57.5t-118 44.5q-34 10 -55.5 18t-44 19.5t-45.5 27.5q-66 49 -66 144q0 92 66.5 150t163.5 58q89 0 152 -43t98 -114l-116 -67q-42 90 -134 90
q-40 0 -66 -18t-26 -52q0 -33 27.5 -53.5t105.5 -44.5q6 -2 18 -5.5t18.5 -5.5t17.5 -6t18.5 -6.5t17 -6t17 -7t15.5 -8t15 -9.5q48 -31 66 -62q26 -44 26 -99z" />
    <glyph glyph-name="uni0406" unicode="&#x406;" horiz-adv-x="268" 
d="M65 700h138v-700h-138v700z" />
    <glyph glyph-name="uni0407" unicode="&#x407;" horiz-adv-x="268" 
d="M106 816q0 -28 -19.5 -47.5t-47.5 -19.5t-48 19.5t-20 47.5t20 48t48 20t47.5 -20t19.5 -48zM296 816q0 -28 -19.5 -47.5t-47.5 -19.5t-48 19.5t-20 47.5t20 48t48 20t47.5 -20t19.5 -48zM65 700h138v-700h-138v700z" />
    <glyph glyph-name="uni0408" unicode="&#x408;" horiz-adv-x="569" 
d="M510 218q0 -107 -68 -169.5t-178 -62.5q-165 0 -231 133l119 68q33 -66 112 -66q52 0 80.5 24.5t28.5 72.5v482h137v-482z" />
    <glyph glyph-name="uni0409" unicode="&#x409;" horiz-adv-x="961" 
d="M936 219q0 -63 -31.5 -113.5t-85.5 -78t-119 -27.5h-241v568h-187v-278q0 -72 -14 -127t-44.5 -95t-81.5 -58.5t-121 -11.5v128q71 -8 97.5 31.5t26.5 128.5v414h461v-262h104q99 0 167.5 -62t68.5 -157zM799 219q0 41 -28 65.5t-71 24.5h-104v-180h104q28 0 50.5 10.5
t35.5 31t13 48.5z" />
    <glyph glyph-name="uni040A" unicode="&#x40a;" horiz-adv-x="958" 
d="M933 219q0 -96 -68.5 -157.5t-168.5 -61.5h-241v309h-252v-309h-138v700h138v-262h252v262h138v-262h103q99 0 168 -62t69 -157zM795 219q0 41 -28 65.5t-71 24.5h-103v-180h103q43 0 71 24.5t28 65.5z" />
    <glyph glyph-name="uni040B" unicode="&#x40b;" horiz-adv-x="708" 
d="M465 466q88 0 138 -52t50 -143v-271h-137v257q0 85 -81 85q-47 0 -109 -20v-322h-137v568h-176v132h512v-132h-199v-124q72 22 139 22z" />
    <glyph glyph-name="uni040C" unicode="&#x40c;" horiz-adv-x="615" 
d="M464 899l-111 -137h-124l80 137h155zM203 0h-138v700h138v-309l240 309h159l-259 -340l269 -360h-159l-250 328v-328z" />
    <glyph glyph-name="uni040E" unicode="&#x40e;" horiz-adv-x="600" 
d="M447 875v-112h-290v112h290zM452 700h138l-210 -507q-84 -204 -276 -193v129q39 -4 68.5 6t47 28t32.5 48l-229 489h138l153 -338z" />
    <glyph glyph-name="uni040F" unicode="&#x40f;" horiz-adv-x="653" 
d="M450 700h138v-700h-193v-134h-137v134h-193v700h138v-568h247v568z" />
    <glyph glyph-name="uni0410" unicode="&#x410;" horiz-adv-x="668" 
d="M515 0l-42 126h-279l-42 -126h-149l245 700h171l246 -700h-150zM238 255h192l-96 286z" />
    <glyph glyph-name="uni0411" unicode="&#x411;" horiz-adv-x="585" 
d="M565 218q0 -97 -65.5 -157.5t-166.5 -60.5h-268v700h440v-132h-302v-133h130q100 0 166 -60t66 -157zM428 218q0 41 -26.5 64.5t-68.5 23.5h-130v-177h130q42 0 68.5 24t26.5 65z" />
    <glyph glyph-name="uni0412" unicode="&#x412;" horiz-adv-x="605" 
d="M341 700q58 0 106.5 -24.5t77.5 -70t29 -102.5q0 -87 -66 -140q92 -53 92 -160q0 -88 -63 -145.5t-155 -57.5h-297v700h276zM416 494q0 33 -21 55t-54 22h-138v-154h138q32 0 53.5 22t21.5 55zM443 212q0 35 -23 58.5t-58 23.5h-159v-165h159q35 0 58 23.5t23 59.5z" />
    <glyph glyph-name="uni0413" unicode="&#x413;" horiz-adv-x="475" 
d="M463 700v-132h-260v-568h-138v700h398z" />
    <glyph glyph-name="uni0414" unicode="&#x414;" horiz-adv-x="705" 
d="M603 132h75v-266h-138v134h-387v-134h-138v266h68q58 81 58 237v331h462v-568zM465 132v439h-186v-204q0 -152 -48 -235h234z" />
    <glyph glyph-name="uni0415" unicode="&#x415;" horiz-adv-x="530" 
d="M203 132h295v-132h-433v700h428v-132h-290v-149h265v-130h-265v-157z" />
    <glyph glyph-name="uni0416" unicode="&#x416;" horiz-adv-x="904" 
d="M521 0h-138v319l-217 -319h-153l243 357l-233 343h153l207 -312v312h138v-312l207 312h154l-234 -343l244 -357h-154l-217 319v-319z" />
    <glyph glyph-name="uni0417" unicode="&#x417;" horiz-adv-x="561" 
d="M275 714q101 0 168.5 -55.5t67.5 -148.5q0 -94 -75 -148q100 -53 100 -166q0 -97 -73 -153.5t-181 -56.5q-195 0 -261 165l119 67q32 -102 142 -102q53 0 85 22.5t32 66.5t-31.5 66.5t-82.5 22.5h-87v123h66q49 0 79.5 21t30.5 63q0 41 -26.5 62.5t-72.5 21.5
q-90 0 -126 -88l-117 68q71 149 243 149z" />
    <glyph glyph-name="uni0418" unicode="&#x418;" horiz-adv-x="673" 
d="M470 0v427l-300 -427h-105v700h138v-428l300 428h105v-700h-138z" />
    <glyph glyph-name="uni0419" unicode="&#x419;" horiz-adv-x="673" 
d="M191 764v112h290v-112h-290zM470 0v427l-300 -427h-105v700h138v-428l300 428h105v-700h-138z" />
    <glyph glyph-name="uni041A" unicode="&#x41a;" horiz-adv-x="615" 
d="M203 0h-138v700h138v-309l240 309h159l-259 -340l269 -360h-159l-250 328v-328z" />
    <glyph glyph-name="uni041B" unicode="&#x41b;" horiz-adv-x="676" 
d="M135 286v414h476v-700h-137v568h-202v-278q0 -148 -62 -225.5t-199 -64.5v128q71 -10 97.5 29.5t26.5 128.5z" />
    <glyph glyph-name="uni041C" unicode="&#x41c;" horiz-adv-x="815" 
d="M750 700v-700h-137v454l-197 -325h-16l-197 324v-453h-138v700h142l201 -331l200 331h142z" />
    <glyph glyph-name="uni041D" unicode="&#x41d;" horiz-adv-x="665" 
d="M463 700h137v-700h-137v290h-260v-290h-138v700h138v-278h260v278z" />
    <glyph glyph-name="uni041E" unicode="&#x41e;" horiz-adv-x="792" 
d="M396 714q152 0 258 -105.5t106 -258.5t-106 -258.5t-258 -105.5t-257.5 105.5t-105.5 258.5t105.5 258.5t257.5 105.5zM170 350q0 -98 64.5 -163.5t161.5 -65.5t161.5 65.5t64.5 163.5t-64.5 164t-161.5 66t-161.5 -66t-64.5 -164z" />
    <glyph glyph-name="uni041F" unicode="&#x41f;" horiz-adv-x="653" 
d="M588 700v-700h-138v568h-247v-568h-138v700h523z" />
    <glyph glyph-name="uni0420" unicode="&#x420;" horiz-adv-x="590" 
d="M565 465q0 -99 -69.5 -167t-169.5 -68h-123v-230h-138v700h261q100 0 169.5 -68t69.5 -167zM428 465q0 45 -29 75.5t-73 30.5h-123v-212h123q44 0 73 30.5t29 75.5z" />
    <glyph glyph-name="uni0421" unicode="&#x421;" horiz-adv-x="726" 
d="M698 151q-43 -73 -122 -119t-179 -46q-158 0 -261 105t-103 259q0 155 103 259.5t261 104.5q99 0 178.5 -46.5t122.5 -118.5l-119 -69q-16 29 -42 51.5t-62 35.5t-78 13q-101 0 -164 -64t-63 -166q0 -101 63 -165t164 -64q62 0 110 27.5t72 71.5z" />
    <glyph glyph-name="uni0422" unicode="&#x422;" horiz-adv-x="540" 
d="M528 700v-132h-189v-568h-138v568h-188v132h515z" />
    <glyph glyph-name="uni0423" unicode="&#x423;" horiz-adv-x="600" 
d="M452 700h138l-210 -507q-84 -204 -276 -193v129q39 -4 68.5 6t47 28t32.5 48l-229 489h138l153 -338z" />
    <glyph glyph-name="uni0424" unicode="&#x424;" horiz-adv-x="819" 
d="M477 634q139 -13 229.5 -85.5t90.5 -198.5t-90.5 -198.5t-229.5 -85.5v-81h-135v81q-140 14 -229.5 86t-89.5 198t89.5 198t229.5 86v81h135v-81zM659 350q0 138 -182 159v-317q182 21 182 158zM160 350q0 -137 182 -157v315q-182 -20 -182 -158z" />
    <glyph glyph-name="uni0425" unicode="&#x425;" horiz-adv-x="610" 
d="M598 0h-157l-136 228l-136 -228h-156l214 359l-203 341h156l125 -210l125 210h156l-203 -340z" />
    <glyph glyph-name="uni0426" unicode="&#x426;" horiz-adv-x="690" 
d="M588 132h75v-266h-138v134h-460v700h138v-568h247v568h138v-568z" />
    <glyph glyph-name="uni0427" unicode="&#x427;" horiz-adv-x="633" 
d="M188 468q0 -49 29.5 -78t78.5 -29q73 0 134 29v310h138v-700h-138v256q-64 -27 -137 -27q-106 0 -174.5 60t-68.5 161v250h138v-232z" />
    <glyph glyph-name="uni0428" unicode="&#x428;" horiz-adv-x="943" 
d="M740 700h138v-700h-813v700h138v-568h200v568h137v-568h200v568z" />
    <glyph glyph-name="uni0429" unicode="&#x429;" horiz-adv-x="980" 
d="M878 132h75v-266h-138v134h-750v700h138v-568h200v568h137v-568h200v568h138v-568z" />
    <glyph glyph-name="uni042A" unicode="&#x42a;" horiz-adv-x="693" 
d="M668 235q0 -99 -69.5 -167t-169.5 -68h-261v568h-168v132h305v-230h124q100 0 169.5 -68t69.5 -167zM530 235q0 45 -28.5 75.5t-72.5 30.5h-124v-212h124q44 0 72.5 30.5t28.5 75.5z" />
    <glyph glyph-name="uni042B" unicode="&#x42b;" horiz-adv-x="831" 
d="M565 235q0 -99 -69.5 -167t-169.5 -68h-261v700h138v-230h123q100 0 169.5 -68t69.5 -167zM629 0v700h137v-700h-137zM428 235q0 45 -29 75.5t-73 30.5h-123v-212h123q44 0 73 30.5t29 75.5z" />
    <glyph glyph-name="uni042C" unicode="&#x42c;" horiz-adv-x="590" 
d="M565 235q0 -99 -69.5 -167t-169.5 -68h-261v700h138v-230h123q100 0 169.5 -68t69.5 -167zM428 235q0 45 -29 75.5t-73 30.5h-123v-212h123q44 0 73 30.5t29 75.5z" />
    <glyph glyph-name="uni042D" unicode="&#x42d;" horiz-adv-x="724" 
d="M28 549q43 72 122 118.5t178 46.5q158 0 261 -104.5t103 -259.5q0 -154 -103 -259t-261 -105q-99 0 -178 46.5t-122 118.5l119 69q24 -44 72 -71.5t109 -27.5q86 0 143.5 45t75.5 120h-312v129h312q-18 75 -75.5 120t-143.5 45q-61 0 -108.5 -27.5t-72.5 -72.5z" />
    <glyph glyph-name="uni042E" unicode="&#x42e;" horiz-adv-x="1055" 
d="M307 426q8 39 24.5 75.5t40 68.5t54.5 58.5t67 45.5t78.5 29.5t87.5 10.5q152 0 258 -105.5t106 -258.5q0 -152 -106 -258t-258 -106q-138 0 -237 89t-118 219h-101v-294h-138v700h138v-274h104zM433 350q0 -98 64.5 -163.5t161.5 -65.5t161.5 65.5t64.5 163.5t-64.5 164
t-161.5 66q-98 0 -162 -65t-64 -165z" />
    <glyph glyph-name="uni042F" unicode="&#x42f;" horiz-adv-x="624" 
d="M46 468q0 96 68.5 164t164.5 68h280v-700h-138v243h-79l-161 -243h-155l171 258q-63 23 -107 80t-44 130zM184 468q0 -42 27.5 -73t67.5 -31h142v207h-142q-40 0 -67.5 -30.5t-27.5 -72.5z" />
    <glyph glyph-name="uni0430" unicode="&#x430;" 
d="M33 250q0 107 70.5 185.5t172.5 78.5q105 0 163 -73v59h129v-500h-129v59q-58 -73 -163 -73q-102 0 -172.5 78.5t-70.5 185.5zM162 250q0 -61 39 -101t99 -40t99.5 40t39.5 101t-39.5 101t-99.5 40t-99 -40t-39 -101z" />
    <glyph glyph-name="uni0431" unicode="&#x431;" horiz-adv-x="567" 
d="M548 221q0 -105 -71 -170t-181 -65q-116 0 -189.5 76t-73.5 193q0 128 38 197.5t153 126.5q94 44 122 61q46 27 63 79l106 -61q-13 -61 -58.5 -94.5t-136.5 -68.5q-59 -23 -89 -45.5t-46 -64.5q56 57 150 57q83 0 148 -60.5t65 -160.5zM168 225q0 -53 36.5 -87t90.5 -34
q53 0 88.5 33t35.5 84q0 52 -35.5 85t-89.5 33q-51 0 -88.5 -32.5t-37.5 -81.5z" />
    <glyph glyph-name="uni0432" unicode="&#x432;" horiz-adv-x="511" 
d="M302 500q74 0 120 -37t46 -104q0 -66 -49 -103q70 -34 70 -114q0 -67 -46 -104.5t-121 -37.5h-263v500h243zM290 394h-110v-90h110q55 0 55 45t-55 45zM363 157q0 22 -15.5 33.5t-40.5 11.5h-127v-93h127q56 0 56 48z" />
    <glyph glyph-name="uni0433" unicode="&#x433;" horiz-adv-x="411" 
d="M401 500v-124h-213v-376h-129v500h342z" />
    <glyph glyph-name="uni0434" unicode="&#x434;" horiz-adv-x="598" 
d="M509 121h66v-255h-126v134h-310v-134h-126v255h61q43 64 43 177v202h392v-379zM383 121v263h-140v-86q0 -106 -31 -177h171z" />
    <glyph glyph-name="uni0435" unicode="&#x435;" horiz-adv-x="581" 
d="M297 514q72 0 130 -35t90.5 -95.5t32.5 -133.5q0 -25 -5 -53h-377q26 -94 141 -94q74 0 112 50l104 -60q-74 -107 -218 -107q-120 0 -197 73.5t-77 190.5q0 114 75 189t189 75zM421 297q-7 30 -23 52.5t-42 35.5t-59 13q-53 0 -86.5 -27t-44.5 -74h255z" />
    <glyph glyph-name="uni0436" unicode="&#x436;" horiz-adv-x="746" 
d="M436 0h-126v224l-153 -224h-144l180 253l-170 247h144l143 -217v217h126v-217l143 217h145l-171 -247l181 -253h-145l-153 224v-224z" />
    <glyph glyph-name="uni0437" unicode="&#x437;" horiz-adv-x="450" 
d="M220 514q38 0 71.5 -10.5t59.5 -29t41 -47t15 -62.5q0 -73 -55 -110q76 -37 76 -119q0 -71 -58 -110.5t-144 -39.5q-152 0 -207 120l105 62q24 -68 103 -68q33 0 54 13t21 39q0 46 -59 46h-71v110h54q58 0 58 46q0 23 -17.5 35.5t-44.5 12.5q-65 0 -93 -63l-104 60
q57 115 195 115z" />
    <glyph glyph-name="uni0438" unicode="&#x438;" horiz-adv-x="575" 
d="M516 500v-500h-126v284l-235 -284h-96v500h126v-284l235 284h96z" />
    <glyph glyph-name="uni0439" unicode="&#x439;" horiz-adv-x="575" 
d="M143 564v112h290v-112h-290zM516 500v-500h-126v284l-235 -284h-96v500h126v-284l235 284h96z" />
    <glyph glyph-name="uni043A" unicode="&#x43a;" horiz-adv-x="525" 
d="M188 0h-129v500h129v-220l172 220h154l-201 -247l207 -253h-150l-182 227v-227z" />
    <glyph glyph-name="uni043B" unicode="&#x43b;" horiz-adv-x="546" 
d="M488 500v-500h-129v376h-138v-167q0 -232 -211 -209v121q44 -11 63 15.5t19 79.5v284h396z" />
    <glyph glyph-name="uni043C" unicode="&#x43c;" horiz-adv-x="638" 
d="M579 500v-500h-125v292l-127 -200h-16l-128 202v-294h-124v500h127l133 -210l133 210h127z" />
    <glyph glyph-name="uni043D" unicode="&#x43d;" horiz-adv-x="575" 
d="M387 500h129v-500h-129v190h-199v-190h-129v500h129v-189h199v189z" />
    <glyph glyph-name="uni043E" unicode="&#x43e;" horiz-adv-x="594" 
d="M562 250q0 -110 -77.5 -187t-187.5 -77t-187 77t-77 187t77 187t187 77t187.5 -77t77.5 -187zM162 250q0 -59 38.5 -98.5t96.5 -39.5t97 39.5t39 98.5t-39 98.5t-97 39.5t-96.5 -39.5t-38.5 -98.5z" />
    <glyph glyph-name="uni043F" unicode="&#x43f;" horiz-adv-x="575" 
d="M516 500v-500h-129v379h-199v-379h-129v500h457z" />
    <glyph glyph-name="uni0440" unicode="&#x440;" 
d="M594 250q0 -108 -70.5 -186t-173.5 -78q-105 0 -162 73v-259h-129v700h129v-59q57 73 162 73q103 0 173.5 -78t70.5 -186zM188 250q0 -61 39 -101t99 -40t99.5 40t39.5 101t-39.5 101t-99.5 40t-99 -40t-39 -101z" />
    <glyph glyph-name="uni0441" unicode="&#x441;" horiz-adv-x="536" 
d="M523 116q-32 -57 -91 -93.5t-135 -36.5q-112 0 -188 76t-76 188t76 188t188 76q75 0 134.5 -36.5t89.5 -92.5l-111 -65q-14 30 -44.5 48.5t-69.5 18.5q-58 0 -96 -39t-38 -98q0 -58 38 -97t96 -39q40 0 70.5 18t44.5 48z" />
    <glyph glyph-name="uni0442" unicode="&#x442;" horiz-adv-x="463" 
d="M453 500v-124h-156v-376h-129v376h-158v124h443z" />
    <glyph glyph-name="uni0443" unicode="&#x443;" horiz-adv-x="525" 
d="M385 500h138l-182 -500q-76 -211 -264 -200v120q54 -1 82.5 20t45.5 66l-202 494h137l134 -336z" />
    <glyph glyph-name="uni0444" unicode="&#x444;" horiz-adv-x="685" 
d="M406 508q52 -7 96.5 -27.5t78.5 -53t53 -78t19 -99.5q0 -107 -69.5 -175t-177.5 -83v-192h-126v192q-108 15 -177.5 83t-69.5 175t69.5 175t177.5 83v192h126v-192zM280 385q-54 -12 -87 -46t-33 -89q0 -54 33 -88.5t87 -46.5v270zM406 116q54 12 86.5 46t32.5 88
q0 37 -16 65.5t-42 45t-61 24.5v-269z" />
    <glyph glyph-name="uni0445" unicode="&#x445;" horiz-adv-x="525" 
d="M520 0h-149l-108 152l-109 -152h-149l183 255l-175 245h149l101 -141l101 141h148l-175 -244z" />
    <glyph glyph-name="uni0446" unicode="&#x446;" horiz-adv-x="605" 
d="M499 121h84v-255h-126v134h-398v500h129v-379h182v379h129v-379z" />
    <glyph glyph-name="uni0447" unicode="&#x447;" horiz-adv-x="541" 
d="M235 141q-92 0 -146 46.5t-54 133.5v179h129v-164q0 -75 93 -75q54 0 97 19v220h129v-500h-129v159q-56 -18 -119 -18z" />
    <glyph glyph-name="uni0448" unicode="&#x448;" horiz-adv-x="833" 
d="M645 500h129v-500h-715v500h129v-379h164v379h129v-379h164v379z" />
    <glyph glyph-name="uni0449" unicode="&#x449;" horiz-adv-x="848" 
d="M759 121h66v-255h-126v134h-640v500h129v-379h156v379h129v-379h157v379h129v-379z" />
    <glyph glyph-name="uni044A" unicode="&#x44a;" horiz-adv-x="574" 
d="M551 170q0 -78 -52.5 -124t-135.5 -46h-227v376h-136v124h265v-160h98q83 0 135.5 -46t52.5 -124zM425 170q0 25 -18 41t-44 16h-98v-113h98q27 0 44.5 15.5t17.5 40.5z" />
    <glyph glyph-name="uni044B" unicode="&#x44b;" horiz-adv-x="717" 
d="M474 170q0 -78 -53 -124t-136 -46h-226v500h129v-160h97q83 0 136 -46t53 -124zM529 500h129v-500h-129v500zM348 170q0 25 -18 41t-44 16h-98v-113h98q27 0 44.5 15.5t17.5 40.5z" />
    <glyph glyph-name="uni044C" unicode="&#x44c;" horiz-adv-x="496" 
d="M474 170q0 -78 -53 -124t-136 -46h-226v500h129v-160h97q83 0 136 -46t53 -124zM348 170q0 25 -18 41t-44 16h-98v-113h98q27 0 44.5 15.5t17.5 40.5z" />
    <glyph glyph-name="uni044D" unicode="&#x44d;" horiz-adv-x="537" 
d="M14 385q31 57 91 93t138 36q114 0 187.5 -74.5t73.5 -189.5q0 -116 -73.5 -190t-188.5 -74q-78 0 -139 36.5t-90 93.5l109 63q13 -32 45.5 -50.5t76.5 -18.5q43 0 75.5 23t46.5 59h-170v116h170q-14 36 -46.5 59t-75.5 23q-88 0 -121 -68z" />
    <glyph glyph-name="uni044E" unicode="&#x44e;" horiz-adv-x="811" 
d="M261 311q19 86 88.5 144.5t164.5 58.5q110 0 187.5 -77t77.5 -187t-77.5 -187t-187.5 -77q-96 0 -165.5 58.5t-88.5 145.5h-72v-190h-129v500h129v-189h73zM379 250q0 -59 38.5 -98.5t96.5 -39.5t97 39.5t39 98.5t-39 98.5t-97 39.5t-96.5 -39.5t-38.5 -98.5z" />
    <glyph glyph-name="uni044F" unicode="&#x44f;" horiz-adv-x="519" 
d="M45 328q0 73 52 122.5t129 49.5h234v-500h-126v156h-45l-115 -156h-149l125 171q-45 19 -75 61t-30 96zM171 324q0 -27 18.5 -43t46.5 -16h98v120h-98q-28 0 -46.5 -17t-18.5 -44z" />
    <glyph glyph-name="uni0451" unicode="&#x451;" horiz-adv-x="581" 
d="M263 620q0 -28 -19.5 -47.5t-47.5 -19.5t-48 19.5t-20 47.5t20 48t48 20t47.5 -20t19.5 -48zM453 620q0 -28 -19.5 -47.5t-47.5 -19.5t-48 19.5t-20 47.5t20 48t48 20t47.5 -20t19.5 -48zM297 514q72 0 130 -35t90.5 -95.5t32.5 -133.5q0 -25 -5 -53h-377q26 -94 141 -94
q74 0 112 50l104 -60q-74 -107 -218 -107q-120 0 -197 73.5t-77 190.5q0 114 75 189t189 75zM421 297q-7 30 -23 52.5t-42 35.5t-59 13q-53 0 -86.5 -27t-44.5 -74h255z" />
    <glyph glyph-name="uni0452" unicode="&#x452;" horiz-adv-x="583" 
d="M304 394q-53 0 -81.5 -33t-28.5 -91v-270h-129v554h-62v84h62v62h129v-62h141v-84h-141v-111q46 71 149 71q87 0 138.5 -57.5t51.5 -149.5v-317q0 -110 -53.5 -160.5t-164.5 -43.5v124q46 -3 67.5 16t21.5 64v301q0 48 -26.5 75.5t-73.5 27.5z" />
    <glyph glyph-name="uni0453" unicode="&#x453;" horiz-adv-x="411" 
d="M369 700l-111 -137h-124l80 137h155zM401 500v-124h-213v-376h-129v500h342z" />
    <glyph glyph-name="uni0454" unicode="&#x454;" horiz-adv-x="537" 
d="M524 116q-29 -57 -90 -93.5t-139 -36.5q-115 0 -188.5 74t-73.5 190q0 115 73.5 189.5t187.5 74.5q78 0 138 -36t91 -93l-109 -63q-33 68 -121 68q-43 0 -75.5 -23t-46.5 -59h170v-116h-170q14 -36 46.5 -59t75.5 -23q44 0 76.5 18.5t45.5 50.5z" />
    <glyph glyph-name="uni0455" unicode="&#x455;" horiz-adv-x="465" 
d="M236 399q-15 0 -28 -4.5t-21.5 -14t-8.5 -22.5q0 -12 8 -21t26.5 -16t27 -9.5t29.5 -7.5q37 -10 62.5 -20t51.5 -27.5t39.5 -45t13.5 -65.5q0 -77 -57.5 -118.5t-143.5 -41.5q-154 0 -210 119l112 63q22 -65 98 -65q69 0 69 43q0 12 -8 21t-27 16.5t-26.5 9.5t-29.5 8
q-36 10 -61 19.5t-51.5 26.5t-40.5 44.5t-14 63.5q0 74 54.5 116.5t135.5 42.5q65 0 114 -29t76 -77l-110 -60q-24 51 -80 51z" />
    <glyph glyph-name="uni0456" unicode="&#x456;" horiz-adv-x="247" 
d="M203 639q0 -32 -24 -55.5t-56 -23.5t-55.5 23.5t-23.5 55.5t23.5 56t55.5 24t56 -24t24 -56zM59 0v500h129v-500h-129z" />
    <glyph glyph-name="uni0457" unicode="&#x457;" horiz-adv-x="247" 
d="M95 616q0 -28 -19.5 -47.5t-47.5 -19.5t-48 19.5t-20 47.5t20 48t48 20t47.5 -20t19.5 -48zM285 616q0 -28 -19.5 -47.5t-47.5 -19.5t-48 19.5t-20 47.5t20 48t48 20t47.5 -20t19.5 -48zM59 0v500h129v-500h-129z" />
    <glyph glyph-name="uni0458" unicode="&#x458;" horiz-adv-x="264" 
d="M220 639q0 -32 -23.5 -55.5t-55.5 -23.5t-56 23.5t-24 55.5t24 56t56 24t55.5 -24t23.5 -56zM-13 -90q46 -3 67.5 16t21.5 64v510h129v-510q0 -110 -53.5 -160.5t-164.5 -43.5v124z" />
    <glyph glyph-name="uni0459" unicode="&#x459;" horiz-adv-x="764" 
d="M741 164q0 -75 -47 -119.5t-124 -44.5h-221v376h-128v-167q0 -229 -211 -215v121q82 -11 82 101v284h386v-172h92q78 0 124.5 -44t46.5 -120zM623 164q0 23 -14.5 36.5t-37.5 13.5h-93v-100h93q23 0 37.5 13.5t14.5 36.5z" />
    <glyph glyph-name="uni045A" unicode="&#x45a;" horiz-adv-x="790" 
d="M767 164q0 -75 -50 -119.5t-128 -44.5h-222v207h-187v-207h-129v500h129v-172h187v172h129v-172h93q78 0 128 -44.5t50 -119.5zM641 164q0 23 -14.5 36.5t-37.5 13.5h-93v-100h93q23 0 37.5 13.5t14.5 36.5z" />
    <glyph glyph-name="uni045B" unicode="&#x45b;" horiz-adv-x="583" 
d="M304 394q-53 0 -81.5 -33t-28.5 -91v-270h-129v554h-62v84h62v62h129v-62h141v-84h-141v-111q46 71 149 71q87 0 138.5 -57.5t51.5 -149.5v-307h-129v291q0 48 -26.5 75.5t-73.5 27.5z" />
    <glyph glyph-name="uni045C" unicode="&#x45c;" horiz-adv-x="525" 
d="M424 700l-111 -137h-124l80 137h155zM188 0h-129v500h129v-220l172 220h154l-201 -247l207 -253h-150l-182 227v-227z" />
    <glyph glyph-name="uni045E" unicode="&#x45e;" horiz-adv-x="525" 
d="M408 676v-112h-290v112h290zM385 500h138l-182 -500q-76 -211 -264 -200v120q54 -1 82.5 20t45.5 66l-202 494h137l134 -336z" />
    <glyph glyph-name="uni045F" unicode="&#x45f;" horiz-adv-x="575" 
d="M387 500h129v-500h-165v-134h-126v134h-166v500h129v-379h199v379z" />
    <glyph glyph-name="uni0490" unicode="&#x490;" horiz-adv-x="475" 
d="M325 820h138v-252h-260v-568h-138v700h260v120z" />
    <glyph glyph-name="uni0491" unicode="&#x491;" horiz-adv-x="411" 
d="M275 601h126v-225h-213v-376h-129v500h216v101z" />
    <glyph glyph-name="Wgrave" unicode="&#x1e80;" horiz-adv-x="999" 
d="M611 763l-80 137h-155l111 -137h124zM211 0l-196 700h145l134 -519l146 519h118l147 -519l134 519h145l-196 -700h-157l-132 462l-131 -462h-157z" />
    <glyph glyph-name="wgrave" unicode="&#x1e81;" horiz-adv-x="770" 
d="M467 563h-124l-111 137h155zM622 500h137l-159 -500h-123l-92 303l-92 -303h-123l-159 500h137l85 -307l91 307h122l91 -308z" />
    <glyph glyph-name="Wacute" unicode="&#x1e82;" horiz-adv-x="999" 
d="M449 763h124l111 137h-155zM211 0l-196 700h145l134 -519l146 519h118l147 -519l134 519h145l-196 -700h-157l-132 462l-131 -462h-157z" />
    <glyph glyph-name="wacute" unicode="&#x1e83;" horiz-adv-x="770" 
d="M540 700l-111 -137h-124l80 137h155zM622 500h137l-159 -500h-123l-92 303l-92 -303h-123l-159 500h137l85 -307l91 307h122l91 -308z" />
    <glyph glyph-name="Wdieresis" unicode="&#x1e84;" horiz-adv-x="999" 
d="M501 816q0 -28 -19.5 -47.5t-47.5 -19.5t-48 19.5t-20 47.5t20 48t48 20t47.5 -20t19.5 -48zM691 816q0 -28 -19.5 -47.5t-47.5 -19.5t-48 19.5t-20 47.5t20 48t48 20t47.5 -20t19.5 -48zM211 0l-196 700h145l134 -519l146 519h118l147 -519l134 519h145l-196 -700h-157
l-132 462l-131 -462h-157z" />
    <glyph glyph-name="wdieresis" unicode="&#x1e85;" horiz-adv-x="770" 
d="M357 616q0 -28 -19.5 -47.5t-47.5 -19.5t-48 19.5t-20 47.5t20 48t48 20t47.5 -20t19.5 -48zM547 616q0 -28 -19.5 -47.5t-47.5 -19.5t-48 19.5t-20 47.5t20 48t48 20t47.5 -20t19.5 -48zM622 500h137l-159 -500h-123l-92 303l-92 -303h-123l-159 500h137l85 -307l91 307
h122l91 -308z" />
    <glyph glyph-name="Ygrave" unicode="&#x1ef2;" horiz-adv-x="621" 
d="M392 763h-124l-111 137h155zM379 0h-137v273l-239 427h156l152 -292l152 292h156l-240 -427v-273z" />
    <glyph glyph-name="ygrave" unicode="&#x1ef3;" horiz-adv-x="525" 
d="M345 563h-124l-111 137h155zM385 500h138l-182 -500q-17 -48 -38.5 -83.5t-52.5 -64t-74.5 -42t-98.5 -10.5v120q55 -1 84.5 23t46.5 73l-205 484h141l130 -336z" />
    <glyph glyph-name="endash" unicode="&#x2013;" horiz-adv-x="645" 
d="M65 240v124h515v-124h-515z" />
    <glyph glyph-name="emdash" unicode="&#x2014;" horiz-adv-x="745" 
d="M65 240v124h615v-124h-615z" />
    <glyph glyph-name="quoteleft" unicode="&#x2018;" horiz-adv-x="278" 
d="M49 422l75 278h105l-40 -278h-140z" />
    <glyph glyph-name="quoteright" unicode="&#x2019;" horiz-adv-x="278" 
d="M229 701l-75 -278h-105l40 278h140z" />
    <glyph glyph-name="quotesinglbase" unicode="&#x201a;" horiz-adv-x="278" 
d="M229 138l-75 -278h-105l40 278h140z" />
    <glyph glyph-name="quotedblleft" unicode="&#x201c;" horiz-adv-x="463" 
d="M49 422l75 278h105l-40 -278h-140zM234 422l75 278h105l-40 -278h-140z" />
    <glyph glyph-name="quotedblright" unicode="&#x201d;" horiz-adv-x="463" 
d="M229 701l-75 -278h-105l40 278h140zM414 701l-75 -278h-105l40 278h140z" />
    <glyph glyph-name="quotedblbase" unicode="&#x201e;" horiz-adv-x="463" 
d="M229 138l-75 -278h-105l40 278h140zM414 138l-75 -278h-105l40 278h140z" />
    <glyph glyph-name="dagger" unicode="&#x2020;" horiz-adv-x="480" 
d="M435 565v-124h-130v-441h-129v441h-131v124h131v135h129v-135h130z" />
    <glyph glyph-name="daggerdbl" unicode="&#x2021;" horiz-adv-x="480" 
d="M435 441h-130v-182h130v-124h-130v-135h-129v135h-131v124h131v182h-131v124h131v135h129v-135h130v-124z" />
    <glyph glyph-name="bullet" unicode="&#x2022;" horiz-adv-x="360" 
d="M318 352q0 -57 -40 -98t-96 -41q-58 0 -98.5 40.5t-40.5 98.5q0 56 41 96t98 40q56 0 96 -40t40 -96z" />
    <glyph glyph-name="ellipsis" unicode="&#x2026;" horiz-adv-x="723" 
d="M219 72q0 -35 -25 -60t-60 -25t-60 25t-25 60t25 60t60 25t60 -25t25 -60zM447 72q0 -35 -25 -60t-60 -25t-60 25t-25 60t25 60t60 25t60 -25t25 -60zM674 72q0 -35 -25 -60t-60 -25t-60 25t-25 60t25 60t60 25t60 -25t25 -60z" />
    <glyph glyph-name="perthousand" unicode="&#x2030;" horiz-adv-x="1139" 
d="M382 549q0 -70 -48.5 -117.5t-119.5 -47.5t-120 48t-49 117t49 117t120 48t119.5 -47.5t48.5 -117.5zM116 106l456 507l61 -34l-457 -508zM151 549q0 -27 17.5 -45.5t44.5 -18.5t45 18.5t18 45.5t-18 45t-45 18t-44.5 -18t-17.5 -45zM720 153q0 -70 -49 -117.5
t-119 -47.5t-119 47.5t-49 117.5t49 117.5t119 47.5t119 -47.5t49 -117.5zM1094 153q0 -69 -49 -117t-119 -48q-71 0 -120 48t-49 117t49 117t120 48q70 0 119 -48t49 -117zM490 153q0 -27 17.5 -45.5t44.5 -18.5q26 0 44 19t18 45q0 27 -17.5 45.5t-44.5 18.5t-44.5 -18.5
t-17.5 -45.5zM863 153q0 -27 17.5 -45.5t44.5 -18.5t45 18.5t18 45.5t-18 45.5t-45 18.5t-44.5 -18.5t-17.5 -45.5z" />
    <glyph glyph-name="guilsinglleft" unicode="&#x2039;" horiz-adv-x="355" 
d="M292 497l-110 -188l110 -187h-119l-110 187l110 188h119z" />
    <glyph glyph-name="guilsinglright" unicode="&#x203a;" horiz-adv-x="355" 
d="M182 497l110 -188l-110 -187h-119l110 187l-110 188h119z" />
    <glyph glyph-name="fraction" unicode="&#x2044;" horiz-adv-x="190" 
d="M-60 0h-90l400 700h90z" />
    <glyph glyph-name="Euro" unicode="&#x20ac;" horiz-adv-x="611" 
d="M87 451q20 117 89 190t184 73q155 0 226 -146l-115 -66q-37 78 -111 78q-105 0 -134 -129h205v-77h-215v-39h215v-78h-207q28 -136 136 -136q76 0 115 83l114 -65q-68 -153 -229 -153q-59 0 -107.5 21t-82 59t-54.5 86t-30 105h-70v78h63v39h-63v77h71z" />
    <glyph glyph-name="uni20BD" unicode="&#x20bd;" horiz-adv-x="601" 
d="M585 468q0 -96 -68.5 -160.5t-167.5 -64.5h-124v-55h223v-88h-223v-100h-137v100h-75v88h75v55h-75v121h75v336h261q97 0 166.5 -68t69.5 -164zM448 468q0 43 -28.5 73t-70.5 30h-124v-207h124q42 0 70.5 30.5t28.5 73.5z" />
    <glyph glyph-name="uni2116" unicode="&#x2116;" horiz-adv-x="1039" 
d="M1007 548q0 -70 -48.5 -117.5t-119.5 -47.5q-70 0 -119 48t-49 117q0 70 49 117.5t119 47.5t119 -47.5t49 -117.5zM470 700h138v-700h-105l-300 428v-428h-138v700h105l300 -427v427zM780 548q0 -26 16.5 -43t42.5 -17t42.5 17t16.5 43t-16.5 43t-42.5 17t-42.5 -17
t-16.5 -43zM684 208v121h312v-121h-312z" />
    <glyph glyph-name="trademark" unicode="&#x2122;" horiz-adv-x="473" 
d="M204 700v-56h-55v-144h-61v144h-55v56h171zM441 700v-200h-58v109l-48 -73h-5l-48 73v-109h-58v200h58l51 -77l50 77h58z" />
    <glyph glyph-name="estimated" unicode="&#x212e;" horiz-adv-x="790" 
d="M395 710q163 0 266.5 -104t103.5 -256q0 -15 -15 -15h-560q-15 0 -15 -15v-192q0 -11 7 -19q84 -89 233 -89q145 0 231 97q8 9 18 9h37q10 0 13 -6t-4 -13q-109 -117 -295 -117q-176 0 -283 103.5t-107 256.5q0 152 103.5 256t266.5 104zM615 572q0 11 -7 19
q-84 89 -213 89t-213 -89q-7 -8 -7 -19v-192q0 -15 15 -15h410q15 0 15 15v192z" />
    <glyph glyph-name="oneeighth" unicode="&#x215b;" horiz-adv-x="806" 
d="M217 300h-107v292l-82 -23l-25 88l120 43h94v-400zM517 700h90l-400 -700h-90zM632 414q60 0 100 -32.5t40 -87.5q0 -53 -45 -84q58 -34 58 -101q0 -59 -42.5 -91t-110.5 -32t-111 32t-43 91q0 67 59 101q-45 31 -45 84q0 55 40 87.5t100 32.5zM680 285q0 18 -13.5 28
t-34.5 10q-48 0 -48 -38q0 -39 48 -39q21 0 34.5 10.5t13.5 28.5zM579 124q0 -22 14.5 -34t38.5 -12t38 12t14 34q0 21 -14.5 33t-37.5 12q-24 0 -38.5 -11.5t-14.5 -33.5z" />
    <glyph glyph-name="threeeighths" unicode="&#x215c;" horiz-adv-x="887" 
d="M231 535q90 -25 90 -114q0 -66 -41.5 -100.5t-113.5 -34.5q-116 0 -156 89l90 52q17 -47 66 -47q48 0 48 41q0 19 -14.5 29.5t-36.5 10.5h-19l-40 58l69 84h-145v97h275v-79zM598 700h90l-400 -700h-90zM713 414q60 0 100 -32.5t40 -87.5q0 -53 -45 -84q58 -34 58 -101
q0 -59 -42.5 -91t-110.5 -32t-111 32t-43 91q0 67 59 101q-45 31 -45 84q0 55 40 87.5t100 32.5zM761 285q0 18 -13.5 28t-34.5 10q-48 0 -48 -38q0 -39 48 -39q21 0 34.5 10.5t13.5 28.5zM660 124q0 -22 14.5 -34t38.5 -12t38 12t14 34q0 21 -14.5 33t-37.5 12
q-24 0 -38.5 -11.5t-14.5 -33.5z" />
    <glyph glyph-name="fiveeighths" unicode="&#x215d;" horiz-adv-x="873" 
d="M173 549q67 0 104.5 -34t37.5 -98q0 -62 -40 -96.5t-106 -34.5q-116 0 -156 89l88 50q18 -47 65 -47q51 0 51 41q0 21 -14 32t-37 11h-128l16 238h242v-97h-152l-4 -54h33zM584 700h90l-400 -700h-90zM699 414q60 0 100 -32.5t40 -87.5q0 -53 -45 -84q58 -34 58 -101
q0 -59 -42.5 -91t-110.5 -32t-111 32t-43 91q0 67 59 101q-45 31 -45 84q0 55 40 87.5t100 32.5zM747 285q0 18 -13.5 28t-34.5 10q-48 0 -48 -38q0 -39 48 -39q21 0 34.5 10.5t13.5 28.5zM646 124q0 -22 14.5 -34t38.5 -12t38 12t14 34q0 21 -14.5 33t-37.5 12
q-24 0 -38.5 -11.5t-14.5 -33.5z" />
    <glyph glyph-name="seveneighths" unicode="&#x215e;" horiz-adv-x="834" 
d="M3 603v97h276v-82l-126 -318h-111l121 303h-160zM545 700h90l-400 -700h-90zM660 414q60 0 100 -32.5t40 -87.5q0 -53 -45 -84q58 -34 58 -101q0 -59 -42.5 -91t-110.5 -32t-111 32t-43 91q0 67 59 101q-45 31 -45 84q0 55 40 87.5t100 32.5zM708 285q0 18 -13.5 28
t-34.5 10q-48 0 -48 -38q0 -39 48 -39q21 0 34.5 10.5t13.5 28.5zM607 124q0 -22 14.5 -34t38.5 -12t38 12t14 34q0 21 -14.5 33t-37.5 12q-24 0 -38.5 -11.5t-14.5 -33.5z" />
    <glyph glyph-name="arrowleft" unicode="&#x2190;" horiz-adv-x="798" 
d="M753 412v-124h-475l238 -238h-171l-300 300l300 300h171l-238 -238h475z" />
    <glyph glyph-name="arrowup" unicode="&#x2191;" horiz-adv-x="690" 
d="M410 0h-129v465l-236 -236v171l300 300l300 -300v-171l-235 235v-464z" />
    <glyph glyph-name="arrowright" unicode="&#x2192;" horiz-adv-x="798" 
d="M45 288v124h475l-238 238h171l300 -300l-300 -300h-171l238 238h-475z" />
    <glyph glyph-name="arrowdown" unicode="&#x2193;" horiz-adv-x="690" 
d="M281 700h129v-464l235 235v-171l-300 -300l-300 300v171l236 -236v465z" />
    <glyph glyph-name="arrowboth" unicode="&#x2194;" horiz-adv-x="1085" 
d="M768 623l272 -273l-272 -272h-168l208 210h-533l210 -210h-168l-272 272l272 273h168l-210 -211h535l-210 211h168z" />
    <glyph glyph-name="arrowupdn" unicode="&#x2195;" horiz-adv-x="635" 
d="M590 407l-208 209v-531l208 208v-168l-272 -273l-273 273v168l208 -207v529l-208 -208v168l273 273l272 -273v-168z" />
    <glyph glyph-name="uni2196" unicode="&#x2196;" horiz-adv-x="643" 
d="M45 613h424l121 -120h-337l345 -345l-87 -88l-345 344v-335l-121 120v424z" />
    <glyph glyph-name="uni2197" unicode="&#x2197;" horiz-adv-x="643" 
d="M598 613v-424l-120 -120v336l-345 -345l-88 88l345 345h-336l120 120h424z" />
    <glyph glyph-name="uni2198" unicode="&#x2198;" horiz-adv-x="643" 
d="M598 73h-424l-120 120h336l-345 345l88 88l345 -345v336l120 -120v-424z" />
    <glyph glyph-name="uni2199" unicode="&#x2199;" horiz-adv-x="643" 
d="M45 73v424l121 120v-335l345 344l87 -88l-345 -345h337l-121 -120h-424z" />
    <glyph glyph-name="partialdiff" unicode="&#x2202;" horiz-adv-x="584" 
d="M43 200q0 104 62 169t164 65q76 0 138 -40q-10 89 -55.5 143t-127.5 55q-57 1 -115 -32v118q56 36 131 36q122 0 210.5 -101.5t88.5 -262.5q0 -158 -72.5 -261t-206.5 -103q-97 0 -157 59.5t-60 154.5zM172 204q0 -43 25.5 -69.5t67.5 -26.5q33 0 59 14.5t42.5 40
t26.5 55.5t14 66q-51 36 -120 36q-52 0 -83.5 -31.5t-31.5 -84.5z" />
    <glyph glyph-name="emptyset" unicode="&#x2205;" horiz-adv-x="804" 
d="M764 350q0 -150 -106 -256t-256 -106q-104 0 -192 55l-50 -63h-107l92 115q-105 107 -105 255q0 150 106 256t256 106q104 0 192 -55l50 63h108l-92 -116q104 -106 104 -254zM402 624q-113 0 -192.5 -80.5t-79.5 -193.5q0 -106 71 -185l337 423q-61 36 -136 36zM402 76
q113 0 192.5 80.5t79.5 193.5q0 107 -70 185l-338 -423q63 -36 136 -36z" />
    <glyph glyph-name="product" unicode="&#x220f;" horiz-adv-x="640" 
d="M65 -200v900h510v-900h-129v776h-252v-776h-129z" />
    <glyph glyph-name="summation" unicode="&#x2211;" horiz-adv-x="563" 
d="M35 -200v110l213 350l-198 329v111h460v-124h-308l191 -316l-205 -336h337v-124h-490z" />
    <glyph glyph-name="minus" unicode="&#x2212;" horiz-adv-x="555" 
d="M53 290v121h450v-121h-450z" />
    <glyph glyph-name="radical" unicode="&#x221a;" horiz-adv-x="676" 
d="M45 199v124h176l100 -173l218 650h132l-277 -800h-125l-122 199h-102z" />
    <glyph glyph-name="infinity" unicode="&#x221e;" horiz-adv-x="808" 
d="M51 350q0 77 51.5 126t130.5 49q86 0 171 -87q85 87 171 87q78 0 129.5 -49t51.5 -126t-51.5 -126t-129.5 -49q-86 0 -171 87q-85 -87 -171 -87q-79 0 -130.5 49t-51.5 126zM180 350q0 -25 17 -42t42 -17q43 0 89 59q-46 59 -89 59q-25 0 -42 -17t-17 -42zM628 350
q0 25 -17 42t-42 17q-43 0 -89 -59q46 -59 89 -59q13 0 23.5 4.5t18.5 12.5t12.5 19t4.5 23z" />
    <glyph glyph-name="integral" unicode="&#x222b;" horiz-adv-x="441" 
d="M0 -204v129q42 -19 71 -0.5t36 56.5l95 561q16 97 76 142t163 18v-128q-34 17 -68 2.5t-41 -58.5l-96 -562q-16 -96 -75.5 -141.5t-160.5 -18.5z" />
    <glyph glyph-name="approxequal" unicode="&#x2248;" horiz-adv-x="569" 
d="M289 379q-49 23 -80 27.5t-46.5 -2.5t-34.5 -27l-83 28q53 198 235 114q30 -14 49 -21t38.5 -7.5t32 12.5t19.5 40l105 -51q-13 -57 -43.5 -92t-79 -44t-112.5 23zM150 157l-105 51q13 57 43.5 92.5t79 44t112.5 -23.5q48 -23 80 -27q31 -4 46 2.5t35 26.5l83 -28
q-53 -197 -235 -114q-30 14 -49 21t-38.5 7.5t-32 -12.5t-19.5 -40z" />
    <glyph glyph-name="notequal" unicode="&#x2260;" horiz-adv-x="525" 
d="M480 393h-158l-39 -86h197v-121h-251l-59 -131h-80l59 131h-104v121h158l39 86h-197v121h251l59 131h80l-59 -131h104v-121z" />
    <glyph glyph-name="lessequal" unicode="&#x2264;" horiz-adv-x="528" 
d="M483 653v-134l-289 -90l289 -89v-134l-438 166v114zM45 55v121h438v-121h-438z" />
    <glyph glyph-name="greaterequal" unicode="&#x2265;" horiz-adv-x="528" 
d="M45 653l438 -167v-114l-438 -166v134l289 89l-289 90v134zM45 55v121h438v-121h-438z" />
    <glyph glyph-name="lozenge" unicode="&#x25ca;" horiz-adv-x="555" 
d="M229 0l-186 350l186 350h98l186 -350l-186 -350h-98zM278 170l95 180l-95 180l-96 -180z" />
    <glyph glyph-name="i.loclTRK" horiz-adv-x="247" 
d="M200 629q0 -31 -23 -54.5t-54 -23.5q-32 0 -55 23t-23 55t23 54.5t55 22.5q31 0 54 -23t23 -54zM59 0v500h129v-500h-129z" />
    <glyph glyph-name="f_f_j" horiz-adv-x="834" 
d="M605 600q-54 0 -80 -18.5t-26 -66.5v-15h276v-510q0 -110 -53.5 -160.5t-163.5 -43.5v124q46 -3 67 16t21 64v386h-147v-376h-129v376h-148v-376h-129v376h-72v124h72v5q0 109 60.5 162.5t174.5 46.5v-124q-106 8 -106 -85v-5h148v15q0 209 235 209q54 0 118 -14v-118
q-69 8 -118 8z" />
    <glyph glyph-name="f_j" horiz-adv-x="557" 
d="M328 590q-36 0 -58.5 -7t-35 -26t-12.5 -52v-5h276v-510q0 -110 -53.5 -160.5t-164.5 -43.5v124q46 -3 67.5 16t21.5 64v386h-147v-376h-129v376h-72v124h72v5q0 209 235 209q53 0 117 -14v-118q-67 8 -117 8z" />
    <glyph glyph-name="uni0414.loclBGR" horiz-adv-x="730" 
d="M713 132v-266h-138v134h-420v-134h-137v266h79l183 568h171l183 -568h79zM241 132h248l-124 412z" />
    <glyph glyph-name="uni041B.loclBGR" horiz-adv-x="647" 
d="M238 700h171l236 -700h-151l-170 538l-171 -538h-150z" />
    <glyph glyph-name="uni0424.loclBGR" horiz-adv-x="859" 
d="M495 708q148 -17 240 -112t92 -246t-92 -246t-240 -112v-92h-130v92q-148 17 -240 112t-92 246t92 246t240 112v92h130v-92zM365 582q-93 -15 -144 -73t-51 -159t51 -159t144 -72v463zM495 119q93 15 143.5 72.5t50.5 158.5t-50.5 159t-143.5 73v-463z" />
    <glyph glyph-name="uni0414.ss01" horiz-adv-x="705" 
d="M603 132h75v-132h-663v132h68q58 81 58 237v331h462v-568zM465 132v439h-186v-204q0 -152 -48 -235h234z" />
    <glyph glyph-name="uni0426.ss01" horiz-adv-x="690" 
d="M588 132h75v-132h-598v700h138v-568h247v568h138v-568z" />
    <glyph glyph-name="uni0429.ss01" horiz-adv-x="980" 
d="M878 132h75v-132h-888v700h138v-568h200v568h137v-568h200v568h138v-568z" />
    <glyph glyph-name="uni0414.loclBGR.ss01" horiz-adv-x="730" 
d="M713 132v-132h-695v132h79l183 568h171l183 -568h79zM241 132h248l-124 412z" />
    <glyph glyph-name="uni0432.loclBGR" horiz-adv-x="566" 
d="M286 714q85 0 140 -47t55 -127q0 -68 -62 -131q115 -47 115 -195q0 -108 -63.5 -168t-174.5 -60q-108 0 -172.5 67t-64.5 176v238q0 109 61.5 178t165.5 69zM355 525q0 21 -8.5 36t-24 23.5t-36.5 8.5q-47 0 -72.5 -36t-25.5 -90v-58l47 10q35 7 61 8q59 47 59 98z
M188 229q0 -54 28.5 -86t79.5 -32t80 26.5t29 76.5q0 60 -47.5 81.5t-122.5 6.5l-47 -10v-63z" />
    <glyph glyph-name="uni0433.loclBGR" horiz-adv-x="465" 
d="M230 514q52 0 94 -18.5t68 -55t26 -85.5q0 -32 -9.5 -56t-29 -40.5t-39 -26t-48.5 -19.5q-13 -4 -36.5 -9.5t-41 -11.5t-30.5 -14q-18 -12 -18 -29q0 -46 69 -46q76 0 98 67l112 -64q-56 -120 -210 -120q-86 0 -143.5 41.5t-57.5 118.5q0 37 13 65t38.5 45.5t50.5 27.5
t61 20q20 5 29 7.5t26.5 9.5t25.5 16t8 21q0 20 -16 30.5t-40 10.5q-56 0 -82 -52l-109 60q27 48 76.5 77.5t114.5 29.5z" />
    <glyph glyph-name="uni0434.loclBGR" 
d="M33 258q0 105 72.5 180.5t176.5 75.5q103 0 160 -76v62h126v-476q0 -116 -76.5 -177t-184.5 -61q-84 0 -144.5 32t-92.5 90l110 63q38 -70 131 -70q61 0 96 32t35 91v54q-57 -76 -160 -76q-105 0 -177 75t-72 181zM302 121q61 0 100.5 38.5t39.5 98.5q0 59 -40 97.5
t-100 38.5t-100 -38.5t-40 -97.5q0 -60 39.5 -98.5t100.5 -38.5z" />
    <glyph glyph-name="uni0436.loclBGR" horiz-adv-x="746" 
d="M436 0h-126v223l-153 -223h-144l180 253l-170 247h144l143 -216v416h126v-416l143 216h145l-171 -247l181 -253h-145l-153 223v-223z" />
    <glyph glyph-name="uni0438.loclBGR" horiz-adv-x="577" 
d="M279 106q53 0 81.5 33t28.5 91v270h129v-500h-129v56q-47 -70 -149 -70q-86 0 -137.5 57.5t-51.5 149.5v307h129v-291q0 -48 26 -75.5t73 -27.5z" />
    <glyph glyph-name="uni0439.loclBGR" horiz-adv-x="577" 
d="M429 676v-112h-290v112h290zM279 106q53 0 81.5 33t28.5 91v270h129v-500h-129v56q-47 -70 -149 -70q-86 0 -137.5 57.5t-51.5 149.5v307h129v-291q0 -48 26 -75.5t73 -27.5z" />
    <glyph glyph-name="uni043A.loclBGR" horiz-adv-x="525" 
d="M188 0h-129v700h129v-420l172 220h154l-201 -247l207 -253h-150l-182 227v-227z" />
    <glyph glyph-name="uni043B.loclBGR" horiz-adv-x="533" 
d="M530 0h-142l-122 350l-121 -350h-142l190 500h147z" />
    <glyph glyph-name="uni043F.loclBGR" horiz-adv-x="577" 
d="M298 394q-53 0 -81.5 -33t-28.5 -91v-270h-129v500h129v-56q47 70 149 70q86 0 137.5 -57.5t51.5 -149.5v-307h-129v291q0 48 -26 75.5t-73 27.5z" />
    <glyph glyph-name="uni0442.loclBGR" horiz-adv-x="852" 
d="M282 394q-46 0 -70 -30.5t-24 -82.5v-281h-129v500h129v-53q45 67 139 67q92 0 136 -72q50 72 149 72q87 0 138 -57t51 -149v-308h-129v299q0 44 -21.5 69.5t-62.5 25.5q-46 0 -69.5 -30.5t-23.5 -82.5v-281h-129v299q0 44 -21.5 69.5t-62.5 25.5z" />
    <glyph glyph-name="uni0446.loclBGR" horiz-adv-x="616" 
d="M279 106q53 0 81.5 33t28.5 91v270h129v-347q0 -32 32 -32h43v-255h-126v144q-41 17 -62 55q-51 -79 -165 -79q-86 0 -137.5 58t-51.5 149v307h129v-290q0 -48 26.5 -76t72.5 -28z" />
    <glyph glyph-name="uni0448.loclBGR" horiz-adv-x="852" 
d="M570 106q46 0 70 30.5t24 82.5v281h129v-500h-129v53q-45 -67 -139 -67q-92 0 -136 72q-50 -72 -149 -72q-87 0 -138 57t-51 149v308h129v-299q0 -44 21.5 -69.5t62.5 -25.5q46 0 69.5 30.5t23.5 82.5v281h129v-299q0 -44 21.5 -69.5t62.5 -25.5z" />
    <glyph glyph-name="uni0449.loclBGR" horiz-adv-x="891" 
d="M570 106q46 0 70 30.5t24 82.5v281h129v-347q0 -32 32 -32h43v-255h-126v144q-39 15 -59 50q-50 -74 -150 -74q-98 0 -144 73q-49 -73 -149 -73q-87 0 -138 57t-51 149v308h129v-298q0 -44 21.5 -70t62.5 -26q46 0 69.5 30.5t23.5 82.5v281h129v-298q0 -44 21.5 -70
t62.5 -26z" />
    <glyph glyph-name="uni044C.loclBGR" horiz-adv-x="493" 
d="M261 -14q-96 0 -153 53.5t-57 146.5v314h126v-139h91q95 0 149 -46.5t54 -135.5q0 -85 -60.5 -139t-149.5 -54zM177 186q0 -35 23.5 -56.5t60.5 -21.5q33 0 58.5 21t25.5 51q0 32 -21 49.5t-56 17.5h-91v-61z" />
    <glyph glyph-name="uni044A.loclBGR" horiz-adv-x="579" 
d="M346 -14q-96 0 -153 53.5t-57 146.5v193h-136v121h262v-139h92q95 0 148.5 -46.5t53.5 -135.5q0 -85 -60.5 -139t-149.5 -54zM262 186q0 -35 23.5 -56.5t60.5 -21.5q33 0 58.5 21t25.5 51q0 31 -21 49t-55 18h-92v-61z" />
    <glyph glyph-name="uni044E.loclBGR" horiz-adv-x="811" 
d="M261 311q19 86 88.5 144.5t164.5 58.5q110 0 187.5 -77t77.5 -187t-77.5 -187t-187.5 -77q-96 0 -165.5 58.5t-88.5 145.5h-72v-190h-129v700h129v-389h73zM379 250q0 -59 38.5 -98.5t96.5 -39.5t97 39.5t39 98.5t-39 98.5t-97 39.5t-96.5 -39.5t-38.5 -98.5z" />
    <glyph glyph-name="zero.sinf" horiz-adv-x="409" 
d="M386 40q0 -94 -48 -154t-134 -60t-133.5 60t-47.5 154t47.5 154t133.5 60t134 -60t48 -154zM204 -67q72 0 72 107t-72 107q-71 0 -71 -107t71 -107z" />
    <glyph glyph-name="one.sinf" horiz-adv-x="265" 
d="M217 240v-400h-107v292l-82 -23l-25 88l120 43h94z" />
    <glyph glyph-name="two.sinf" horiz-adv-x="349" 
d="M169 254q62 0 105 -35t43 -91q0 -61 -68 -129l-65 -62h139v-97h-299v70l150 149q35 33 35 61q0 17 -11.5 26.5t-29.5 9.5q-41 0 -62 -51l-87 50q42 99 150 99z" />
    <glyph glyph-name="three.sinf" horiz-adv-x="345" 
d="M231 75q90 -25 90 -114q0 -66 -41.5 -100.5t-113.5 -34.5q-116 0 -156 89l90 52q17 -47 66 -47q48 0 48 41q0 19 -14.5 29.5t-36.5 10.5h-19l-40 58l69 84h-145v97h275v-79z" />
    <glyph glyph-name="four.sinf" horiz-adv-x="357" 
d="M341 2v-98h-41v-64h-102v64h-187v98l129 238h114l-123 -238h67v69h102v-69h41z" />
    <glyph glyph-name="five.sinf" horiz-adv-x="336" 
d="M218 -41q0 21 -14 32t-37 11h-128l16 238h242v-97h-152l-4 -54h33q67 0 104.5 -34t37.5 -98q0 -62 -40 -96.5t-106 -34.5q-116 0 -156 89l88 50q18 -47 65 -47q51 0 51 41z" />
    <glyph glyph-name="six.sinf" horiz-adv-x="340" 
d="M185 110q61 -4 100 -42t39 -99q0 -64 -43.5 -103.5t-110.5 -39.5t-110.5 39.5t-43.5 103.5q0 40 19 73l125 198h110zM116 -31q0 -24 15 -38.5t39 -14.5q25 0 40 14t15 39q0 24 -15 37.5t-40 13.5t-39.5 -13.5t-14.5 -37.5z" />
    <glyph glyph-name="seven.sinf" horiz-adv-x="295" 
d="M3 240h276v-82l-126 -318h-111l121 303h-160v97z" />
    <glyph glyph-name="eight.sinf" horiz-adv-x="349" 
d="M175 254q60 0 100 -32.5t40 -87.5q0 -53 -45 -84q58 -34 58 -101q0 -59 -42.5 -91t-110.5 -32t-111 32t-43 91q0 67 59 101q-45 31 -45 84q0 55 40 87.5t100 32.5zM223 125q0 18 -13.5 28t-34.5 10q-48 0 -48 -38q0 -39 48 -39q21 0 34.5 10.5t13.5 28.5zM122 -36
q0 -22 14.5 -34t38.5 -12t38 12t14 34q0 21 -14.5 33t-37.5 12q-24 0 -38.5 -11.5t-14.5 -33.5z" />
    <glyph glyph-name="nine.sinf" horiz-adv-x="340" 
d="M170 254q67 0 110.5 -39.5t43.5 -103.5q0 -40 -19 -73l-124 -198h-111l85 130q-60 4 -99.5 42.5t-39.5 98.5q0 64 43.5 103.5t110.5 39.5zM170 164q-24 0 -39 -14.5t-15 -38.5t14.5 -37.5t39.5 -13.5t40 13.5t15 37.5q0 25 -15 39t-40 14z" />
    <glyph glyph-name="zero.tf" horiz-adv-x="578" 
d="M289 -14q-92 0 -156.5 50t-94 130.5t-29.5 183.5t29.5 183.5t94 130.5t156.5 50q136 0 208 -103t72 -261t-72 -261t-208 -103zM289 121q142 0 142 229q0 230 -142 230q-143 0 -143 -230q0 -229 143 -229z" />
    <glyph glyph-name="one.tf" horiz-adv-x="578" 
d="M369 132h190v-132h-530v132h202v422l-132 -37l-34 118l184 65h120v-568z" />
    <glyph glyph-name="two.tf" horiz-adv-x="578" 
d="M283 714q104 0 173.5 -62.5t69.5 -161.5q0 -66 -36 -122t-107 -119l-132 -116h287v-133h-504v103l255 231q49 44 74.5 78t25.5 70q0 45 -29.5 71.5t-77.5 26.5q-83 0 -130 -91l-116 68q34 71 97 114t150 43z" />
    <glyph glyph-name="three.tf" horiz-adv-x="578" 
d="M380 424q76 -21 122.5 -72t46.5 -132q0 -108 -72.5 -171t-186.5 -63q-101 0 -168.5 43t-99.5 121l118 68q33 -97 143 -97q58 0 93 25t35 74t-35 74t-93 25h-28l-55 81l144 171h-300v129h473v-114z" />
    <glyph glyph-name="four.tf" horiz-adv-x="578" 
d="M561 247v-128h-75v-119h-139v119h-338v128l232 453h148l-232 -453h190v161h139v-161h75z" />
    <glyph glyph-name="five.tf" horiz-adv-x="578" 
d="M411 216q0 47 -33.5 71t-88.5 24h-225l28 389h424v-129h-298l-10 -126h88q112 0 182.5 -61t70.5 -168q0 -105 -72.5 -167.5t-183.5 -62.5q-101 0 -169 43t-100 121l118 68q33 -97 147 -97q56 0 89 23.5t33 71.5z" />
    <glyph glyph-name="six.tf" horiz-adv-x="578" 
d="M291 480q118 -1 191.5 -68t73.5 -179q0 -113 -75 -180t-195 -67t-195 67t-75 180q0 93 53 158l222 309h159zM154 233q0 -56 36 -86.5t96 -30.5t96.5 30.5t36.5 86.5t-36.5 87t-96.5 31q-39 0 -68.5 -13.5t-46.5 -40t-17 -64.5z" />
    <glyph glyph-name="seven.tf" horiz-adv-x="578" 
d="M25 700h520v-117l-265 -583h-145l256 568h-366v132z" />
    <glyph glyph-name="eight.tf" horiz-adv-x="578" 
d="M289 714q34 0 65.5 -6t58.5 -17.5t49.5 -29t38.5 -40t25 -51t9 -61.5q0 -92 -79 -145q103 -58 103 -169q0 -102 -75.5 -155.5t-194.5 -53.5t-194.5 53.5t-75.5 155.5q0 111 103 169q-79 52 -79 145q0 97 69.5 151t176.5 54zM398 501.5q0 40.5 -30.5 61.5t-78.5 21
t-78.5 -21t-30.5 -61.5t30.5 -61.5t78.5 -21t78.5 21t30.5 61.5zM156 213q0 -49 36.5 -73t96.5 -24t96.5 24t36.5 73q0 25 -10 44t-28.5 30t-42 16.5t-52.5 5.5q-60 0 -96.5 -23.5t-36.5 -72.5z" />
    <glyph glyph-name="nine.tf" horiz-adv-x="578" 
d="M291 714q120 0 195 -66.5t75 -180.5q0 -86 -45 -148l-229 -319h-159l159 220q-118 1 -192 67.5t-74 179.5t75 180t195 67zM291 584q-60 0 -96 -30.5t-36 -86.5t36 -86.5t96 -30.5q61 0 97 30t36 87q0 38 -17 64.5t-46.5 39.5t-69.5 13z" />
    <glyph glyph-name="zero.dnom" horiz-adv-x="409" 
d="M386 200q0 -94 -48 -154t-134 -60t-133.5 60t-47.5 154t47.5 154t133.5 60t134 -60t48 -154zM133 200q0 -107 71 -107q72 0 72 107t-72 107q-71 0 -71 -107z" />
    <glyph glyph-name="one.dnom" horiz-adv-x="267" 
d="M217 400v-400h-107v292l-82 -23l-25 88l120 43h94z" />
    <glyph glyph-name="two.dnom" horiz-adv-x="356" 
d="M169 414q62 0 105 -35t43 -91q0 -61 -68 -129l-65 -62h139v-97h-299v70l150 149q35 33 35 61q0 17 -11.5 26.5t-29.5 9.5q-41 0 -62 -51l-87 50q42 99 150 99z" />
    <glyph glyph-name="three.dnom" horiz-adv-x="348" 
d="M231 235q90 -25 90 -114q0 -66 -41.5 -100.5t-113.5 -34.5q-116 0 -156 89l90 52q17 -47 66 -47q48 0 48 41q0 19 -14.5 29.5t-36.5 10.5h-19l-40 58l69 84h-145v97h275v-79z" />
    <glyph glyph-name="four.dnom" horiz-adv-x="357" 
d="M341 162v-98h-41v-64h-102v64h-187v98l129 238h114l-123 -238h67v69h102v-69h41z" />
    <glyph glyph-name="five.dnom" horiz-adv-x="334" 
d="M217 119q0 21 -14 32t-37 11h-128l16 238h242v-97h-152l-4 -54h33q67 0 104.5 -34t37.5 -98q0 -62 -40 -96.5t-106 -34.5q-116 0 -156 89l88 50q18 -47 65 -47q51 0 51 41z" />
    <glyph glyph-name="six.dnom" horiz-adv-x="340" 
d="M185 270q61 -4 100 -42t39 -99q0 -64 -43.5 -103.5t-110.5 -39.5t-110.5 39.5t-43.5 103.5q0 40 19 73l125 198h110zM116 129q0 -24 15 -38.5t39 -14.5q25 0 40 14t15 39q0 24 -15 37.5t-40 13.5t-39.5 -13.5t-14.5 -37.5z" />
    <glyph glyph-name="seven.dnom" horiz-adv-x="295" 
d="M3 400h276v-82l-126 -318h-111l121 303h-160v97z" />
    <glyph glyph-name="eight.dnom" horiz-adv-x="349" 
d="M175 414q60 0 100 -32.5t40 -87.5q0 -53 -45 -84q58 -34 58 -101q0 -59 -42.5 -91t-110.5 -32t-111 32t-43 91q0 67 59 101q-45 31 -45 84q0 55 40 87.5t100 32.5zM223 285q0 18 -13.5 28t-34.5 10q-48 0 -48 -38q0 -39 48 -39q21 0 34.5 10.5t13.5 28.5zM122 124
q0 -22 14.5 -34t38.5 -12t38 12t14 34q0 21 -14.5 33t-37.5 12q-24 0 -38.5 -11.5t-14.5 -33.5z" />
    <glyph glyph-name="nine.dnom" horiz-adv-x="340" 
d="M170 414q67 0 110.5 -39.5t43.5 -103.5q0 -40 -19 -73l-124 -198h-111l85 130q-60 4 -99.5 42.5t-39.5 98.5q0 64 43.5 103.5t110.5 39.5zM170 324q-24 0 -39 -14.5t-15 -38.5t14.5 -37.5t39.5 -13.5t40 13.5t15 37.5q0 25 -15 39t-40 14z" />
    <glyph glyph-name="zero.numr" horiz-adv-x="409" 
d="M386 500q0 -94 -48 -154t-134 -60t-133.5 60t-47.5 154t47.5 154t133.5 60t134 -60t48 -154zM133 500q0 -107 71 -107q72 0 72 107t-72 107q-71 0 -71 -107z" />
    <glyph glyph-name="one.numr" horiz-adv-x="267" 
d="M217 700v-400h-107v292l-82 -23l-25 88l120 43h94z" />
    <glyph glyph-name="two.numr" horiz-adv-x="356" 
d="M169 714q62 0 105 -35t43 -91q0 -61 -68 -129l-65 -62h139v-97h-299v70l150 149q35 33 35 61q0 17 -11.5 26.5t-29.5 9.5q-41 0 -62 -51l-87 50q42 99 150 99z" />
    <glyph glyph-name="three.numr" horiz-adv-x="348" 
d="M231 535q90 -25 90 -114q0 -66 -41.5 -100.5t-113.5 -34.5q-116 0 -156 89l90 52q17 -47 66 -47q48 0 48 41q0 19 -14.5 29.5t-36.5 10.5h-19l-40 58l69 84h-145v97h275v-79z" />
    <glyph glyph-name="four.numr" horiz-adv-x="357" 
d="M341 462v-98h-41v-64h-102v64h-187v98l129 238h114l-123 -238h67v69h102v-69h41z" />
    <glyph glyph-name="five.numr" horiz-adv-x="334" 
d="M217 419q0 21 -14 32t-37 11h-128l16 238h242v-97h-152l-4 -54h33q67 0 104.5 -34t37.5 -98q0 -62 -40 -96.5t-106 -34.5q-116 0 -156 89l88 50q18 -47 65 -47q51 0 51 41z" />
    <glyph glyph-name="six.numr" horiz-adv-x="340" 
d="M185 570q61 -4 100 -42t39 -99q0 -64 -43.5 -103.5t-110.5 -39.5t-110.5 39.5t-43.5 103.5q0 40 19 73l125 198h110zM116 429q0 -24 15 -38.5t39 -14.5q25 0 40 14t15 39q0 24 -15 37.5t-40 13.5t-39.5 -13.5t-14.5 -37.5z" />
    <glyph glyph-name="seven.numr" horiz-adv-x="295" 
d="M3 700h276v-82l-126 -318h-111l121 303h-160v97z" />
    <glyph glyph-name="eight.numr" horiz-adv-x="349" 
d="M175 714q60 0 100 -32.5t40 -87.5q0 -53 -45 -84q58 -34 58 -101q0 -59 -42.5 -91t-110.5 -32t-111 32t-43 91q0 67 59 101q-45 31 -45 84q0 55 40 87.5t100 32.5zM223 585q0 18 -13.5 28t-34.5 10q-48 0 -48 -38q0 -39 48 -39q13 0 24 4.5t17.5 13.5t6.5 21zM122 424
q0 -15 7 -25.5t18.5 -15.5t27.5 -5q24 0 38 12t14 34q0 14 -7 24.5t-18.5 15.5t-26.5 5q-24 0 -38.5 -11.5t-14.5 -33.5z" />
    <glyph glyph-name="nine.numr" horiz-adv-x="340" 
d="M170 714q67 0 110.5 -39.5t43.5 -103.5q0 -40 -19 -73l-124 -198h-111l85 130q-60 4 -99.5 42.5t-39.5 98.5q0 64 43.5 103.5t110.5 39.5zM170 624q-24 0 -39 -14.5t-15 -38.5t14.5 -37.5t39.5 -13.5t40 13.5t15 37.5q0 25 -15 39t-40 14z" />
    <glyph glyph-name="zero.sups" horiz-adv-x="409" 
d="M386 660q0 -94 -48 -154t-134 -60t-133.5 60t-47.5 154t47.5 154t133.5 60t134 -60t48 -154zM133 660q0 -107 71 -107q72 0 72 107t-72 107q-71 0 -71 -107z" />
    <glyph glyph-name="one.sups" horiz-adv-x="267" 
d="M217 860v-400h-107v292l-82 -23l-25 88l120 43h94z" />
    <glyph glyph-name="two.sups" horiz-adv-x="356" 
d="M169 874q62 0 105 -35t43 -91q0 -61 -68 -129l-65 -62h139v-97h-299v70l150 149q35 33 35 61q0 17 -11.5 26.5t-29.5 9.5q-41 0 -62 -51l-87 50q42 99 150 99z" />
    <glyph glyph-name="three.sups" horiz-adv-x="348" 
d="M231 695q90 -25 90 -114q0 -66 -41.5 -100.5t-113.5 -34.5q-116 0 -156 89l90 52q17 -47 66 -47q48 0 48 41q0 19 -14.5 29.5t-36.5 10.5h-19l-40 58l69 84h-145v97h275v-79z" />
    <glyph glyph-name="four.sups" horiz-adv-x="357" 
d="M341 622v-98h-41v-64h-102v64h-187v98l129 238h114l-123 -238h67v69h102v-69h41z" />
    <glyph glyph-name="five.sups" horiz-adv-x="334" 
d="M217 579q0 21 -14 32t-37 11h-128l16 238h242v-97h-152l-4 -54h33q67 0 104.5 -34t37.5 -98q0 -62 -40 -96.5t-106 -34.5q-116 0 -156 89l88 50q18 -47 65 -47q51 0 51 41z" />
    <glyph glyph-name="six.sups" horiz-adv-x="340" 
d="M185 730q61 -4 100 -42t39 -99q0 -64 -43.5 -103.5t-110.5 -39.5t-110.5 39.5t-43.5 103.5q0 40 19 73l125 198h110zM116 589q0 -24 15 -38.5t39 -14.5q25 0 40 14t15 39q0 24 -15 37.5t-40 13.5t-39.5 -13.5t-14.5 -37.5z" />
    <glyph glyph-name="seven.sups" horiz-adv-x="295" 
d="M3 860h276v-82l-126 -318h-111l121 303h-160v97z" />
    <glyph glyph-name="eight.sups" horiz-adv-x="349" 
d="M175 874q60 0 100 -32.5t40 -87.5q0 -53 -45 -84q58 -34 58 -101q0 -59 -42.5 -91t-110.5 -32t-111 32t-43 91q0 67 59 101q-45 31 -45 84q0 55 40 87.5t100 32.5zM223 745q0 18 -13.5 28t-34.5 10q-48 0 -48 -38q0 -39 48 -39q13 0 24 4.5t17.5 13.5t6.5 21zM122 584
q0 -22 14.5 -34t38.5 -12q16 0 27.5 5t18 15.5t6.5 25.5q0 8 -2.5 15.5t-7 13t-11 9t-14.5 5.5t-17 2q-16 0 -27.5 -5t-18.5 -15t-7 -25z" />
    <glyph glyph-name="nine.sups" horiz-adv-x="340" 
d="M170 874q67 0 110.5 -39.5t43.5 -103.5q0 -40 -19 -73l-124 -198h-111l85 130q-60 4 -99.5 42.5t-39.5 98.5q0 64 43.5 103.5t110.5 39.5zM170 784q-24 0 -39 -14.5t-15 -38.5t14.5 -37.5t39.5 -13.5t40 13.5t15 37.5q0 25 -15 39t-40 14z" />
    <glyph glyph-name="cent.tf" horiz-adv-x="578" 
d="M543 216q-32 -57 -91 -93.5t-135 -36.5q-34 0 -61 7l-30 -93h-58l35 110q-66 30 -108 93t-42 147q0 112 76 188t188 76q27 0 48 -4l29 90h58l-34 -106q83 -33 123 -109l-111 -65q-17 35 -52 52l-82 -257q6 -1 20 -1q40 0 70.5 18t44.5 48zM316 487q-58 0 -96 -39t-38 -98
q0 -78 61 -116l82 253h-9z" />
    <glyph glyph-name="dollar.tf" horiz-adv-x="578" 
d="M339 408q5 -2 16 -6q28 -10 42.5 -16t39 -17.5t38 -21.5t31 -26t26 -33t15 -41t6.5 -52q0 -91 -59.5 -144t-154.5 -63v-88h-67v87q-92 6 -155.5 50t-91.5 118l119 69q36 -93 128 -105v174q-2 0 -6 2q-51 18 -79 31.5t-63 39.5q-68 50 -68 147q0 89 61.5 141.5t154.5 58.5
v87h67v-89q143 -19 199 -147l-116 -68q-25 66 -83 81v-169zM193 514q0 -25 17.5 -43t61.5 -37v148q-79 -7 -79 -68zM415 189q0 26 -17 42.5t-59 35.5v-148q76 11 76 70z" />
    <glyph glyph-name="Euro.tf" horiz-adv-x="578" 
d="M559 142q-27 -68 -82 -112t-133 -44q-57 0 -103 21.5t-77 59.5t-50 85.5t-27 104.5h-66v78h60v39h-60v77h68q9 55 28 101.5t49.5 83.5t76 57.5t101.5 20.5q76 0 130 -41t81 -106l-115 -66q-12 34 -36.5 56.5t-59.5 22.5q-92 0 -117 -129h174v-77h-182v-39h182v-78h-175
q23 -136 118 -136q37 0 63 25t39 61z" />
    <glyph glyph-name="florin.tf" horiz-adv-x="578" 
d="M555 576q-51 17 -82.5 1t-42.5 -57l-29 -106h122v-124h-156l-90 -331q-26 -95 -88.5 -140.5t-165.5 -19.5v128q100 -33 124 56l84 307h-119v124h152l36 131q26 94 89 140t166 20v-129z" />
    <glyph glyph-name="uni20BD.tf" horiz-adv-x="578" 
d="M555 468q0 -96 -68.5 -160.5t-167.5 -64.5h-96v-55h195v-88h-195v-100h-138v100h-75v88h75v55h-75v121h75v336h234q97 0 166.5 -68t69.5 -164zM418 468q0 43 -28.5 73t-70.5 30h-96v-207h96q42 0 70.5 30.5t28.5 73.5z" />
    <glyph glyph-name="sterling.tf" horiz-adv-x="578" 
d="M327 580q-26 0 -45.5 -11t-30 -31.5t-10.5 -47.5v-95h210v-121h-210v-141h327v-133h-538v133h73v141h-60v121h60v100q0 106 65.5 162.5t154.5 56.5q79 0 135 -40t82 -106l-118 -68q-26 80 -95 80z" />
    <glyph glyph-name="yen.tf" horiz-adv-x="578" 
d="M519 362v-80h-161v-45h161v-81h-161v-156h-138v156h-161v81h161v45h-161v80h134l-191 338h156l131 -252l131 252h156l-191 -338h134z" />
    <glyph glyph-name="brevecy" horiz-adv-x="360" 
d="M35 564v112h290v-112h-290z" />
    </font>
</defs>
</svg>
