<?xml version="1.0" encoding="utf-8"?>
<!-- Generator: Adobe Illustrator 16.0.0, SVG Export Plug-In . SVG Version: 6.00 Build 0)  -->
<!DOCTYPE svg PUBLIC "-//W3C//DTD SVG 1.1//EN" "http://www.w3.org/Graphics/SVG/1.1/DTD/svg11.dtd">
<svg version="1.1" id="Layer_1" xmlns="http://www.w3.org/2000/svg" xmlns:xlink="http://www.w3.org/1999/xlink" x="0px" y="0px"
	 width="114px" height="58px" viewBox="0 0 114 58" enable-background="new 0 0 114 58" xml:space="preserve">
<path fill="#969899" d="M91.009,11.008c-4.298,0-8.242,1.51-11.336,4.023c-3.095-2.514-7.039-4.023-11.336-4.023
	c-4.298,0-8.242,1.51-11.336,4.023c-3.094-2.514-7.038-4.023-11.336-4.023c-4.297,0-8.242,1.51-11.336,4.023
	c-3.094-2.514-7.038-4.023-11.336-4.023C13.055,11.008,5,19.063,5,29s8.055,17.992,17.992,17.992c4.298,0,8.242-1.51,11.336-4.023
	c3.094,2.514,7.039,4.023,11.336,4.023c4.298,0,8.242-1.51,11.336-4.023c3.095,2.514,7.039,4.023,11.336,4.023
	c4.297,0,8.241-1.51,11.336-4.023c3.094,2.514,7.038,4.023,11.336,4.023C100.945,46.992,109,38.937,109,29
	S100.945,11.008,91.009,11.008z M79.672,37.086c-1.629-2.28-2.591-5.07-2.591-8.086s0.962-5.806,2.591-8.086
	c1.63,2.28,2.591,5.07,2.591,8.086S81.302,34.806,79.672,37.086z M57,37.086c-1.629-2.28-2.591-5.07-2.591-8.086
	s0.962-5.806,2.591-8.086c1.629,2.28,2.591,5.07,2.591,8.086S58.629,34.806,57,37.086z M34.328,37.086
	c-1.629-2.28-2.591-5.07-2.591-8.086s0.962-5.806,2.591-8.086c1.629,2.28,2.591,5.07,2.591,8.086S35.958,34.806,34.328,37.086z
	 M9.064,29c0-7.692,6.236-13.928,13.928-13.928c3.19,0,6.128,1.075,8.477,2.88c-2.377,3.05-3.796,6.882-3.796,11.048
	s1.419,7.998,3.796,11.048c-2.349,1.804-5.286,2.879-8.477,2.879C15.3,42.927,9.064,36.691,9.064,29z M37.188,40.048
	c2.377-3.05,3.796-6.882,3.796-11.048s-1.419-7.998-3.796-11.048c2.348-1.805,5.286-2.88,8.477-2.88s6.128,1.075,8.477,2.88
	c-2.377,3.05-3.796,6.882-3.796,11.048s1.419,7.998,3.796,11.048c-2.348,1.804-5.286,2.879-8.477,2.879S39.536,41.852,37.188,40.048
	z M59.86,40.048c2.376-3.05,3.796-6.882,3.796-11.048s-1.42-7.998-3.796-11.048c2.348-1.805,5.286-2.88,8.477-2.88
	s6.128,1.075,8.477,2.88c-2.377,3.05-3.796,6.882-3.796,11.048s1.419,7.998,3.796,11.048c-2.348,1.804-5.286,2.879-8.477,2.879
	S62.208,41.852,59.86,40.048z M91.009,42.927c-3.19,0-6.128-1.075-8.477-2.879c2.376-3.05,3.796-6.882,3.796-11.048
	s-1.42-7.998-3.796-11.048c2.349-1.805,5.286-2.88,8.477-2.88c7.691,0,13.927,6.236,13.927,13.928S98.7,42.927,91.009,42.927z"/>
<rect fill="none" width="114" height="58"/>
</svg>
