<?xml version="1.0" encoding="utf-8"?>
<!-- Generator: Adobe Illustrator 16.0.0, SVG Export Plug-In . SVG Version: 6.00 Build 0)  -->
<!DOCTYPE svg PUBLIC "-//W3C//DTD SVG 1.1//EN" "http://www.w3.org/Graphics/SVG/1.1/DTD/svg11.dtd">
<svg version="1.1" id="Layer_1" xmlns="http://www.w3.org/2000/svg" xmlns:xlink="http://www.w3.org/1999/xlink" x="0px" y="0px"
	 width="66px" height="50px" viewBox="0 0 66 50" enable-background="new 0 0 66 50" xml:space="preserve">
<g>
	<path fill="none" stroke="#257EFF" stroke-linecap="round" stroke-linejoin="round" stroke-miterlimit="10" d="M33.011,34.126
		L33.011,34.126c-9.147,0-16.511-7.416-16.511-16.563V2.584c0-0.705,0.273-1.084,0.986-1.084h31.022
		c0.712,0,0.992,0.379,0.992,1.084v15.104C49.5,26.835,42.158,34.126,33.011,34.126z"/>
	<path fill="none" stroke="#257EFF" stroke-linecap="round" stroke-linejoin="round" stroke-miterlimit="10" d="M16.487,10.537
		H10.07c-0.617,0-1.106,0.562-1.068,1.238C9.279,16.633,11.754,34.126,33,34.126"/>
	<path fill="none" stroke="#257EFF" stroke-linecap="round" stroke-linejoin="round" stroke-miterlimit="10" d="M49.513,10.537
		h6.417c0.617,0,1.106,0.562,1.068,1.238C56.721,16.633,54.246,34.126,33,34.126"/>
	
		<line fill="none" stroke="#257EFF" stroke-linecap="round" stroke-linejoin="round" stroke-miterlimit="10" x1="29.5" y1="41" x2="29.5" y2="34"/>
	
		<line fill="none" stroke="#257EFF" stroke-linecap="round" stroke-linejoin="round" stroke-miterlimit="10" x1="36.5" y1="34" x2="36.5" y2="41"/>
	<path fill="none" stroke="#257EFF" stroke-linecap="round" stroke-linejoin="round" stroke-miterlimit="10" d="M45.167,41.5h-24.34
		c-0.647,0-1.326,0.094-1.326,0.741v3.585c0,0.649,0.679,1.674,1.326,1.674h24.34c0.648,0,1.333-1.024,1.333-1.674v-3.585
		C46.5,41.594,45.814,41.5,45.167,41.5z"/>
	<path fill="none" stroke="#257EFF" stroke-linecap="round" stroke-linejoin="round" stroke-miterlimit="10" d="M33.985,10.673
		l1.187,2.406c0.16,0.325,0.469,0.551,0.827,0.602l2.655,0.386c0.902,0.131,1.261,1.239,0.609,1.874l-1.922,1.873
		c-0.259,0.251-0.376,0.615-0.315,0.974l0.453,2.643c0.155,0.897-0.787,1.582-1.592,1.158l-2.376-1.25
		c-0.321-0.167-0.702-0.167-1.021,0l-2.375,1.25c-0.807,0.424-1.749-0.261-1.595-1.158l0.454-2.643
		c0.061-0.358-0.057-0.723-0.315-0.974l-1.922-1.873c-0.652-0.635-0.292-1.743,0.609-1.874L30,13.681
		c0.358-0.051,0.667-0.276,0.827-0.602l1.188-2.406C32.418,9.858,33.582,9.858,33.985,10.673z"/>
</g>
<rect fill="none" width="66" height="50"/>
<rect x="-132.5" y="-49.5" fill="none" stroke="#257EFF" stroke-miterlimit="10" width="333" height="150"/>
</svg>
