<?xml version="1.0" encoding="utf-8"?>
<!-- Generator: Adobe Illustrator 16.0.0, SVG Export Plug-In . SVG Version: 6.00 Build 0)  -->
<!DOCTYPE svg PUBLIC "-//W3C//DTD SVG 1.1//EN" "http://www.w3.org/Graphics/SVG/1.1/DTD/svg11.dtd">
<svg version="1.1" id="Layer_1" xmlns="http://www.w3.org/2000/svg" xmlns:xlink="http://www.w3.org/1999/xlink" x="0px" y="0px"
	 width="66px" height="50px" viewBox="0 0 66 50" enable-background="new 0 0 66 50" xml:space="preserve">
<g>
	<path fill="none" stroke="#257EFF" stroke-miterlimit="10" d="M50.262,30.748l2.953,2.953c1.172,1.172,1.172,3.071,0,4.247
		c-1.171,1.172-3.073,1.172-4.247,0l-2.06-2.061"/>
	<path fill="none" stroke="#257EFF" stroke-miterlimit="10" d="M46.016,34.993l4.741,4.74c1.173,1.174,1.173,3.073,0,4.247
		c-1.173,1.172-3.073,1.172-4.246,0l-4.741-4.74"/>
	<path fill="none" stroke="#257EFF" stroke-miterlimit="10" d="M40.579,38.048l5.039,5.04c1.173,1.172,1.173,3.071,0,4.245
		c-1.174,1.172-3.074,1.172-4.247,0l-5.038-5.038"/>
	<path fill="none" stroke="#257EFF" stroke-miterlimit="10" d="M35.141,41.102l2.831,2.83c1.172,1.174,1.123,3.125-0.113,4.359
		c-1.232,1.233-3.184,1.282-4.357,0.112l-2.122-2.125"/>
	<path fill="none" stroke="#257EFF" stroke-miterlimit="10" d="M14.047,28.944L1.435,16.335L14.706,3.236l6.058,6.057
		c0,0,6.275-1.626,12.511,0.204"/>
	<path fill="none" stroke="#257EFF" stroke-miterlimit="10" d="M32.494,39.867l0.171,0.171c1.125,1.127,1.125,2.951,0,4.076
		l-2.648,2.647c-1.125,1.125-2.95,1.125-4.074,0l-0.172-0.173c-1.124-1.123-1.124-2.947,0-4.072l2.648-2.649
		C29.543,38.74,31.369,38.74,32.494,39.867z"/>
	<path fill="none" stroke="#257EFF" stroke-miterlimit="10" d="M28.746,35.305l0.172,0.171c1.125,1.127,1.125,2.949,0,4.074
		l-3.786,3.785c-1.125,1.127-2.95,1.127-4.075,0l-0.171-0.171c-1.125-1.125-1.125-2.949,0-4.074l3.787-3.785
		C25.796,34.178,27.621,34.178,28.746,35.305z"/>
	<path fill="none" stroke="#257EFF" stroke-miterlimit="10" d="M20.256,26.812l0.169,0.171c1.127,1.125,1.127,2.949,0,4.074
		l-3.786,3.786c-1.124,1.126-2.949,1.126-4.074,0l-0.171-0.171c-1.125-1.125-1.125-2.949,0-4.074l3.787-3.786
		C17.305,25.686,19.129,25.686,20.256,26.812z"/>
	<path fill="none" stroke="#257EFF" stroke-miterlimit="10" d="M25.281,30.277l0.171,0.171c1.125,1.125,1.125,2.951,0,4.076
		l-5.345,5.346c-1.125,1.125-2.95,1.125-4.075,0l-0.171-0.173c-1.125-1.125-1.125-2.949,0-4.074l5.345-5.346
		C22.33,29.151,24.156,29.151,25.281,30.277z"/>
	<g>
		<path fill="none" stroke="#257EFF" stroke-miterlimit="10" d="M49.37,28.96l15.196-15.195L52.051,1.249L41.248,12.35
			c0,0-7.188-4.954-11.208-1.827c-1.955,1.521-3.91,2.777-5.404,3.668c-1.487,0.887-2.059,2.754-1.341,4.333
			c0.812,1.785,2.955,2.521,4.69,1.61l7.041-4.582l15.237,15.196"/>
	</g>
	<g>
		<line fill="none" stroke="#257EFF" stroke-miterlimit="10" x1="4.596" y1="19.414" x2="17.867" y2="6.317"/>
		<line fill="none" stroke="#257EFF" stroke-miterlimit="10" x1="1.507" y1="16.324" x2="14.777" y2="3.228"/>
	</g>
	<g>
		<line fill="none" stroke="#257EFF" stroke-miterlimit="10" x1="61.621" y1="16.98" x2="48.971" y2="4.253"/>
		<line fill="none" stroke="#257EFF" stroke-miterlimit="10" x1="64.565" y1="13.979" x2="51.916" y2="1.249"/>
	</g>
</g>
<rect fill="none" width="66" height="50"/>
<rect x="-219.5" y="-49.5" fill="none" stroke="#257EFF" stroke-miterlimit="10" width="333" height="150"/>
</svg>
