<?xml version="1.0" encoding="utf-8"?>
<!-- Generator: Adobe Illustrator 16.0.0, SVG Export Plug-In . SVG Version: 6.00 Build 0)  -->
<!DOCTYPE svg PUBLIC "-//W3C//DTD SVG 1.1//EN" "http://www.w3.org/Graphics/SVG/1.1/DTD/svg11.dtd">
<svg version="1.1" id="Layer_1" xmlns="http://www.w3.org/2000/svg" xmlns:xlink="http://www.w3.org/1999/xlink" x="0px" y="0px"
	 width="114px" height="58px" viewBox="0 0 114 58" enable-background="new 0 0 114 58" xml:space="preserve">
<g>
	<path fill="#969899" d="M97.306,13.562C86.171,9.222,72.697,7.063,56.927,7.11c-15.8,0.041-29.245,2.309-40.334,6.826
		C5.498,18.437-0.049,23.607,0,29.483C0.025,35.331,5.62,40.4,16.763,44.619c11.139,4.195,24.611,6.293,40.335,6.272
		c15.721-0.041,29.146-2.255,40.233-6.641C108.428,39.847,114,34.721,114,28.869C114.022,22.998,108.455,17.875,97.306,13.562z
		 M94.554,43.608c-10.323,4.203-22.827,6.317-37.455,6.362c-14.648,0.02-27.186-1.99-37.564-6.013
		C9.156,39.919,3.944,35.061,3.922,29.452c-0.04-5.621,5.12-10.579,15.444-14.882c10.334-4.331,22.859-6.497,37.563-6.537
		c14.686-0.049,27.226,2.026,37.604,6.183c10.375,4.112,15.569,9.036,15.542,14.652C110.076,34.479,104.889,39.393,94.554,43.608z"
		/>
	<path fill="#969899" d="M108.52,26.651c-0.326-1.384-0.967-2.626-1.847-3.736c-1.127-1.325-2.374-2.479-3.772-3.445
		c-1.793-1.212-3.68-2.263-5.663-3.139c-2.233-0.965-4.553-1.846-6.941-2.608c-2.744-0.845-5.528-1.611-8.36-2.225
		c-1.81-0.397-3.607-0.767-5.439-1.081c-2.94-0.308-5.863-0.562-8.825-0.762c-3.447-0.196-6.959-0.34-10.487-0.392
		c-1.68,0-3.382,0.023-5.057,0.082c-1.81,0.114-3.589,0.281-5.391,0.455c-3.229,0.363-6.486,0.757-9.734,1.3
		c-2.947,0.507-5.87,1.126-8.792,1.86c-2.593,0.716-5.138,1.496-7.675,2.466c-2.191,0.843-4.302,1.87-6.306,3.025
		c-1.707,0.967-3.277,2.104-4.779,3.429c-1.117,1.007-2.133,2.146-3.024,3.45c-0.403,0.617-0.684,1.239-0.891,1.919
		c-0.149,0.658-0.2,1.329-0.2,1.976c0,0.65,0.078,1.275,0.22,1.901c0.186,0.702,0.494,1.354,0.895,1.888
		c0.916,1.333,1.963,2.499,3.103,3.483c1.505,1.331,3.1,2.429,4.802,3.376c2.012,1.16,4.144,2.087,6.33,2.849
		c2.547,0.965,5.108,1.78,7.681,2.434c2.939,0.734,5.887,1.319,8.813,1.78c3.272,0.531,6.537,0.933,9.765,1.247
		c1.797,0.134,3.576,0.253,5.354,0.313c5.24,0.141,10.429-0.042,15.581-0.519c2.927-0.243,5.874-0.563,8.8-0.981
		c1.823-0.293,3.659-0.652,5.434-1.106c2.825-0.623,5.598-1.388,8.335-2.291c2.366-0.739,4.672-1.638,6.916-2.715
		c1.978-0.926,3.864-2.063,5.648-3.337c1.367-0.961,2.608-2.129,3.706-3.508c0.893-1.049,1.502-2.292,1.858-3.687
		C108.874,29.146,108.852,27.907,108.52,26.651z M37.941,37.46c-0.891,0.963-1.88,1.742-2.924,2.373
		c-0.993,0.565-1.908,0.966-2.797,1.215c-0.915,0.283-1.882,0.201-2.902-0.166c-1.033-0.393-1.8-0.799-2.207-1.196
		c-0.436-0.411-0.841-0.95-1.244-1.66c-0.405-0.711-0.611-1.667-0.559-2.886c0.074-1.208,0.363-2.466,0.887-3.65
		c0.303-0.645,0.694-1.271,1.199-1.837c0.586-0.602,1.17-1.215,1.773-1.837l0.491-0.283l0.68,0.051l0.409,0.232l0.256,0.369
		c0.1,0.195,0.047,0.479-0.135,0.867c-0.53,0.602-1.058,1.197-1.595,1.758c-0.257,0.283-0.482,0.561-0.687,0.909
		c-0.197,0.28-0.376,0.588-0.506,0.93l-0.151,0.882l0.1,0.847c0.137,0.593,0.307,1.08,0.558,1.471
		c0.257,0.369,0.511,0.648,0.793,0.843c0.833,0.396,1.725,0.454,2.67,0.143c0.932-0.28,1.885-0.789,2.813-1.468
		c0.947-0.707,1.883-1.669,2.854-2.886c0.71-0.907,1.413-1.835,2.057-2.826c0.678-0.99,1.333-1.985,1.982-2.977
		c-0.309,0.153-0.611,0.296-0.971,0.406l-0.836,0.337l-0.864,0.249l-0.816,0.256h-0.448l-0.24-0.256l0.391-0.808
		c0.83-0.412,1.65-0.793,2.457-1.165c0.435-0.2,0.84-0.349,1.252-0.451c0.481-0.119,0.959-0.23,1.428-0.34
		c1.185-1.475,2.353-2.836,3.554-4.16c1.322-1.45,2.671-2.854,4.064-4.277c-1.394-0.303-2.794-0.625-4.193-0.87
		c-1.243-0.199-2.495-0.278-3.718-0.199c-1.135,0.056-2.252,0.253-3.351,0.658c-1.038,0.44-2.03,1.036-2.972,1.77
		c-0.585,0.489-1.043,1.136-1.398,1.93c-0.151,0.305-0.174,0.702-0.126,1.129c0.051,0.372,0.183,0.705,0.435,0.909
		c0.351,0.338,0.764,0.504,1.196,0.504c0.479,0,0.939-0.145,1.344-0.418c1.041-0.738,2.061-1.504,3.051-2.326h0.583
		c0.157,0.253,0.104,0.567-0.078,0.963c-0.482,0.938-1.07,1.842-1.704,2.664c-0.544,0.729-1.196,1.325-1.902,1.833
		c-0.712,0.481-1.451,0.681-2.236,0.704c-0.793,0.061-1.558-0.159-2.246-0.673c-0.554-0.452-0.959-1.048-1.219-1.812
		c-0.177-0.845-0.177-1.669,0-2.489c0.215-0.988,0.596-1.927,1.175-2.74c0.785-1.028,1.713-1.867,2.741-2.578
		c0.993-0.556,2.042-1.014,3.142-1.355c1.228-0.29,2.483-0.46,3.773-0.509c1.5-0.079,2.977-0.037,4.507,0.196
		c1.521,0.229,3.062,0.477,4.619,0.819c1.89,0.315,3.771,0.545,5.677,0.7c3.17,0.208,6.322,0.237,9.451,0.12
		c1.672-0.079,3.358-0.175,5.058-0.309l0.76,0.171l0.307,0.337c0.078,0.171,0,0.459-0.307,0.818
		c-0.684,0.733-1.477,1.274-2.313,1.67c-1.136,0.616-2.337,0.992-3.562,1.104c-1.568,0.178-3.195,0.178-4.852-0.03
		c-1.986-0.285-3.984-0.644-6.044-1.126c-1.123-0.343-2.273-0.683-3.44-1.057l-0.704,0.568c-0.943,0.936-1.889,1.926-2.771,2.914
		c-1.05,1.336-2.058,2.691-3.025,4.079c0.641-0.062,1.301-0.122,1.926-0.174c0.334,0,0.66,0,0.971,0.052
		c0.349,0,0.656,0.03,0.968,0.09c0.042-0.651,0.123-1.325,0.231-2.03l0.224-0.681c0.175-0.368,0.379-0.652,0.578-0.909l0.641-0.428
		l0.227-0.022l0.534,0.022l0.585,0.227l0.558,0.51l0.187,0.482l-0.058,0.683c-0.248,0.759-0.587,1.407-1.016,2.003
		c-0.18,0.343-0.461,0.597-0.811,0.79l0.074,0.37l0.203,0.172l0.128,0.344l-0.128,0.219l-0.203,0.258l-0.405,0.018l-0.272-0.102
		l-0.289-0.26L51,25.753l-0.218-0.339c-0.434,0-0.894,0-1.328,0.017c-0.46,0.065-0.938,0.129-1.425,0.129
		c-0.427,0.044-0.829,0.108-1.264,0.159c-0.465,0.061-0.921,0.085-1.355,0.085c-1.596,2.952-3.277,5.828-5.112,8.671
		C39.595,35.595,38.827,36.584,37.941,37.46z M85.923,37.235C85.038,38.274,84.02,39.202,82.9,40
		c-0.735,0.489-1.55,0.739-2.384,0.688c-0.639,0-1.246-0.224-1.783-0.655c-0.276-0.23-0.484-0.533-0.683-0.937l-1.401,1.025
		c-0.585,0.221-1.192,0.342-1.775,0.342c-0.912,0.077-1.706-0.208-2.418-0.741c-0.664-0.373-1.066-0.958-1.264-1.78
		c-0.209-0.856-0.291-1.727-0.209-2.691c-0.787,0.343-1.526,0.616-2.262,0.845c-0.58,0.18-1.22,0.18-1.855,0
		c-0.611-0.069-1.172-0.307-1.706-0.641l-0.458-0.342l-0.422-0.625l-0.186-0.768l-0.457,0.858c-1.096,2.089-2.212,4.208-3.411,6.338
		l-3.015,0.023c1.471-2.75,2.838-5.484,4.192-8.266c0.301-0.561,0.498-1.185,0.584-1.83V30.16l-0.533-0.167
		c-0.412,0.282-0.798,0.597-1.194,0.928c-0.748,0.734-1.427,1.507-2.069,2.349c-0.93,1.159-1.871,2.324-2.817,3.419
		c-0.839,1.11-1.718,2.129-2.671,3.057c-0.503,0.458-1.06,0.793-1.599,1.052c-0.585,0.233-1.116,0.359-1.672,0.397
		c-0.565,0-1.125-0.091-1.673-0.314l-0.868-0.484l-0.59-0.595l-0.54-0.818l-0.35-0.819l-0.454,0.341l-0.435,0.478l-0.527,0.365
		l-0.472,0.171l-0.502,0.145l-0.728-0.391c-0.159-0.404-0.104-0.745,0.201-1.085c0.527-0.568,1.029-1.126,1.543-1.751
		c0.485-0.68,0.92-1.417,1.252-2.182c0.301-0.562,0.57-1.124,0.835-1.63c0.337-0.683,0.742-1.272,1.193-1.752
		c0.539-0.627,1.147-1.156,1.835-1.615c0.736-0.484,1.498-0.944,2.309-1.336l0.76-0.256h0.254c0.302,0.12,0.538,0.314,0.622,0.648
		l0.021,0.439l-0.159,0.39l-0.237,0.369l-0.359,0.254l-0.143,0.077c-0.942,0.882-1.83,1.849-2.663,2.892
		c-0.564,0.681-0.917,1.468-1.094,2.344c-0.158,0.567-0.128,1.11,0.072,1.667c0.135,0.433,0.33,0.798,0.615,1.08
		c0.474,0.199,0.91,0.26,1.367,0.139c0.613-0.276,1.101-0.536,1.4-0.822l0.556-0.53c0.205-0.336,0.461-0.709,0.643-1.083
		c0.247-0.39,0.43-0.815,0.538-1.241c0.168-0.483,0.296-1.019,0.354-1.586c0.068-0.563,0.171-1.094,0.25-1.639
		c0.023-0.739,0.07-1.433,0.179-2.142l0.231-0.439l0.376-0.355h0.298h0.278l0.401,0.188l0.297,0.316l0.127,0.488l0.074,0.679
		l0.018,0.845v0.711v0.785c1.285-1.295,2.62-2.509,4.002-3.679c0.502-0.396,1.007-0.673,1.572-0.793
		c0.505-0.051,0.968,0.06,1.424,0.256c0.296,0.232,0.509,0.48,0.662,0.831c0.201,0.365,0.375,0.759,0.48,1.155
		c0.38-0.458,0.812-0.859,1.253-1.247l0.653-0.507c0.359-0.174,0.658-0.25,0.965-0.232c0.562-0.018,1.072,0.058,1.578,0.204
		c0.402,0.168,0.711,0.449,0.993,0.846c0.197,0.339,0.28,0.706,0.28,1.16c0,0.51-0.131,0.93-0.38,1.327l-0.716,0.824
		c-0.229,0.049-0.54,0.049-0.865-0.034l-0.797-0.443l-0.293-0.829v-0.418l-0.435-0.091h-0.306c-0.254,0.338-0.428,0.679-0.579,1.019
		c-0.156,0.368-0.206,0.762-0.156,1.137c0.156,0.625,0.453,1.041,0.889,1.239c0.587,0.391,1.249,0.463,1.957,0.231
		c0.759-0.166,1.475-0.487,2.135-0.994c0.462-0.284,0.855-0.625,1.271-0.99c0.382-0.338,0.767-0.707,1.113-1.081
		c0.746-0.682,1.521-1.314,2.394-1.913l0.605-0.435c0.159-0.109,0.459-0.225,0.858-0.37c0.417-0.188,0.922-0.25,1.459-0.188
		c0.562,0,1.014,0.109,1.321,0.251c0.332,0.227,0.607,0.485,0.818,0.766c0.301,0.278,0.526,0.574,0.726,0.906l5.108-8.406
		l3.409-0.013L81.097,36.69l-0.151,0.739v0.513l0.098,0.332l0.278,0.49c0.334,0.078,0.614,0.078,0.903,0
		c0.504-0.341,0.953-0.709,1.414-1.104c0.328-0.23,0.655-0.516,0.972-0.852l0.731-0.829l0.581-0.804
		c0.24-0.348,0.49-0.658,0.771-0.917l0.401-0.413l0.306,0.087l0.258,0.2l0.222,0.356C87.33,35.481,86.665,36.376,85.923,37.235z"/>
	<path fill="#969899" d="M78.41,30.98c-0.216-0.11-0.496-0.135-0.878-0.092c-0.354-0.018-0.709,0.145-1.088,0.491l-0.494,0.436
		l-0.099,0.095l-0.234,0.302c-0.611,0.776-1.08,1.615-1.445,2.494c-0.228,0.574-0.393,1.173-0.491,1.768l0.166,0.659
		c0.211,0.328,0.5,0.545,0.822,0.645c0.337,0.077,0.671,0.077,0.976,0l0.754-0.375c0.586-0.681,1.134-1.423,1.63-2.196
		c0.425-0.645,0.728-1.326,0.888-1.994c0.2-0.682,0.171-1.256,0-1.723L78.41,30.98z"/>
	<path fill="#969899" d="M53.065,22.521c0.246-1.159-2.323-2.037-1.57,1.576C51.495,24.097,52.817,23.678,53.065,22.521z"/>
</g>
<rect x="0" fill="none" width="114" height="58"/>
</svg>
