<?xml version="1.0" encoding="utf-8"?>
<!-- Generator: Adobe Illustrator 16.0.0, SVG Export Plug-In . SVG Version: 6.00 Build 0)  -->
<!DOCTYPE svg PUBLIC "-//W3C//DTD SVG 1.1//EN" "http://www.w3.org/Graphics/SVG/1.1/DTD/svg11.dtd">
<svg version="1.1" id="Layer_1" xmlns="http://www.w3.org/2000/svg" xmlns:xlink="http://www.w3.org/1999/xlink" x="0px" y="0px"
	 width="48px" height="48px" viewBox="0 0 48 48" enable-background="new 0 0 48 48" xml:space="preserve">
<g>
	
		<polyline fill="none" stroke="#257EFF" stroke-width="2" stroke-linecap="round" stroke-linejoin="round" stroke-miterlimit="10" points="
		36,16 36,28.269 32.753,25 32.639,25 29,28.269 29,16 	"/>
	<path fill="none" stroke="#257EFF" stroke-width="2" stroke-linecap="round" stroke-linejoin="round" stroke-miterlimit="10" d="
		M21,11V8.027C21,7.534,20.686,7,20.192,7H7.795C7.301,7,7,7.534,7,8.027v2.821V16h32v-3.919C39,11.588,38.953,11,38.458,11H21z"/>
</g>
<path fill="none" stroke="#257EFF" stroke-width="2" stroke-linecap="round" stroke-linejoin="round" stroke-miterlimit="10" d="
	M43,41.111C43,41.602,42.602,42,42.111,42H3.889C3.398,42,3,41.602,3,41.111V16.889C3,16.398,3.398,16,3.889,16h38.223
	C42.602,16,43,16.398,43,16.889V41.111z"/>
</svg>
