<?xml version="1.0" encoding="utf-8"?>
<!-- Generator: Adobe Illustrator 16.0.0, SVG Export Plug-In . SVG Version: 6.00 Build 0)  -->
<!DOCTYPE svg PUBLIC "-//W3C//DTD SVG 1.1//EN" "http://www.w3.org/Graphics/SVG/1.1/DTD/svg11.dtd">
<svg version="1.1" id="Layer_1" xmlns="http://www.w3.org/2000/svg" xmlns:xlink="http://www.w3.org/1999/xlink" x="0px" y="0px"
	 width="48px" height="48px" viewBox="0 0 48 48" enable-background="new 0 0 48 48" xml:space="preserve">
<rect fill="none" width="48" height="48"/>
<path fill="none" stroke="#257EFF" stroke-width="2" stroke-linecap="round" stroke-linejoin="round" stroke-miterlimit="10" d="
	M47,32.002C47,33.105,46.105,34,45.002,34H2.998C1.895,34,1,33.105,1,32.002V7.998C1,6.895,1.895,6,2.998,6h42.004
	C46.105,6,47,6.895,47,7.998V32.002z"/>
<polyline fill="none" stroke="#257EFF" stroke-width="2" stroke-linecap="round" stroke-linejoin="round" stroke-miterlimit="10" points="
	19,41 19,34 29,34 29,41 "/>
<line fill="none" stroke="#257EFF" stroke-width="2" stroke-linecap="round" stroke-linejoin="round" stroke-miterlimit="10" x1="14" y1="41" x2="34" y2="41"/>
<line fill="none" stroke="#257EFF" stroke-width="2" stroke-linecap="round" stroke-linejoin="round" stroke-miterlimit="10" x1="1" y1="29" x2="47" y2="29"/>
<polyline fill="none" stroke="#257EFF" stroke-width="2" stroke-linecap="round" stroke-linejoin="round" stroke-miterlimit="10" points="
	14,22 18.171,17.708 23.08,21.738 31.168,13.679 "/>
<polyline fill="none" stroke="#257EFF" stroke-width="2" stroke-linecap="round" stroke-linejoin="round" stroke-miterlimit="10" points="
	32.087,16.323 31.811,12.724 28.344,13.026 "/>
</svg>
