<?xml version="1.0" encoding="utf-8"?>
<!-- Generator: Adobe Illustrator 16.0.0, SVG Export Plug-In . SVG Version: 6.00 Build 0)  -->
<!DOCTYPE svg PUBLIC "-//W3C//DTD SVG 1.1//EN" "http://www.w3.org/Graphics/SVG/1.1/DTD/svg11.dtd">
<svg version="1.1" id="Layer_1" xmlns="http://www.w3.org/2000/svg" xmlns:xlink="http://www.w3.org/1999/xlink" x="0px" y="0px"
	 width="48px" height="48px" viewBox="0 0 48 48" enable-background="new 0 0 48 48" xml:space="preserve">
<line fill="none" stroke="#257EFF" stroke-width="2" stroke-linecap="round" stroke-linejoin="round" stroke-miterlimit="10" x1="3" y1="13" x2="44" y2="13"/>
<path fill="none" stroke="#257EFF" stroke-width="2" stroke-linecap="round" stroke-linejoin="round" stroke-miterlimit="10" d="
	M45,38.068C45,38.583,44.583,39,44.068,39H3.932C3.417,39,3,38.583,3,38.068V6.932C3,6.417,3.417,6,3.932,6h40.136
	C44.583,6,45,6.417,45,6.932V38.068z"/>
<path fill="#FFFFFF" stroke="#257EFF" stroke-width="2" stroke-linecap="round" stroke-linejoin="round" stroke-miterlimit="10" d="
	M32.804,36.424l1.276,6.379c0.136,0.685,0.981,0.939,1.473,0.447l1.317-1.316l2.47,2.47c0.683,0.683,1.788,0.683,2.47,0
	c0.683-0.682,0.683-1.789,0-2.47l-2.47-2.47l1.316-1.318c0.495-0.493,0.239-1.337-0.446-1.473l-6.379-1.277
	C33.22,35.273,32.681,35.812,32.804,36.424z"/>
<g>
	
		<line fill="none" stroke="#257EFF" stroke-width="2" stroke-linecap="round" stroke-linejoin="round" stroke-miterlimit="10" x1="9" y1="30" x2="29" y2="30"/>
	
		<line fill="none" stroke="#257EFF" stroke-width="2" stroke-linecap="round" stroke-linejoin="round" stroke-miterlimit="10" x1="9" y1="25" x2="29" y2="25"/>
	
		<line fill="none" stroke="#257EFF" stroke-width="2" stroke-linecap="round" stroke-linejoin="round" stroke-miterlimit="10" x1="9" y1="20" x2="29" y2="20"/>
</g>
<rect x="0" fill="none" width="48" height="48"/>
<g>
	<circle fill="#257EFF" cx="7" cy="10" r="1"/>
	<circle fill="#257EFF" cx="11" cy="10" r="1"/>
	<circle fill="#257EFF" cx="15" cy="10" r="1"/>
</g>
</svg>
