<?xml version="1.0" encoding="utf-8"?>
<!-- Generator: Adobe Illustrator 16.0.0, SVG Export Plug-In . SVG Version: 6.00 Build 0)  -->
<!DOCTYPE svg PUBLIC "-//W3C//DTD SVG 1.1//EN" "http://www.w3.org/Graphics/SVG/1.1/DTD/svg11.dtd">
<svg version="1.1" id="Layer_1" xmlns="http://www.w3.org/2000/svg" xmlns:xlink="http://www.w3.org/1999/xlink" x="0px" y="0px"
	 width="48px" height="48px" viewBox="0 0 48 48" enable-background="new 0 0 48 48" xml:space="preserve">
<g>
	
		<polygon fill="none" stroke="#257EFF" stroke-width="2" stroke-linecap="round" stroke-linejoin="round" stroke-miterlimit="10" points="
		30,7 30,14 37,14 37,45 6,45 6,7 	"/>
	
		<line fill="none" stroke="#257EFF" stroke-width="2" stroke-linecap="round" stroke-linejoin="round" stroke-miterlimit="10" x1="30" y1="7" x2="37" y2="14"/>
</g>
<g>
	
		<polygon fill="#FFFFFF" stroke="#257EFF" stroke-width="2" stroke-linecap="round" stroke-linejoin="round" stroke-miterlimit="10" points="
		35,2 35,9 42,9 42,40 11,40 11,2 	"/>
	
		<line fill="#FFFFFF" stroke="#257EFF" stroke-width="2" stroke-linecap="round" stroke-linejoin="round" stroke-miterlimit="10" x1="35" y1="2" x2="42" y2="9"/>
</g>
<g>
	<path fill="none" stroke="#257EFF" stroke-width="2" stroke-linecap="round" stroke-linejoin="round" stroke-miterlimit="10" d="
		M35.18,22.91c0,5.02-4.07,9.09-9.09,9.09S17,27.93,17,22.91c0-5.021,4.069-9.091,9.09-9.091"/>
	<path fill="none" stroke="#257EFF" stroke-width="2" stroke-linecap="round" stroke-linejoin="round" stroke-miterlimit="10" d="
		M26.432,12.081c-0.068,0-0.043,0.009-0.043,0.011v10.512h10.523c0.001,0,0.088,0.031,0.088-0.034
		C37,16.69,32.312,12.081,26.432,12.081z"/>
</g>
</svg>
