<?xml version="1.0" encoding="utf-8"?>
<!-- Generator: Adobe Illustrator 16.0.0, SVG Export Plug-In . SVG Version: 6.00 Build 0)  -->
<!DOCTYPE svg PUBLIC "-//W3C//DTD SVG 1.1//EN" "http://www.w3.org/Graphics/SVG/1.1/DTD/svg11.dtd">
<svg version="1.1" id="Layer_1" xmlns="http://www.w3.org/2000/svg" xmlns:xlink="http://www.w3.org/1999/xlink" x="0px" y="0px"
	 width="48px" height="48px" viewBox="0 0 48 48" enable-background="new 0 0 48 48" xml:space="preserve">
<g>
	<path fill="none" stroke="#257EFF" stroke-width="2" stroke-linecap="round" stroke-linejoin="round" stroke-miterlimit="10" d="
		M42.005,43H5.745C3.331,43,1,40.789,1,38.374V38h45v0.374C46,40.789,44.419,43,42.005,43z"/>
	<path fill="none" stroke="#257EFF" stroke-width="2" stroke-linecap="round" stroke-linejoin="round" stroke-miterlimit="10" d="
		M4,38V15.941C4,14.875,5.589,14,6.656,14H15"/>
	
		<line fill="none" stroke="#257EFF" stroke-width="2" stroke-linecap="round" stroke-linejoin="round" stroke-miterlimit="10" x1="43" y1="24" x2="43" y2="38"/>
	
		<polyline fill="none" stroke="#257EFF" stroke-width="2" stroke-linecap="round" stroke-linejoin="round" stroke-miterlimit="10" points="
		8,38 8,18 15,18 	"/>
	
		<line fill="none" stroke="#257EFF" stroke-width="2" stroke-linecap="round" stroke-linejoin="round" stroke-miterlimit="10" x1="39" y1="27" x2="39" y2="38"/>
	<path fill="none" stroke="#257EFF" stroke-width="2" stroke-linecap="round" stroke-linejoin="round" stroke-miterlimit="10" d="
		M30.371,4.12c-8.375,0-14.739,5.573-14.739,12.448c0,3.01,0.988,5.773,3.899,7.925v0.001c0.548,2.18,0.162,4.359-0.282,5.846
		c-0.226,0.764,0.503,1.46,1.254,1.194l7.63-2.7c0.799,0.108,1.507,0.179,2.344,0.179c8.375,0,15.111-5.571,15.111-12.444
		C45.588,9.693,38.747,4.12,30.371,4.12z"/>
	<path fill="none" stroke="#257EFF" stroke-width="2" stroke-linecap="round" stroke-linejoin="round" stroke-miterlimit="10" d="
		M27.984,28.834c0,0-2.817-0.514-4.893-1.76"/>
	<path fill="#257EFF" d="M23.188,18.997c-1.103,0-1.998-0.896-1.998-2.003c0-1.105,0.896-2.001,1.998-2.001
		c1.108,0,2.002,0.896,2.002,2.001C25.19,18.101,24.297,18.997,23.188,18.997"/>
	<path fill="#257EFF" d="M30.843,18.996c-1.103,0-1.999-0.896-1.999-2.002c0-1.104,0.896-2,1.999-2c1.104,0,2.001,0.896,2.001,2
		C32.844,18.1,31.947,18.996,30.843,18.996"/>
	<path fill="#257EFF" d="M38.497,18.996c-1.104,0-1.999-0.896-1.999-2.002c0-1.104,0.895-2,1.999-2c1.105,0,2.001,0.896,2.001,2
		C40.498,18.1,39.603,18.996,38.497,18.996"/>
	<rect x="0.25" fill="none" width="48" height="48"/>
</g>
</svg>
