<?xml version="1.0" encoding="utf-8"?>
<!-- Generator: Adobe Illustrator 16.0.0, SVG Export Plug-In . SVG Version: 6.00 Build 0)  -->
<!DOCTYPE svg PUBLIC "-//W3C//DTD SVG 1.1//EN" "http://www.w3.org/Graphics/SVG/1.1/DTD/svg11.dtd">
<svg version="1.1" id="Layer_1" xmlns="http://www.w3.org/2000/svg" xmlns:xlink="http://www.w3.org/1999/xlink" x="0px" y="0px"
	 width="48px" height="48px" viewBox="0 0 48 48" enable-background="new 0 0 48 48" xml:space="preserve">
<g>
	<path fill="none" stroke="#2B80FF" stroke-width="2" stroke-linecap="round" stroke-linejoin="round" stroke-miterlimit="10" d="
		M29.355,28.535c-1.969-1.878-3.843-1.128-5.807,0.751L20,32.253V16c0-4-5-4-5,0v8.579c0-1.328-1.11-2.405-2.5-2.405
		S10,23.251,10,24.579v1.879c0-1.329-0.306-2.406-1.698-2.406C6.913,24.052,6,25.129,6,26.458v2.255
		c0-1.329-1.218-2.406-2.607-2.406c-1.389,0-2.483,1.077-2.483,2.406l1.51,8.387c0,0,1.934,8.765,9.144,8.765
		c5.659,0,8.887-4.782,8.887-4.782L29.355,28.535z"/>
	
		<line fill="none" stroke="#2B80FF" stroke-width="2" stroke-linecap="round" stroke-linejoin="round" stroke-miterlimit="10" x1="15" y1="23" x2="15" y2="27"/>
	
		<line fill="none" stroke="#2B80FF" stroke-width="2" stroke-linecap="round" stroke-linejoin="round" stroke-miterlimit="10" x1="10" y1="26" x2="10" y2="28"/>
	
		<line fill="none" stroke="#2B80FF" stroke-width="2" stroke-linecap="round" stroke-linejoin="round" stroke-miterlimit="10" x1="6" y1="28" x2="6" y2="30"/>
	<path fill="none" stroke="#2B80FF" stroke-width="2" stroke-linecap="round" stroke-linejoin="round" stroke-miterlimit="10" d="
		M46.816,14.355c0,1.008-2.036,1.734-2.284,2.664c-0.257,0.961,1.135,2.606,0.646,3.446c-0.493,0.854-2.616,0.468-3.31,1.161
		c-0.694,0.692-0.308,2.817-1.161,3.312c-0.841,0.486-2.487-0.904-3.45-0.648c-0.928,0.249-1.654,2.284-2.662,2.284
		s-1.733-2.035-2.664-2.284c-0.961-0.256-2.605,1.135-3.448,0.648c-0.853-0.494-0.466-2.619-1.161-3.312
		c-0.693-0.693-2.816-0.307-3.31-1.161c-0.486-0.841,0.904-2.485,0.646-3.447c-0.248-0.929-2.283-1.655-2.283-2.663
		c0-1.007,2.036-1.734,2.283-2.663c0.257-0.961-1.132-2.606-0.646-3.447c0.494-0.854,2.617-0.468,3.311-1.16
		c0.694-0.694,0.307-2.817,1.16-3.312c0.842-0.487,2.487,0.905,3.448,0.649c0.93-0.25,1.656-2.285,2.664-2.285
		s1.733,2.035,2.662,2.285c0.963,0.256,2.608-1.137,3.45-0.648c0.854,0.494,0.467,2.617,1.161,3.312
		c0.694,0.692,2.816,0.306,3.31,1.16c0.489,0.842-0.903,2.486-0.646,3.448C44.78,12.621,46.816,13.349,46.816,14.355z"/>
	
		<circle fill="none" stroke="#2B80FF" stroke-linecap="round" stroke-linejoin="round" stroke-miterlimit="10" cx="31.492" cy="11.681" r="1.666"/>
	
		<circle fill="none" stroke="#2B80FF" stroke-linecap="round" stroke-linejoin="round" stroke-miterlimit="10" cx="37.237" cy="17.599" r="1.667"/>
	
		<line fill="none" stroke="#2B80FF" stroke-linecap="round" stroke-linejoin="round" stroke-miterlimit="10" x1="38.182" y1="10.849" x2="30.677" y2="18.353"/>
</g>
<rect fill="none" width="48" height="48"/>
</svg>
