<?xml version="1.0" encoding="utf-8"?>
<!-- Generator: Adobe Illustrator 16.0.0, SVG Export Plug-In . SVG Version: 6.00 Build 0)  -->
<!DOCTYPE svg PUBLIC "-//W3C//DTD SVG 1.1//EN" "http://www.w3.org/Graphics/SVG/1.1/DTD/svg11.dtd">
<svg version="1.1" id="Layer_1" xmlns="http://www.w3.org/2000/svg" xmlns:xlink="http://www.w3.org/1999/xlink" x="0px" y="0px"
	 width="48px" height="48px" viewBox="0 0 48 48" enable-background="new 0 0 48 48" xml:space="preserve">
<rect x="0.25" display="none" fill="none" width="48" height="48"/>
<g>
	
		<line fill="none" stroke="#257EFF" stroke-width="2" stroke-linecap="round" stroke-linejoin="round" stroke-miterlimit="10" x1="3" y1="14" x2="44" y2="14"/>
	<g>
		
			<circle fill="none" stroke="#257EFF" stroke-width="2" stroke-linecap="round" stroke-linejoin="round" stroke-miterlimit="10" cx="7.196" cy="10.146" r="0.302"/>
		
			<circle fill="none" stroke="#257EFF" stroke-width="2" stroke-linecap="round" stroke-linejoin="round" stroke-miterlimit="10" cx="10.925" cy="10.146" r="0.302"/>
		
			<circle fill="none" stroke="#257EFF" stroke-width="2" stroke-linecap="round" stroke-linejoin="round" stroke-miterlimit="10" cx="14.654" cy="10.146" r="0.302"/>
	</g>
	<path fill="none" stroke="#257EFF" stroke-width="2" stroke-linecap="round" stroke-linejoin="round" stroke-miterlimit="10" d="
		M45,39.068C45,39.583,44.583,40,44.068,40H3.932C3.417,40,3,39.583,3,39.068V7.932C3,7.417,3.417,7,3.932,7h40.136
		C44.583,7,45,7.417,45,7.932V39.068z"/>
</g>
<g>
	
		<path fill="#FFFFFF" stroke="#257EFF" stroke-width="2" stroke-linecap="round" stroke-linejoin="round" stroke-miterlimit="10" d="
		M33.075,35.409c0-0.566-0.058-1.119-0.164-1.655l2.177-1.074l-1.962-3.977l-2.26,1.077c-1.093-1.242-2.26-2.16-4.26-2.602V25h-4
		v2.179c-2,0.441-3.231,1.359-4.324,2.602l-2.253-1.077l-1.997,3.977l2.159,1.074c-0.105,0.536-0.172,1.089-0.172,1.655
		c0,0.567,0.054,1.12,0.159,1.656L14,38.14l1.96,3.976l2.323-1.077c1.093,1.242,2.323,2.16,4.323,2.603V46h4v-2.359
		c2-0.442,3.167-1.36,4.26-2.603l2.221,1.077l1.981-3.976l-2.166-1.074C33.006,36.529,33.075,35.977,33.075,35.409z"/>
	
		<circle fill="#FFFFFF" stroke="#257EFF" stroke-width="2" stroke-linecap="round" stroke-linejoin="round" stroke-miterlimit="10" cx="24.492" cy="35.363" r="4.23"/>
</g>
</svg>
