<?xml version="1.0" encoding="utf-8"?>
<!-- Generator: Adobe Illustrator 16.0.0, SVG Export Plug-In . SVG Version: 6.00 Build 0)  -->
<!DOCTYPE svg PUBLIC "-//W3C//DTD SVG 1.1//EN" "http://www.w3.org/Graphics/SVG/1.1/DTD/svg11.dtd">
<svg version="1.1" id="Layer_1" xmlns="http://www.w3.org/2000/svg" xmlns:xlink="http://www.w3.org/1999/xlink" x="0px" y="0px"
	 width="114px" height="58px" viewBox="0 0 114 58" enable-background="new 0 0 114 58" xml:space="preserve">
<path fill-rule="evenodd" clip-rule="evenodd" fill="#969899" d="M57,9c-22.43,0-40.611,9.168-40.611,20.475
	c0,9.154,11.922,16.906,28.365,19.525l0,0L57,19.752L69.246,49l0,0c16.443-2.619,28.365-10.371,28.365-19.525
	C97.611,18.168,79.43,9,57,9L57,9L57,9L57,9L57,9z M75.648,39.749L57,18.094L38.422,39.689l0,0
	c-9.148-2.555-15.18-7.025-15.18-12.52c0-8.717,15-16.891,33.723-16.891s34.08,8.174,34.08,16.891
	C91.045,32.708,84.922,37.205,75.648,39.749L75.648,39.749L75.648,39.749L75.648,39.749L75.648,39.749z"/>
<rect fill="none" width="114" height="58"/>
</svg>
