<?xml version="1.0" encoding="utf-8"?>
<!-- Generator: Adobe Illustrator 16.0.0, SVG Export Plug-In . SVG Version: 6.00 Build 0)  -->
<!DOCTYPE svg PUBLIC "-//W3C//DTD SVG 1.1//EN" "http://www.w3.org/Graphics/SVG/1.1/DTD/svg11.dtd">
<svg version="1.1" id="Layer_1" xmlns="http://www.w3.org/2000/svg" xmlns:xlink="http://www.w3.org/1999/xlink" x="0px" y="0px"
	 width="114px" height="58px" viewBox="0 0 114 58" enable-background="new 0 0 114 58" xml:space="preserve">
<g>
	<path fill="#969899" d="M63.979,26.158c-0.029-0.029-0.119-0.029-0.18-0.029c-0.088,0-0.179,0-0.208,0.029
		c-0.091,0-0.149,0.031-0.181,0.092c0,0.031-0.509,1.195-1.017,2.392h2.723c-0.419-1.015-0.867-2.032-0.987-2.36
		C64.1,26.189,64.038,26.158,63.979,26.158z"/>
	<path fill="#969899" d="M85.048,23.279l-0.008-0.115c-0.089-1.119-0.22-1.258-0.852-1.471c-0.764-0.257-1.872-0.503-3.295-0.73
		l-0.049-0.007l-0.016-0.048C77.511,9.188,66.332,1,53.646,1C41.052,1,29.895,9.113,26.514,20.727l-0.015,0.046l-0.047,0.007
		c-0.989,0.176-1.951,0.369-2.94,0.596c-0.889,0.203-1.129,0.562-1.262,1.15c-0.024,0.103-0.044,0.213-0.063,0.334
		c-0.39,2.326-0.467,4.523-0.258,7.344c0.062,0.818,0.142,1.628,0.203,2.242c0.015,0.146,0.025,0.299,0.036,0.451
		c0.057,0.832,0.115,1.693,0.913,1.827c1.071,0.177,2.231,0.343,3.448,0.495l0.002,0.102C29.93,46.91,41.073,55,53.646,55
		c6.246,0,12.163-1.919,17.11-5.553c4.79-3.516,8.334-8.498,9.979-14.027l0.027,0.008l0.001-0.068
		c1.174-0.133,2.222-0.274,3.116-0.423c0.506-0.086,0.86-0.358,0.999-0.771c0.029-0.088,0.049-0.184,0.058-0.28
		c0.141-1.409,0.237-2.612,0.292-3.68C85.373,27.445,85.243,25.789,85.048,23.279z M34.082,19.767
		c3.415-7.418,11.094-12.211,19.564-12.211c8.614,0,16.328,4.868,19.661,12.407l0.061,0.028l-0.037,0.146
		c-7.03-0.541-14.891-0.732-19.903-0.732c-8.742,0-14.686,0.144-19.271,0.47l-0.13,0.011L34.082,19.767z M68.138,31.426h-1.675
		c-0.091,0-0.179-0.029-0.21-0.119c0-0.031-0.21-0.539-0.51-1.229h-3.948c-0.299,0.719-0.538,1.229-0.538,1.229
		c-0.029,0.06-0.09,0.119-0.209,0.119h-1.615c-0.24,0-0.33,0-0.18-0.301c0.808-1.734,2.603-5.773,2.603-5.773
		c0.357-0.747,0.179-0.686,1.226-0.686c0.271-0.031,0.329-0.031,0.659-0.031c0.328,0,0.568,0,0.658,0.031
		c1.107,0.027,0.927-0.092,1.436,1.045c0.27,0.628,2.214,4.816,2.514,5.535C68.437,31.455,68.377,31.426,68.138,31.426z
		 M56.38,28.943c-0.568-0.031-2.243-0.182-3.38-0.302c-1.467-0.147-1.796-0.776-1.886-1.313c-0.03-0.182-0.03-0.42-0.03-0.63
		c0-0.18,0-0.448,0.03-0.658c0.21-0.957,0.928-1.405,2.184-1.405h4.877c0.18,0,0.24,0.031,0.24,0.178v1.108
		c0,0.15-0.061,0.208-0.24,0.179h-4.786c-0.21,0-0.299,0.09-0.329,0.299v0.12v0.149c0,0.148,0.059,0.27,0.299,0.299
		c0.569,0.062,2.333,0.211,2.991,0.271c1.197,0.118,2.065,0.328,2.305,1.465c0,0.089,0.029,0.389,0.029,0.718
		c0,0.21,0,0.479-0.06,0.719c-0.209,1.076-1.017,1.286-2.274,1.286h-5.025c-0.179,0-0.21-0.029-0.21-0.21V30.14
		c0-0.181,0.031-0.211,0.21-0.211h5.086c0.208,0,0.269-0.06,0.299-0.21V29.45v-0.18C56.679,29.152,56.618,28.972,56.38,28.943z
		 M47.734,28.943c-0.568-0.031-2.245-0.182-3.381-0.302c-1.466-0.147-1.826-0.776-1.885-1.313c-0.03-0.182-0.03-0.42-0.03-0.63
		c0-0.18,0-0.448,0.03-0.658c0.209-0.957,0.927-1.405,2.184-1.405h4.877c0.179,0,0.239,0.031,0.239,0.178v1.108
		c0,0.15-0.061,0.208-0.239,0.179h-4.787c-0.209,0-0.3,0.09-0.329,0.299v0.12v0.149c0,0.148,0.09,0.27,0.298,0.299
		c0.57,0.062,2.335,0.211,2.993,0.271c1.196,0.118,2.064,0.328,2.303,1.465c0,0.089,0.029,0.389,0.029,0.718
		c0,0.21,0,0.479-0.058,0.719c-0.21,1.076-1.019,1.286-2.274,1.286h-5.026c-0.18,0-0.209-0.029-0.209-0.21V30.14
		c0-0.181,0.029-0.211,0.209-0.211h5.086c0.21,0,0.27-0.06,0.3-0.21V29.45v-0.18C48.033,29.152,48.003,28.972,47.734,28.943z
		 M41.032,24.753v6.403c0,0.15-0.03,0.21-0.21,0.21h-1.556c-0.179,0-0.209-0.03-0.209-0.21v-6.403c0-0.118,0.03-0.179,0.148-0.179
		h1.646C41.002,24.574,41.032,24.635,41.032,24.753z M31.189,26.22v4.996c0,0.181-0.03,0.21-0.21,0.21h-1.347
		c-0.179,0-0.209-0.029-0.209-0.21v-6.372c0-0.15,0.03-0.209,0.209-0.209h1.557c1.166,0,1.316-0.03,1.736,0.566
		c0.328,0.54,3.05,4.728,3.05,4.728v-5.085c0-0.15,0.03-0.209,0.21-0.209h1.346c0.18,0,0.21,0.059,0.21,0.209v6.372
		c0,0.181-0.03,0.21-0.21,0.21h-1.825c-1.076,0-1.166,0-1.524-0.6C33.434,29.66,31.189,26.22,31.189,26.22z M73.27,36.114
		c-3.387,7.491-11.089,12.332-19.623,12.332c-8.555,0-16.26-4.857-19.64-12.376l-0.228-0.188l0.238,0.017
		c5.312,0.344,11.614,0.51,19.836,0.527l0.885,0.002c6.685,0,13.066-0.16,18.452-0.465l0.073-0.004l0.016,0.137L73.27,36.114z
		 M77.682,31.216c0,0.181-0.029,0.21-0.209,0.21h-1.825c-1.077,0-1.167,0-1.527-0.6c-0.746-1.166-2.99-4.606-2.99-4.606v4.996
		c0,0.181-0.03,0.21-0.21,0.21h-1.346c-0.18,0-0.21-0.029-0.21-0.21v-6.372c0-0.15,0.03-0.209,0.21-0.209h1.556
		c1.167,0,1.316-0.03,1.735,0.566c0.358,0.54,3.052,4.728,3.052,4.728v-5.085c0-0.15,0.03-0.209,0.209-0.209h1.347
		c0.18,0,0.209,0.059,0.209,0.209V31.216z"/>
</g>
<rect fill="none" width="114" height="58"/>
</svg>
