<?xml version="1.0" encoding="utf-8"?>
<!-- Generator: Adobe Illustrator 16.0.0, SVG Export Plug-In . SVG Version: 6.00 Build 0)  -->
<!DOCTYPE svg PUBLIC "-//W3C//DTD SVG 1.1//EN" "http://www.w3.org/Graphics/SVG/1.1/DTD/svg11.dtd">
<svg version="1.1" id="Layer_1" xmlns="http://www.w3.org/2000/svg" xmlns:xlink="http://www.w3.org/1999/xlink" x="0px" y="0px"
	 width="92px" height="68px" viewBox="0 0 92 68" enable-background="new 0 0 92 68" xml:space="preserve">
<polyline fill="none" stroke="#257EFF" stroke-miterlimit="10" points="21,6.5 3.5,6.5 3.5,54.5 75.5,54.5 75.5,6.5 56,6.5 "/>
<line fill="#FFFFFF" stroke="#257EFF" stroke-miterlimit="10" x1="4" y1="12.5" x2="76" y2="12.5"/>
<g>
	<path fill="#FFFFFF" d="M76,65.25c-6.893,0-12.5-5.607-12.5-12.5s5.607-12.5,12.5-12.5s12.5,5.607,12.5,12.5S82.893,65.25,76,65.25
		z"/>
	<path fill="#257EFF" d="M76,40.75c6.617,0,12,5.383,12,12s-5.383,12-12,12s-12-5.383-12-12S69.383,40.75,76,40.75 M76,39.75
		c-7.18,0-13,5.82-13,13s5.82,13,13,13s13-5.82,13-13S83.18,39.75,76,39.75L76,39.75z"/>
</g>
<g>
	<path fill="#257EFF" d="M19,20v4h-4v-4H19 M20,19h-6v6h6V19L20,19z"/>
</g>
<g>
	<path fill="#257EFF" d="M19,30v4h-4v-4H19 M20,29h-6v6h6V29L20,29z"/>
</g>
<g>
	<path fill="#257EFF" d="M19,40v4h-4v-4H19 M20,39h-6v6h6V39L20,39z"/>
</g>
<g>
	<g>
		<path fill="#A3C9FF" d="M30,20v4h-4v-4H30 M31,19h-6v6h6V19L31,19z"/>
	</g>
	<g>
		<path fill="#A3C9FF" d="M41,20v4h-4v-4H41 M42,19h-6v6h6V19L42,19z"/>
	</g>
	<g>
		<path fill="#A3C9FF" d="M52,20v4h-4v-4H52 M53,19h-6v6h6V19L53,19z"/>
	</g>
	<g>
		<path fill="#A3C9FF" d="M63,20v4h-4v-4H63 M64,19h-6v6h6V19L64,19z"/>
	</g>
	<g>
		<path fill="#A3C9FF" d="M30,30v4h-4v-4H30 M31,29h-6v6h6V29L31,29z"/>
	</g>
	<g>
		<path fill="#A3C9FF" d="M41,30v4h-4v-4H41 M42,29h-6v6h6V29L42,29z"/>
	</g>
	<g>
		<path fill="#A3C9FF" d="M52,30v4h-4v-4H52 M53,29h-6v6h6V29L53,29z"/>
	</g>
	<g>
		<path fill="#A3C9FF" d="M63,30v4h-4v-4H63 M64,29h-6v6h6V29L64,29z"/>
	</g>
	<g>
		<path fill="#A3C9FF" d="M30,40v4h-4v-4H30 M31,39h-6v6h6V39L31,39z"/>
	</g>
	<g>
		<path fill="#A3C9FF" d="M41,40v4h-4v-4H41 M42,39h-6v6h6V39L42,39z"/>
	</g>
	<g>
		<path fill="#A3C9FF" d="M52,40v4h-4v-4H52 M53,39h-6v6h6V39L53,39z"/>
	</g>
	<g>
		<path fill="#A3C9FF" d="M63,40v4h-4v-4H63 M64,39h-6v6h6V39L64,39z"/>
	</g>
</g>
<g>
	<line fill="none" stroke="#257EFF" stroke-miterlimit="10" x1="21.5" y1="3" x2="21.5" y2="9"/>
	<line fill="none" stroke="#257EFF" stroke-miterlimit="10" x1="28.5" y1="3" x2="28.5" y2="9"/>
	<line fill="none" stroke="#257EFF" stroke-miterlimit="10" x1="35.5" y1="3" x2="35.5" y2="9"/>
	<line fill="none" stroke="#257EFF" stroke-miterlimit="10" x1="42.5" y1="3" x2="42.5" y2="9"/>
	<line fill="none" stroke="#257EFF" stroke-miterlimit="10" x1="49.5" y1="3" x2="49.5" y2="9"/>
	<line fill="none" stroke="#257EFF" stroke-miterlimit="10" x1="56.5" y1="3" x2="56.5" y2="9"/>
</g>
<line fill="none" stroke="#257EFF" stroke-miterlimit="10" x1="21" y1="6.5" x2="56" y2="6.5"/>
<line fill="none" stroke="#257EFF" stroke-miterlimit="10" x1="49" y1="6.5" x2="57" y2="6.5"/>
<line fill="none" stroke="#257EFF" stroke-miterlimit="10" x1="35" y1="6.5" x2="43" y2="6.5"/>
<g>
	<circle fill="#B5D4FF" cx="76" cy="52.75" r="9"/>
</g>
<polyline fill="none" stroke="#257EFF" stroke-miterlimit="10" points="71.725,52.95 74.525,55.75 80.525,48.75 "/>
<g>
	<path fill="#257EFF" d="M76,44.75c4.411,0,8,3.589,8,8s-3.589,8-8,8s-8-3.589-8-8S71.589,44.75,76,44.75 M76,43.75
		c-4.971,0-9,4.029-9,9s4.029,9,9,9s9-4.029,9-9S80.971,43.75,76,43.75L76,43.75z"/>
</g>
</svg>
