<?xml version="1.0" encoding="utf-8"?>
<!-- Generator: Adobe Illustrator 16.0.0, SVG Export Plug-In . SVG Version: 6.00 Build 0)  -->
<!DOCTYPE svg PUBLIC "-//W3C//DTD SVG 1.1//EN" "http://www.w3.org/Graphics/SVG/1.1/DTD/svg11.dtd">
<svg version="1.1" id="Layer_1" xmlns="http://www.w3.org/2000/svg" xmlns:xlink="http://www.w3.org/1999/xlink" x="0px" y="0px"
	 width="92px" height="68px" viewBox="0 0 92 68" enable-background="new 0 0 92 68" xml:space="preserve">
<g>
	<path fill="#257EFF" d="M81,7v46H11V7H81 M82,6H10v48h72V6L82,6z"/>
</g>
<g>
	<path fill="#257EFF" d="M76,12v36H16V12H76 M77,11H15v38h62V11L77,11z"/>
</g>
<g>
	<g>
		<circle fill="#257EFF" cx="21" cy="17.5" r="1.5"/>
	</g>
	<g>
		<circle fill="#257EFF" cx="27" cy="17.5" r="1.5"/>
	</g>
	<g>
		<circle fill="#257EFF" cx="33" cy="17.5" r="1.5"/>
	</g>
</g>
<line fill="none" stroke="#257EFF" stroke-miterlimit="10" x1="54.5" y1="53" x2="54.5" y2="63"/>
<line fill="none" stroke="#257EFF" stroke-miterlimit="10" x1="36.5" y1="63" x2="36.5" y2="53"/>
<line fill="none" stroke="#257EFF" stroke-miterlimit="10" x1="30" y1="62.5" x2="62" y2="62.5"/>
<g>
	<line fill="none" stroke="#257EFF" stroke-miterlimit="10" x1="20" y1="25.5" x2="40" y2="25.5"/>
	<line fill="none" stroke="#257EFF" stroke-miterlimit="10" x1="20" y1="35.5" x2="40" y2="35.5"/>
	<g>
		<line fill="none" stroke="#257EFF" stroke-miterlimit="10" x1="20" y1="29.5" x2="32" y2="29.5"/>
		<line fill="none" stroke="#257EFF" stroke-miterlimit="10" x1="20" y1="39.5" x2="32" y2="39.5"/>
	</g>
</g>
<g>
	<path fill="none" d="M10,53v-4H6C6,51.205,7.794,53,10,53z"/>
	<path fill="#257EFF" d="M6,49H5c0,2.761,2.239,5,5,5v-1C7.794,53,6,51.205,6,49z"/>
</g>
<g>
	<path fill="none" d="M6,11h4V7C7.795,7,6,8.795,6,11z"/>
	<path fill="#257EFF" d="M10,7V6c-2.761,0-5,2.238-5,5h1C6,8.795,7.795,7,10,7z"/>
</g>
<rect x="5" y="11" fill="#257EFF" width="1" height="38"/>
<path fill="#B5D4FF" d="M6.142,10H6v40h0.142c0.447,1.72,2,3,3.858,3v-3v-1V11v-1V7C8.142,7,6.589,8.28,6.142,10z"/>
<circle fill="#B5D4FF" cx="58" cy="30.5" r="10"/>
<g>
	<path fill="#257EFF" d="M58,20.5V31h10C68,25,63.523,20.5,58,20.5z"/>
</g>
<circle fill="none" stroke="#257EFF" stroke-miterlimit="10" cx="58" cy="30.5" r="10"/>
<circle fill="none" stroke="#A3C9FF" stroke-miterlimit="10" cx="58" cy="30.5" r="14"/>
<path fill="none" stroke="#257EFF" stroke-miterlimit="10" d="M58,16.5c7.732,0,14,6.267,14,14"/>
</svg>
