<?xml version="1.0" encoding="utf-8"?>
<!-- Generator: Adobe Illustrator 16.0.0, SVG Export Plug-In . SVG Version: 6.00 Build 0)  -->
<!DOCTYPE svg PUBLIC "-//W3C//DTD SVG 1.1//EN" "http://www.w3.org/Graphics/SVG/1.1/DTD/svg11.dtd">
<svg version="1.1" id="Layer_1" xmlns="http://www.w3.org/2000/svg" xmlns:xlink="http://www.w3.org/1999/xlink" x="0px" y="0px"
	 width="92px" height="68px" viewBox="0 0 92 68" enable-background="new 0 0 92 68" xml:space="preserve">
<g>
	<path fill="none" stroke="#257EFF" stroke-miterlimit="10" d="M61.216,40.549c6.592-0.685,11.381-6.583,10.696-13.177
		c-0.684-6.59-6.583-11.38-13.175-10.695c-1.053,0.109-2.052,0.364-2.997,0.722C54.202,8.079,45.667,1.446,36.145,2.436
		C27.917,3.289,21.583,9.563,20.27,17.338c-1.636-0.582-3.42-0.834-5.265-0.643C8.412,17.382,3.624,23.279,4.309,29.87
		c0.685,6.593,6.583,11.383,13.176,10.698"/>
</g>
<g>
	<g>
		<path fill="#B5D4FF" d="M52.023,22C52.023,14,45,7,37,7v15H52.023z"/>
	</g>
	<g>
		<path fill="none" stroke="#257EFF" stroke-miterlimit="10" d="M52.023,21.5C52.023,13.5,45.5,7,37.5,7v14.5H52.023z"/>
	</g>
</g>
<g>
	<rect x="13" y="27" fill="#FFFFFF" width="67" height="39"/>
	<path fill="#257EFF" d="M79,28v38H13V28H79 M80,27H12v40h68V27L80,27z"/>
</g>
<rect x="12.023" y="27" fill="#B5D4FF" width="5" height="40"/>
<line fill="none" stroke="#257EFF" stroke-miterlimit="10" x1="17" y1="46.5" x2="79" y2="46.5"/>
<g>
	<path fill="#257EFF" d="M16.023,28v38h-4V28H16.023 M17.023,27h-6v40h6V27L17.023,27z"/>
</g>
<circle fill="#257EFF" stroke="#257EFF" stroke-linecap="round" stroke-linejoin="round" stroke-miterlimit="10" cx="28.333" cy="36" r="2.5"/>
<circle fill="#257EFF" stroke="#257EFF" stroke-linecap="round" stroke-linejoin="round" stroke-miterlimit="10" cx="42.333" cy="36" r="2.5"/>
<circle fill="none" stroke="#257EFF" stroke-linecap="round" stroke-linejoin="round" stroke-miterlimit="10" cx="28.333" cy="56" r="2.5"/>
<circle fill="none" stroke="#257EFF" stroke-linecap="round" stroke-linejoin="round" stroke-miterlimit="10" cx="42.333" cy="56" r="2.5"/>
</svg>
