<?xml version="1.0" encoding="utf-8"?>
<!-- Generator: Adobe Illustrator 16.0.0, SVG Export Plug-In . SVG Version: 6.00 Build 0)  -->
<!DOCTYPE svg PUBLIC "-//W3C//DTD SVG 1.1//EN" "http://www.w3.org/Graphics/SVG/1.1/DTD/svg11.dtd">
<svg version="1.1" id="Layer_1" xmlns="http://www.w3.org/2000/svg" xmlns:xlink="http://www.w3.org/1999/xlink" x="0px" y="0px"
	 width="114px" height="58px" viewBox="0 0 114 58" enable-background="new 0 0 114 58" xml:space="preserve">
<g>
	<path fill="#969899" d="M57.001,0.5C41.261,0.5,28.5,13.262,28.5,29.002C28.5,44.74,41.261,57.5,57.001,57.5
		C72.739,57.5,85.5,44.74,85.5,29.002C85.5,13.262,72.739,0.5,57.001,0.5z M57.001,56.783c-15.347,0-27.784-12.438-27.784-27.781
		c0-15.348,12.438-27.786,27.784-27.786c15.345,0,27.785,12.438,27.785,27.786C84.786,44.345,72.346,56.783,57.001,56.783z"/>
	<path fill="#969899" d="M57.001,3.174c-14.263,0-25.828,11.562-25.828,25.828c0,14.265,11.565,25.826,25.828,25.826
		c14.264,0,25.826-11.562,25.826-25.826C82.827,14.735,71.265,3.174,57.001,3.174z M57.001,52.543
		c-13.002,0-23.541-10.539-23.541-23.541c0-13.004,10.539-23.541,23.541-23.541c13.004,0,23.541,10.537,23.541,23.541
		C80.542,42.004,70.005,52.543,57.001,52.543z"/>
	<path fill="#969899" d="M74.902,40.265c-1.761-1.649-3.975-2.752-6.392-3.138c-0.346-0.054-0.656,0.212-0.659,0.56
		c0,0.285,0,0.595,0,0.876c0,0.262-0.196,0.557-0.459,0.557c-0.188,0-0.379,0.004-0.566,0c-0.676-0.01-0.8-0.836-0.663-1.324
		c1.435-5.146,1.786-8.27,1.771-10.545c-0.018-2.418-0.079-4.825-1.169-8.013c-1.047-3.067-2.007-6.07-7.075-10.659
		c-0.346-0.31-0.691-0.465-1.154-0.495c-0.499-0.035-0.909-0.052-1.415-0.052c-2.105,0-4.134,0.311-6.053,0.885
		c-0.721,0.216-0.612,0.716-0.215,1.056c1.911,1.64,4.507,4.099,6.296,7.17c-1.133,0.111-1.999-0.52-2.727-1.216
		c-2.394-2.281-4.884-3.9-6.863-5.014c-0.344-0.192-0.683-0.272-1.023-0.076c-2.182,1.268-3.65,2.461-5.383,4.468
		c-0.294,0.341-0.102,0.608,0.186,0.762c1.893,1.004,4.857,2.907,7.574,5.38c-0.554,0.465-1.432,0.314-2.703-0.355
		c-2.447-1.287-4.798-2.022-6.593-2.484c-0.385-0.099-0.795,0.01-0.993,0.354c-1.149,1.994-1.94,4.381-2.315,6.806
		c-0.073,0.465,0.243,0.875,0.706,0.955c4.184,0.735,11.638,2.696,12.876,11.287c0.11,0.753-0.574,1.416-1.479,0.991
		c-1.257-0.591-2.512-1.178-3.768-1.766c-0.132-0.062-0.28-0.113-0.425-0.113c-2.024,0-3.901,0-5.923,0
		c-0.842,0-1.189,0.802-0.643,1.431c1.426,1.641,2.732,3.407,3.848,5.286c0.101,0.167,0.213,0.231,0.406,0.231
		c0.86,0,1.727,0,2.587,0c0.175,0,0.327-0.042,0.477-0.131c0.813-0.476,1.627-0.952,2.438-1.43c0.151-0.092,0.306-0.089,0.479-0.089
		c6.237,0,12.926,0,19.493,0c0.26,0,0.47,0.172,0.47,0.435c0,0.319,0,0.635,0,0.958c0.003,0.347,0.313,0.612,0.659,0.559
		c2.417-0.383,4.631-1.49,6.392-3.14C75.181,40.97,75.181,40.525,74.902,40.265z M60.806,36.684c-1.453,0-2.625-1.177-2.625-2.626
		c0-1.452,1.172-2.629,2.625-2.629c1.448,0,2.625,1.177,2.625,2.629C63.431,35.507,62.254,36.684,60.806,36.684z"/>
</g>
<rect fill="none" width="114" height="58"/>
</svg>
