<?xml version="1.0" encoding="utf-8"?>
<!-- Generator: Adobe Illustrator 16.0.0, SVG Export Plug-In . SVG Version: 6.00 Build 0)  -->
<!DOCTYPE svg PUBLIC "-//W3C//DTD SVG 1.1//EN" "http://www.w3.org/Graphics/SVG/1.1/DTD/svg11.dtd">
<svg version="1.1" id="Layer_1" xmlns="http://www.w3.org/2000/svg" xmlns:xlink="http://www.w3.org/1999/xlink" x="0px" y="0px"
	 width="114px" height="58px" viewBox="0 0 114 58" enable-background="new 0 0 114 58" xml:space="preserve">
<g>
	<path fill-rule="evenodd" clip-rule="evenodd" fill="#969899" d="M57.012,56c-14.916,0.006-27.048-12.118-27.021-27.016
		C30.014,14.068,42.099,1.996,57.003,2C71.908,2.002,84,14.091,84.009,28.995C84.018,43.888,71.913,55.993,57.012,56z M68.289,11.3
		c-0.067,0.145-0.122,0.25-0.169,0.358c-2.461,5.473-4.921,10.948-7.376,16.423c-0.117,0.257-0.244,0.37-0.546,0.369
		c-2.135-0.018-4.263-0.016-6.392-0.002c-0.266,0-0.396-0.076-0.509-0.322c-1.966-4.38-3.94-8.755-5.915-13.135
		c-0.551-1.223-1.103-2.442-1.659-3.668c-0.052,0.019-0.089,0.026-0.12,0.045c-0.09,0.054-0.18,0.115-0.268,0.175
		c-1.945,1.303-3.625,2.889-5.057,4.742c-0.179,0.233-0.187,0.406-0.07,0.666c2.849,6.302,5.694,12.606,8.539,18.911
		c0.315,0.702,0.629,1.4,0.965,2.144c0.074-0.158,0.127-0.263,0.176-0.371c1.136-2.526,2.279-5.048,3.403-7.578
		c0.115-0.256,0.241-0.35,0.525-0.347c2.121,0.011,4.239,0.011,6.357,0c0.283-0.003,0.414,0.088,0.529,0.345
		c1.125,2.53,2.267,5.054,3.403,7.578c0.051,0.11,0.105,0.217,0.175,0.358c0.067-0.145,0.119-0.239,0.16-0.335
		c0.902-1.995,1.802-3.985,2.703-5.978c2.214-4.897,4.425-9.794,6.647-14.683c0.129-0.288,0.124-0.487-0.088-0.723
		c-0.438-0.49-0.829-1.014-1.269-1.496C71.218,13.439,69.841,12.292,68.289,11.3z M36.716,23.633
		c-1.173,4.192-1.042,9.739,1.5,14.758c2.08,4.103,5.179,7.197,9.328,9.266C43.942,39.667,40.342,31.68,36.716,23.633z
		 M77.288,23.694c-3.629,8.029-7.231,15.999-10.869,24.046C76.022,42.933,79.671,32.239,77.288,23.694z M51.104,8.844
		c1.973,4.363,3.921,8.671,5.896,13.041c1.98-4.386,3.926-8.699,5.885-13.042C58.932,7.734,55.042,7.734,51.104,8.844z
		 M51.202,49.185c3.898,1.069,7.719,1.075,11.586-0.005c-1.938-4.3-3.851-8.544-5.791-12.846
		C55.052,40.647,53.139,44.892,51.202,49.185z"/>
</g>
<rect fill="none" width="114" height="58"/>
</svg>
