<?xml version="1.0" encoding="utf-8"?>
<!-- Generator: Adobe Illustrator 16.0.0, SVG Export Plug-In . SVG Version: 6.00 Build 0)  -->
<!DOCTYPE svg PUBLIC "-//W3C//DTD SVG 1.1//EN" "http://www.w3.org/Graphics/SVG/1.1/DTD/svg11.dtd">
<svg version="1.1" xmlns="http://www.w3.org/2000/svg" xmlns:xlink="http://www.w3.org/1999/xlink" x="0px" y="0px" width="140px"
	 height="27px" viewBox="0 0 140 27" enable-background="new 0 0 140 27" xml:space="preserve">
<g id="Layer_1">
	<path fill="#257EFF" d="M48.659,4.738H45.38V1.457h3.279V4.738z M8.121,21.479c4.11,0,7.388-3.213,7.388-7.355
		c0-4.169-3.277-7.359-7.388-7.359c-4.086,0-7.389,3.19-7.389,7.359C0.732,18.267,4.035,21.479,8.121,21.479z M8.121,18.546
		c-2.464,0-4.365-1.877-4.365-4.422s1.901-4.419,4.365-4.419c2.462,0,4.365,1.874,4.365,4.419S10.583,18.546,8.121,18.546z
		 M25.947,6.765c-2.185,0-3.834,0.897-4.897,2.376V7.125h-3.021v19.59h3.021v-7.583c1.063,1.455,2.713,2.348,4.897,2.348
		c3.807,0,6.965-3.188,6.965-7.355C32.912,9.98,29.754,6.765,25.947,6.765z M25.471,18.6c-2.519,0-4.421-1.874-4.421-4.476
		c0-2.604,1.902-4.479,4.421-4.479c2.52,0,4.421,1.875,4.421,4.479C29.892,16.726,27.99,18.6,25.471,18.6z M42.989,10.038V7.125
		h-3.471V3.208h-3.021v3.917h-2.574v2.913h2.574v6.712c0,3.639,1.849,4.928,6.492,4.369v-2.714
		c-2.297,0.111-3.471,0.141-3.471-1.655v-6.712H42.989z M45.507,21.119h3.022V7.125h-3.022V21.119z M67.334,6.765
		c-1.872,0-3.356,0.753-4.28,2.209c-0.811-1.4-2.153-2.209-3.975-2.209c-1.733,0-3.104,0.672-3.998,2.041V7.125h-3.023v13.994h3.023
		v-7.837c0-2.547,1.397-3.694,3.103-3.694c1.649,0,2.633,1.092,2.633,3.052v8.479h3.021v-7.837c0-2.547,1.259-3.694,3.052-3.694
		c1.649,0,2.713,1.092,2.713,3.052v8.479h3.022v-8.674C72.624,8.945,70.499,6.765,67.334,6.765z M87.021,7.125v1.988
		c-1.065-1.451-2.716-2.349-4.898-2.349c-3.805,0-6.967,3.19-6.967,7.359c0,4.143,3.162,7.355,6.967,7.355
		c2.183,0,3.833-0.893,4.898-2.375v2.015h3.022V7.125H87.021z M82.6,18.6c-2.519,0-4.424-1.874-4.424-4.476
		c0-2.604,1.905-4.479,4.424-4.479c2.517,0,4.421,1.875,4.421,4.479C87.021,16.726,85.116,18.6,82.6,18.6z M101.123,10.038V7.125
		h-3.468V3.208h-3.023v3.917h-2.574v2.913h2.574v6.712c0,3.639,1.848,4.928,6.491,4.369v-2.714
		c-2.293,0.111-3.468,0.141-3.468-1.655v-6.712H101.123z M105.153,5.027c1.064,0,1.931-0.895,1.931-1.928
		c0-1.066-0.866-1.935-1.931-1.935c-1.061,0-1.93,0.868-1.93,1.935C103.224,4.133,104.093,5.027,105.153,5.027z M103.643,21.119
		h3.023V7.125h-3.023V21.119z M116.557,21.479c2.745,0,5.12-1.424,6.298-3.636l-2.604-1.478c-0.67,1.281-2.041,2.15-3.72,2.15
		c-2.462,0-4.34-1.876-4.34-4.393c0-2.519,1.878-4.394,4.34-4.394c1.679,0,3.05,0.836,3.663,2.154l2.604-1.513
		c-1.121-2.183-3.496-3.607-6.241-3.607c-4.224,0-7.388,3.19-7.388,7.359C109.169,18.267,112.333,21.479,116.557,21.479z
		 M135.979,7.125v1.988c-1.065-1.451-2.715-2.349-4.898-2.349c-3.806,0-6.969,3.19-6.969,7.359c0,4.143,3.163,7.355,6.969,7.355
		c2.184,0,3.833-0.893,4.898-2.375v2.015H139V7.125H135.979z M131.556,18.6c-2.52,0-4.419-1.874-4.419-4.476
		c0-2.604,1.899-4.479,4.419-4.479c2.516,0,4.423,1.875,4.423,4.479C135.979,16.726,134.071,18.6,131.556,18.6z"/>
</g>
<g id="Layer_2" display="none">
</g>
</svg>
