<?xml version="1.0" encoding="utf-8"?>
<!-- Generator: Adobe Illustrator 16.0.0, SVG Export Plug-In . SVG Version: 6.00 Build 0)  -->
<!DOCTYPE svg PUBLIC "-//W3C//DTD SVG 1.1//EN" "http://www.w3.org/Graphics/SVG/1.1/DTD/svg11.dtd">
<svg version="1.1" xmlns="http://www.w3.org/2000/svg" xmlns:xlink="http://www.w3.org/1999/xlink" x="0px" y="0px" width="152px"
	 height="34px" viewBox="0 0 152 34" enable-background="new 0 0 152 34" xml:space="preserve">
<g id="Layer_1">
	<path fill="#0066FF" d="M54.659,8.613H51.38V5.332h3.279V8.613z M14.121,25.354c4.11,0,7.388-3.213,7.388-7.355
		c0-4.169-3.277-7.359-7.388-7.359c-4.086,0-7.389,3.19-7.389,7.359C6.732,22.142,10.035,25.354,14.121,25.354z M14.121,22.421
		c-2.464,0-4.365-1.877-4.365-4.422s1.901-4.419,4.365-4.419c2.462,0,4.365,1.874,4.365,4.419S16.583,22.421,14.121,22.421z
		 M31.947,10.64c-2.185,0-3.834,0.897-4.897,2.376V11h-3.021v19.59h3.021v-7.583c1.063,1.455,2.713,2.348,4.897,2.348
		c3.807,0,6.965-3.188,6.965-7.355C38.912,13.855,35.754,10.64,31.947,10.64z M31.471,22.475c-2.519,0-4.421-1.874-4.421-4.476
		c0-2.604,1.902-4.479,4.421-4.479c2.52,0,4.421,1.875,4.421,4.479C35.892,20.601,33.99,22.475,31.471,22.475z M48.989,13.913V11
		h-3.471V7.083h-3.021V11h-2.574v2.913h2.574v6.712c0,3.639,1.849,4.928,6.492,4.369V22.28c-2.297,0.111-3.471,0.141-3.471-1.655
		v-6.712H48.989z M51.507,24.994h3.022V11h-3.022V24.994z M73.334,10.64c-1.872,0-3.356,0.753-4.28,2.209
		c-0.811-1.4-2.153-2.209-3.975-2.209c-1.733,0-3.104,0.672-3.998,2.041V11h-3.023v13.994h3.023v-7.837
		c0-2.547,1.397-3.694,3.103-3.694c1.649,0,2.633,1.092,2.633,3.052v8.479h3.021v-7.837c0-2.547,1.259-3.694,3.052-3.694
		c1.649,0,2.713,1.092,2.713,3.052v8.479h3.022V16.32C78.624,12.82,76.499,10.64,73.334,10.64z M93.021,11v1.988
		c-1.065-1.451-2.716-2.349-4.898-2.349c-3.805,0-6.967,3.19-6.967,7.359c0,4.143,3.162,7.355,6.967,7.355
		c2.183,0,3.833-0.893,4.898-2.375v2.015h3.022V11H93.021z M88.6,22.475c-2.519,0-4.424-1.874-4.424-4.476
		c0-2.604,1.905-4.479,4.424-4.479c2.517,0,4.421,1.875,4.421,4.479C93.021,20.601,91.116,22.475,88.6,22.475z M107.123,13.913V11
		h-3.468V7.083h-3.023V11h-2.574v2.913h2.574v6.712c0,3.639,1.848,4.928,6.491,4.369V22.28c-2.293,0.111-3.468,0.141-3.468-1.655
		v-6.712H107.123z M111.153,8.902c1.064,0,1.931-0.895,1.931-1.928c0-1.066-0.866-1.935-1.931-1.935c-1.061,0-1.93,0.868-1.93,1.935
		C109.224,8.008,110.093,8.902,111.153,8.902z M109.643,24.994h3.023V11h-3.023V24.994z M122.557,25.354
		c2.745,0,5.12-1.424,6.298-3.636l-2.604-1.478c-0.67,1.281-2.041,2.15-3.72,2.15c-2.462,0-4.34-1.876-4.34-4.393
		c0-2.519,1.878-4.394,4.34-4.394c1.679,0,3.05,0.836,3.663,2.154l2.604-1.513c-1.121-2.183-3.496-3.607-6.241-3.607
		c-4.224,0-7.388,3.19-7.388,7.359C115.169,22.142,118.333,25.354,122.557,25.354z M141.979,11v1.988
		c-1.065-1.451-2.715-2.349-4.898-2.349c-3.806,0-6.969,3.19-6.969,7.359c0,4.143,3.163,7.355,6.969,7.355
		c2.184,0,3.833-0.893,4.898-2.375v2.015H145V11H141.979z M137.556,22.475c-2.52,0-4.419-1.874-4.419-4.476
		c0-2.604,1.899-4.479,4.419-4.479c2.516,0,4.423,1.875,4.423,4.479C141.979,20.601,140.071,22.475,137.556,22.475z"/>
</g>
<g id="Layer_2" display="none">
</g>
</svg>
