<?xml version="1.0" encoding="utf-8"?>
<!-- Generator: Adobe Illustrator 16.0.0, SVG Export Plug-In . SVG Version: 6.00 Build 0)  -->
<!DOCTYPE svg PUBLIC "-//W3C//DTD SVG 1.1//EN" "http://www.w3.org/Graphics/SVG/1.1/DTD/svg11.dtd">
<svg version="1.1" xmlns="http://www.w3.org/2000/svg" xmlns:xlink="http://www.w3.org/1999/xlink" x="0px" y="0px" width="319px"
	 height="48px" viewBox="0 0 319 48" enable-background="new 0 0 319 48" xml:space="preserve">
<g id="Layer_1">
	<path fill="#FFFFFF" d="M56.693,13.27h-3.751V9.517h3.751V13.27z M10.331,32.417c4.701,0,8.448-3.675,8.448-8.413
		c0-4.768-3.747-8.416-8.448-8.416c-4.673,0-8.449,3.648-8.449,8.416C1.882,28.742,5.658,32.417,10.331,32.417z M10.331,29.061
		c-2.816,0-4.992-2.146-4.992-5.057c0-2.911,2.176-5.054,4.992-5.054s4.991,2.143,4.991,5.054
		C15.322,26.914,13.147,29.061,10.331,29.061z M30.719,15.588c-2.498,0-4.386,1.025-5.602,2.719V16h-3.456v22.403h3.456V29.73
		c1.216,1.664,3.104,2.687,5.602,2.687c4.353,0,7.967-3.646,7.967-8.413C38.686,19.265,35.071,15.588,30.719,15.588z M30.171,29.122
		c-2.878,0-5.054-2.144-5.054-5.118c0-2.977,2.176-5.122,5.054-5.122c2.884,0,5.059,2.146,5.059,5.122
		C35.229,26.979,33.055,29.122,30.171,29.122z M50.209,19.331V16h-3.97v-4.479h-3.456V16h-2.944v3.331h2.944v7.677
		c0,4.161,2.114,5.636,7.426,4.995V28.9c-2.627,0.128-3.97,0.16-3.97-1.893v-7.677H50.209z M53.088,32.003h3.456V16h-3.456V32.003z
		 M78.05,15.588c-2.142,0-3.84,0.861-4.894,2.526c-0.929-1.6-2.465-2.526-4.548-2.526c-1.98,0-3.55,0.768-4.572,2.335V16h-3.457
		v16.003h3.457v-8.96c0-2.913,1.6-4.227,3.55-4.227c1.886,0,3.01,1.249,3.01,3.49v9.696h3.455v-8.96
		c0-2.913,1.439-4.227,3.489-4.227c1.886,0,3.102,1.249,3.102,3.49v9.696H84.1v-9.919C84.1,18.083,81.669,15.588,78.05,15.588z
		 M100.562,16v2.273c-1.218-1.66-3.104-2.686-5.601-2.686c-4.352,0-7.968,3.648-7.968,8.416c0,4.738,3.616,8.413,7.968,8.413
		c2.496,0,4.383-1.022,5.601-2.717v2.303h3.457V16H100.562z M95.507,29.122c-2.88,0-5.058-2.144-5.058-5.118
		c0-2.977,2.178-5.122,5.058-5.122s5.056,2.146,5.056,5.122C100.562,26.979,98.387,29.122,95.507,29.122z M116.692,19.331V16h-3.967
		v-4.479h-3.457V16h-2.945v3.331h2.945v7.677c0,4.161,2.111,5.636,7.424,4.995V28.9c-2.624,0.128-3.967,0.16-3.967-1.893v-7.677
		H116.692z M121.301,13.602c1.219,0,2.209-1.023,2.209-2.207c0-1.217-0.99-2.211-2.209-2.211c-1.213,0-2.207,0.994-2.207,2.211
		C119.094,12.578,120.088,13.602,121.301,13.602z M119.574,32.003h3.457V16h-3.457V32.003z M134.343,32.417
		c3.138,0,5.856-1.63,7.202-4.157l-2.979-1.691c-0.768,1.466-2.334,2.46-4.254,2.46c-2.815,0-4.964-2.146-4.964-5.024
		c0-2.881,2.148-5.024,4.964-5.024c1.92,0,3.486,0.956,4.189,2.463l2.977-1.729c-1.279-2.495-3.998-4.126-7.136-4.126
		c-4.832,0-8.449,3.648-8.449,8.416C125.894,28.742,129.511,32.417,134.343,32.417z M156.553,16v2.273
		c-1.217-1.66-3.104-2.686-5.601-2.686c-4.354,0-7.969,3.648-7.969,8.416c0,4.738,3.615,8.413,7.969,8.413
		c2.497,0,4.384-1.022,5.601-2.717v2.303h3.457V16H156.553z M151.496,29.122c-2.884,0-5.055-2.144-5.055-5.118
		c0-2.977,2.171-5.122,5.055-5.122c2.878,0,5.057,2.146,5.057,5.122C156.553,26.979,154.374,29.122,151.496,29.122z"/>
	<g>
		<path fill="#FFFFFF" d="M187.418,16.149c0-2.223,1.672-3.993,4.026-3.993c1.42,0,2.674,0.736,3.323,1.87l-0.892,0.517
			c-0.44-0.847-1.375-1.396-2.432-1.396c-1.804,0-3.014,1.309-3.014,3.003c0,1.684,1.21,2.992,3.014,2.992
			c1.057,0,1.991-0.55,2.432-1.386l0.892,0.506c-0.639,1.133-1.893,1.881-3.323,1.881C189.09,20.143,187.418,18.36,187.418,16.149z"
			/>
		<path fill="#FFFFFF" d="M200.638,14.499V20h-0.946v-3.861L196.644,20h-0.77v-5.501h0.945v3.861l3.048-3.861H200.638z"/>
		<path fill="#FFFFFF" d="M201.949,17.25c0-1.629,1.232-2.894,2.894-2.894c1.089,0,2.014,0.572,2.432,1.441l-0.804,0.462
			c-0.274-0.583-0.891-0.969-1.628-0.969c-1.101,0-1.937,0.848-1.937,1.959c0,1.1,0.836,1.947,1.937,1.947
			c0.748,0,1.354-0.386,1.661-0.957l0.814,0.473c-0.462,0.858-1.397,1.43-2.476,1.43C203.182,20.143,201.949,18.878,201.949,17.25z"
			/>
		<path fill="#FFFFFF" d="M212.683,15.424h-1.87V20h-0.957v-4.576h-1.881v-0.925h4.708V15.424z"/>
		<path fill="#FFFFFF" d="M216.248,19.241c0.759,0,1.309-0.353,1.584-0.804l0.814,0.462c-0.484,0.749-1.32,1.243-2.421,1.243
			c-1.771,0-2.948-1.243-2.948-2.893c0-1.629,1.166-2.894,2.883-2.894c1.661,0,2.739,1.364,2.739,2.904
			c0,0.143-0.011,0.286-0.033,0.429h-4.609C214.443,18.68,215.225,19.241,216.248,19.241z M214.257,16.854h3.674
			c-0.165-1.089-0.945-1.595-1.771-1.595C215.126,15.259,214.41,15.896,214.257,16.854z"/>
		<path fill="#FFFFFF" d="M225.67,20h-0.935v-3.993l-1.749,2.816h-0.121l-1.75-2.816V20h-0.945v-5.501h1.022l1.728,2.783
			l1.728-2.783h1.022V20z"/>
		<path fill="#FFFFFF" d="M232.812,14.499V20h-0.957v-0.946c-0.44,0.671-1.145,1.089-2.08,1.089c-1.529,0-2.783-1.265-2.783-2.893
			c0-1.629,1.254-2.894,2.783-2.894c0.936,0,1.64,0.418,2.08,1.089v-0.946H232.812z M231.855,17.25c0-1.123-0.848-1.97-1.959-1.97
			c-1.1,0-1.947,0.847-1.947,1.97c0,1.122,0.848,1.969,1.947,1.969C231.008,19.219,231.855,18.372,231.855,17.25z"/>
		<path fill="#FFFFFF" d="M242.646,14.499l-2.244,5.842c-0.462,1.232-1.343,1.937-2.442,1.859V21.31
			c0.737,0.055,1.199-0.386,1.485-1.101l0.088-0.198l-2.388-5.512h1.013l1.881,4.312l1.584-4.312H242.646z"/>
		<path fill="#FFFFFF" d="M248.366,20h-0.958v-4.588h-2.849V20h-0.957v-5.501h4.764V20z"/>
		<path fill="#FFFFFF" d="M255.81,17.25c0,1.628-1.254,2.893-2.783,2.893c-0.936,0-1.64-0.418-2.079-1.089V22.2h-0.957v-7.701h0.957
			v0.946c0.439-0.671,1.144-1.089,2.079-1.089C254.556,14.356,255.81,15.621,255.81,17.25z M254.853,17.25
			c0-1.123-0.848-1.97-1.947-1.97c-1.111,0-1.958,0.847-1.958,1.97c0,1.122,0.847,1.969,1.958,1.969
			C254.005,19.219,254.853,18.372,254.853,17.25z"/>
		<path fill="#FFFFFF" d="M262.608,14.499V20h-0.958v-0.946c-0.439,0.671-1.144,1.089-2.079,1.089c-1.529,0-2.783-1.265-2.783-2.893
			c0-1.629,1.254-2.894,2.783-2.894c0.936,0,1.64,0.418,2.079,1.089v-0.946H262.608z M261.65,17.25c0-1.123-0.847-1.97-1.958-1.97
			c-1.1,0-1.947,0.847-1.947,1.97c0,1.122,0.848,1.969,1.947,1.969C260.804,19.219,261.65,18.372,261.65,17.25z"/>
		<path fill="#FFFFFF" d="M268.747,18.449c0,0.869-0.583,1.551-1.76,1.551h-2.75v-5.501h2.53c1.133,0,1.727,0.639,1.727,1.496
			c0,0.518-0.197,0.925-0.594,1.178C268.45,17.403,268.747,17.854,268.747,18.449z M265.172,15.357v1.441h1.552
			c0.55,0,0.836-0.253,0.836-0.737c0-0.44-0.286-0.704-0.836-0.704H265.172z M267.802,18.372c0-0.451-0.309-0.727-0.869-0.727
			h-1.761v1.485h1.761C267.504,19.131,267.802,18.845,267.802,18.372z"/>
		<path fill="#FFFFFF" d="M274.679,20h-0.957v-4.576h-2.167v2.244c0,1.892-0.848,2.442-2.079,2.332v-0.902
			c0.715,0.1,1.122-0.23,1.122-1.452v-3.146h4.081V20z"/>
		<path fill="#FFFFFF" d="M278.942,19.241c0.759,0,1.309-0.353,1.584-0.804l0.814,0.462c-0.484,0.749-1.32,1.243-2.421,1.243
			c-1.771,0-2.948-1.243-2.948-2.893c0-1.629,1.166-2.894,2.883-2.894c1.661,0,2.739,1.364,2.739,2.904
			c0,0.143-0.011,0.286-0.033,0.429h-4.609C277.138,18.68,277.919,19.241,278.942,19.241z M276.951,16.854h3.674
			c-0.165-1.089-0.945-1.595-1.771-1.595C277.82,15.259,277.104,15.896,276.951,16.854z"/>
		<path fill="#FFFFFF" d="M287.627,14.499V20h-0.958v-2.3h-2.849V20h-0.957v-5.501h0.957v2.288h2.849v-2.288H287.627z"/>
		<path fill="#FFFFFF" d="M294.015,14.499V20h-0.946v-3.861L290.021,20h-0.77v-5.501h0.945v3.861l3.048-3.861H294.015z"/>
		<path fill="#FFFFFF" d="M299.682,20h-0.946v-1.98h-0.803L296.392,20h-1.166l1.606-2.035c-0.814-0.198-1.386-0.858-1.386-1.694
			c0-1.001,0.803-1.771,1.892-1.771h2.344V20z M298.735,17.161v-1.771h-1.364c-0.528,0-0.979,0.33-0.979,0.891
			c0,0.551,0.451,0.88,0.979,0.88H298.735z"/>
		<path fill="#FFFFFF" d="M193.216,31.087v2.388h-0.946V32h-4.125v1.475h-0.946v-2.388h0.671c0.33-0.451,0.528-0.99,0.528-2.035
			v-2.553h4.06v4.588H193.216z M191.511,31.087v-3.696h-2.167v1.661c0,0.88-0.133,1.507-0.386,2.035H191.511z"/>
		<path fill="#FFFFFF" d="M199.182,26.499V32h-0.946v-3.861L195.188,32h-0.77v-5.501h0.945v3.861l3.048-3.861H199.182z"/>
		<path fill="#FFFFFF" d="M205.357,32H204.4v-4.576h-2.167v2.244c0,1.892-0.848,2.442-2.079,2.332v-0.902
			c0.715,0.1,1.122-0.23,1.122-1.452v-3.146h4.081V32z"/>
		<path fill="#FFFFFF" d="M209.621,31.241c0.759,0,1.309-0.353,1.584-0.804l0.814,0.462c-0.484,0.749-1.32,1.243-2.421,1.243
			c-1.771,0-2.948-1.243-2.948-2.893c0-1.629,1.166-2.894,2.883-2.894c1.661,0,2.739,1.364,2.739,2.904
			c0,0.143-0.011,0.286-0.033,0.429h-4.609C207.816,30.68,208.598,31.241,209.621,31.241z M207.63,28.854h3.674
			c-0.165-1.089-0.945-1.595-1.771-1.595C208.499,27.259,207.783,27.896,207.63,28.854z"/>
		<path fill="#FFFFFF" d="M219.361,29.25c0,1.628-1.254,2.893-2.783,2.893c-0.936,0-1.64-0.418-2.079-1.089V34.2h-0.957v-7.701
			h0.957v0.946c0.439-0.671,1.144-1.089,2.079-1.089C218.107,26.356,219.361,27.621,219.361,29.25z M218.404,29.25
			c0-1.123-0.848-1.97-1.947-1.97c-1.111,0-1.958,0.847-1.958,1.97c0,1.122,0.847,1.969,1.958,1.969
			C217.557,31.219,218.404,30.372,218.404,29.25z"/>
		<path fill="#FFFFFF" d="M220.34,29.25c0-1.629,1.232-2.894,2.894-2.894c1.089,0,2.014,0.572,2.432,1.441l-0.804,0.462
			c-0.274-0.583-0.891-0.969-1.628-0.969c-1.101,0-1.937,0.848-1.937,1.959c0,1.1,0.836,1.947,1.937,1.947
			c0.748,0,1.354-0.386,1.661-0.957l0.814,0.473c-0.462,0.858-1.397,1.43-2.476,1.43C221.572,32.143,220.34,30.878,220.34,29.25z"/>
		<path fill="#FFFFFF" d="M230.307,32l-2.508-2.607V32h-0.957v-5.501h0.957v2.432l2.376-2.432h1.232l-2.63,2.662L231.495,32H230.307
			z"/>
		<path fill="#FFFFFF" d="M237.261,26.499V32h-0.946v-3.861L233.267,32h-0.77v-5.501h0.945v3.861l3.048-3.861H237.261z"/>
		<path fill="#FFFFFF" d="M244.385,32h-0.935v-3.993l-1.749,2.816h-0.121l-1.75-2.816V32h-0.945v-5.501h1.022l1.728,2.783
			l1.728-2.783h1.022V32z"/>
		<path fill="#FFFFFF" d="M254.867,32h-0.935v-3.993l-1.749,2.816h-0.121l-1.75-2.816V32h-0.945v-5.501h1.022l1.728,2.783
			l1.728-2.783h1.022V32z"/>
		<path fill="#FFFFFF" d="M262.011,26.499V32h-0.958v-0.946c-0.439,0.671-1.144,1.089-2.079,1.089c-1.529,0-2.783-1.265-2.783-2.893
			c0-1.629,1.254-2.894,2.783-2.894c0.936,0,1.64,0.418,2.079,1.089v-0.946H262.011z M261.053,29.25c0-1.123-0.847-1.97-1.958-1.97
			c-1.1,0-1.947,0.847-1.947,1.97c0,1.122,0.848,1.969,1.947,1.969C260.206,31.219,261.053,30.372,261.053,29.25z"/>
		<path fill="#FFFFFF" d="M269.459,29.25c0,1.628-1.254,2.893-2.783,2.893c-0.936,0-1.64-0.418-2.079-1.089V34.2h-0.957v-7.701
			h0.957v0.946c0.439-0.671,1.144-1.089,2.079-1.089C268.205,26.356,269.459,27.621,269.459,29.25z M268.502,29.25
			c0-1.123-0.848-1.97-1.947-1.97c-1.111,0-1.958,0.847-1.958,1.97c0,1.122,0.847,1.969,1.958,1.969
			C267.654,31.219,268.502,30.372,268.502,29.25z"/>
		<path fill="#FFFFFF" d="M274.223,32l-2.508-2.607V32h-0.957v-5.501h0.957v2.432l2.376-2.432h1.232l-2.63,2.662L275.411,32H274.223
			z"/>
		<path fill="#FFFFFF" d="M278.741,31.241c0.759,0,1.309-0.353,1.584-0.804l0.814,0.462c-0.484,0.749-1.32,1.243-2.421,1.243
			c-1.771,0-2.948-1.243-2.948-2.893c0-1.629,1.166-2.894,2.883-2.894c1.661,0,2.739,1.364,2.739,2.904
			c0,0.143-0.011,0.286-0.033,0.429h-4.609C276.937,30.68,277.718,31.241,278.741,31.241z M276.75,28.854h3.674
			c-0.165-1.089-0.945-1.595-1.771-1.595C277.619,27.259,276.903,27.896,276.75,28.854z"/>
		<path fill="#FFFFFF" d="M286.673,27.424h-1.87V32h-0.957v-4.576h-1.881v-0.925h4.708V27.424z"/>
		<path fill="#FFFFFF" d="M292.41,26.499V32h-0.946v-3.861L288.416,32h-0.77v-5.501h0.945v3.861l3.048-3.861H292.41z"/>
		<path fill="#FFFFFF" d="M298.798,26.499V32h-0.958v-2.3h-2.849V32h-0.957v-5.501h0.957v2.288h2.849v-2.288H298.798z"/>
		<path fill="#FFFFFF" d="M304.03,27.424h-2.651V32h-0.957v-5.501h3.608V27.424z"/>
		<path fill="#FFFFFF" d="M304.603,29.25c0-1.629,1.287-2.894,2.894-2.894s2.904,1.265,2.904,2.894c0,1.628-1.298,2.893-2.904,2.893
			S304.603,30.878,304.603,29.25z M309.443,29.25c0-1.111-0.847-1.959-1.947-1.959c-1.089,0-1.937,0.848-1.937,1.959
			c0,1.11,0.848,1.958,1.937,1.958C308.597,31.208,309.443,30.36,309.443,29.25z"/>
		<path fill="#FFFFFF" d="M317.194,32h-0.935v-3.993l-1.749,2.816h-0.121l-1.75-2.816V32h-0.945v-5.501h1.022l1.728,2.783
			l1.728-2.783h1.022V32z"/>
	</g>
	<line opacity="0.8" fill="none" stroke="#FFFFFF" stroke-miterlimit="10" x1="174" y1="0" x2="174" y2="48"/>
</g>
<g id="Layer_2" display="none">
</g>
</svg>
