<?xml version="1.0" encoding="utf-8"?>
<!-- Generator: Adobe Illustrator 16.0.0, SVG Export Plug-In . SVG Version: 6.00 Build 0)  -->
<!DOCTYPE svg PUBLIC "-//W3C//DTD SVG 1.1//EN" "http://www.w3.org/Graphics/SVG/1.1/DTD/svg11.dtd">
<svg version="1.1" xmlns="http://www.w3.org/2000/svg" xmlns:xlink="http://www.w3.org/1999/xlink" x="0px" y="0px" width="320px"
	 height="48px" viewBox="0 0 320 48" enable-background="new 0 0 320 48" xml:space="preserve">
<g id="Layer_1">
	<path fill="#0066FF" d="M60.693,13.27h-3.751V9.517h3.751V13.27z M14.331,32.417c4.701,0,8.448-3.675,8.448-8.413
		c0-4.768-3.747-8.416-8.448-8.416c-4.673,0-8.449,3.648-8.449,8.416C5.882,28.742,9.658,32.417,14.331,32.417z M14.331,29.061
		c-2.816,0-4.992-2.146-4.992-5.057c0-2.911,2.176-5.054,4.992-5.054s4.991,2.143,4.991,5.054
		C19.322,26.914,17.147,29.061,14.331,29.061z M34.719,15.588c-2.498,0-4.386,1.025-5.602,2.719V16h-3.456v22.403h3.456V29.73
		c1.216,1.664,3.104,2.687,5.602,2.687c4.353,0,7.967-3.646,7.967-8.413C42.686,19.265,39.071,15.588,34.719,15.588z M34.171,29.122
		c-2.878,0-5.054-2.144-5.054-5.118c0-2.977,2.176-5.122,5.054-5.122c2.884,0,5.059,2.146,5.059,5.122
		C39.229,26.979,37.055,29.122,34.171,29.122z M54.209,19.331V16h-3.97v-4.479h-3.456V16h-2.944v3.331h2.944v7.677
		c0,4.161,2.114,5.636,7.426,4.995V28.9c-2.627,0.128-3.97,0.16-3.97-1.893v-7.677H54.209z M57.088,32.003h3.456V16h-3.456V32.003z
		 M82.05,15.588c-2.142,0-3.84,0.861-4.894,2.526c-0.929-1.6-2.465-2.526-4.548-2.526c-1.98,0-3.55,0.768-4.572,2.335V16h-3.457
		v16.003h3.457v-8.96c0-2.913,1.6-4.227,3.55-4.227c1.886,0,3.01,1.249,3.01,3.49v9.696h3.455v-8.96
		c0-2.913,1.439-4.227,3.489-4.227c1.886,0,3.102,1.249,3.102,3.49v9.696H88.1v-9.919C88.1,18.083,85.669,15.588,82.05,15.588z
		 M104.562,16v2.273c-1.218-1.66-3.104-2.686-5.601-2.686c-4.352,0-7.968,3.648-7.968,8.416c0,4.738,3.616,8.413,7.968,8.413
		c2.496,0,4.383-1.022,5.601-2.717v2.303h3.457V16H104.562z M99.507,29.122c-2.88,0-5.058-2.144-5.058-5.118
		c0-2.977,2.178-5.122,5.058-5.122s5.056,2.146,5.056,5.122C104.562,26.979,102.387,29.122,99.507,29.122z M120.692,19.331V16
		h-3.967v-4.479h-3.457V16h-2.945v3.331h2.945v7.677c0,4.161,2.111,5.636,7.424,4.995V28.9c-2.624,0.128-3.967,0.16-3.967-1.893
		v-7.677H120.692z M125.301,13.602c1.219,0,2.209-1.023,2.209-2.207c0-1.217-0.99-2.211-2.209-2.211
		c-1.213,0-2.207,0.994-2.207,2.211C123.094,12.578,124.088,13.602,125.301,13.602z M123.574,32.003h3.457V16h-3.457V32.003z
		 M138.343,32.417c3.138,0,5.856-1.63,7.202-4.157l-2.979-1.691c-0.768,1.466-2.334,2.46-4.254,2.46
		c-2.815,0-4.964-2.146-4.964-5.024c0-2.881,2.148-5.024,4.964-5.024c1.92,0,3.486,0.956,4.189,2.463l2.977-1.729
		c-1.279-2.495-3.998-4.126-7.136-4.126c-4.832,0-8.449,3.648-8.449,8.416C129.894,28.742,133.511,32.417,138.343,32.417z
		 M160.553,16v2.273c-1.217-1.66-3.104-2.686-5.601-2.686c-4.354,0-7.969,3.648-7.969,8.416c0,4.738,3.615,8.413,7.969,8.413
		c2.497,0,4.384-1.022,5.601-2.717v2.303h3.457V16H160.553z M155.496,29.122c-2.884,0-5.055-2.144-5.055-5.118
		c0-2.977,2.171-5.122,5.055-5.122c2.878,0,5.057,2.146,5.057,5.122C160.553,26.979,158.374,29.122,155.496,29.122z"/>
	<g>
		<path fill="#333333" d="M191.399,16.508c0-1.999,1.52-3.618,3.668-3.618c1.3,0,2.449,0.68,3.028,1.719l-0.619,0.36
			c-0.43-0.84-1.359-1.399-2.409-1.399c-1.769,0-2.968,1.31-2.968,2.938s1.199,2.938,2.968,2.938c1.05,0,1.979-0.56,2.409-1.399
			l0.619,0.35c-0.569,1.04-1.719,1.729-3.028,1.729C192.919,20.126,191.399,18.507,191.399,16.508z"/>
		<path fill="#333333" d="M203.559,15.009v4.997h-0.66v-3.848l-2.978,3.848h-0.561v-4.997h0.66v3.848l2.979-3.848H203.559z"/>
		<path fill="#333333" d="M204.999,17.507c0-1.479,1.12-2.618,2.629-2.618c0.989,0,1.829,0.52,2.188,1.31l-0.539,0.31
			c-0.271-0.59-0.899-0.979-1.649-0.979c-1.109,0-1.969,0.869-1.969,1.979s0.859,1.979,1.969,1.979c0.76,0,1.369-0.4,1.689-0.979
			l0.55,0.319c-0.41,0.79-1.26,1.3-2.239,1.3C206.119,20.126,204.999,18.986,204.999,17.507z"/>
		<path fill="#333333" d="M214.831,15.648h-1.77v4.357h-0.659v-4.357h-1.77v-0.64h4.198V15.648z"/>
		<path fill="#333333" d="M220.616,17.527c0,0.1-0.011,0.21-0.021,0.31h-4.388c0.141,1.02,0.93,1.649,1.989,1.649
			c0.789,0,1.339-0.37,1.609-0.85l0.579,0.34c-0.42,0.68-1.189,1.149-2.198,1.149c-1.579,0-2.659-1.109-2.659-2.619
			c0-1.469,1.06-2.618,2.609-2.618C219.666,14.889,220.616,16.158,220.616,17.527z M216.208,17.197h3.729
			c-0.141-1.1-0.939-1.669-1.799-1.669C217.088,15.528,216.338,16.218,216.208,17.197z"/>
		<path fill="#333333" d="M226.911,20.006h-0.659v-3.988l-1.749,2.839h-0.08l-1.749-2.839v3.988h-0.66v-4.997h0.76l1.689,2.738
			l1.688-2.738h0.76V20.006z"/>
		<path fill="#333333" d="M233.594,15.009v4.997h-0.66v-0.979c-0.42,0.67-1.129,1.1-2.019,1.1c-1.409,0-2.579-1.14-2.579-2.619
			c0-1.479,1.17-2.618,2.579-2.618c0.89,0,1.599,0.43,2.019,1.1v-0.979H233.594z M232.934,17.507c0-1.109-0.859-1.979-1.969-1.979
			s-1.969,0.869-1.969,1.979s0.859,1.979,1.969,1.979S232.934,18.616,232.934,17.507z"/>
		<path fill="#333333" d="M242.794,15.009l-2.139,5.457c-0.38,0.959-1.119,1.609-2.019,1.539v-0.62
			c0.649,0.07,1.099-0.39,1.369-1.039l0.13-0.31l-2.239-5.027h0.7l1.879,4.188l1.619-4.188H242.794z"/>
		<path fill="#333333" d="M248.116,20.006h-0.66v-4.357h-2.878v4.357h-0.66v-4.997h4.198V20.006z"/>
		<path fill="#333333" d="M255.109,17.507c0,1.479-1.17,2.619-2.579,2.619c-0.89,0-1.599-0.43-2.019-1.1v2.979h-0.66v-6.996h0.66
			v0.979c0.42-0.67,1.129-1.1,2.019-1.1C253.939,14.889,255.109,16.028,255.109,17.507z M254.449,17.507
			c0-1.109-0.859-1.979-1.969-1.979s-1.969,0.869-1.969,1.979s0.859,1.979,1.969,1.979S254.449,18.616,254.449,17.507z"/>
		<path fill="#333333" d="M261.496,15.009v4.997h-0.66v-0.979c-0.42,0.67-1.129,1.1-2.019,1.1c-1.409,0-2.579-1.14-2.579-2.619
			c0-1.479,1.17-2.618,2.579-2.618c0.89,0,1.599,0.43,2.019,1.1v-0.979H261.496z M260.836,17.507c0-1.109-0.859-1.979-1.969-1.979
			s-1.969,0.869-1.969,1.979s0.859,1.979,1.969,1.979S260.836,18.616,260.836,17.507z"/>
		<path fill="#333333" d="M267.235,18.606c0,0.77-0.51,1.399-1.569,1.399h-2.429v-4.997h2.229c0.999,0,1.529,0.579,1.529,1.339
			c0,0.479-0.19,0.859-0.58,1.09C266.956,17.637,267.235,18.067,267.235,18.606z M263.897,15.648v1.519h1.569
			c0.579,0,0.869-0.279,0.869-0.779c0-0.46-0.3-0.739-0.869-0.739H263.897z M266.576,18.566c0-0.46-0.32-0.76-0.91-0.76h-1.769v1.56
			h1.769C266.266,19.366,266.576,19.066,266.576,18.566z"/>
		<path fill="#333333" d="M272.793,20.006h-0.66v-4.357h-2.259v2.229c0,1.779-0.779,2.199-1.779,2.129v-0.62
			c0.71,0.07,1.12-0.239,1.12-1.509v-2.868h3.578V20.006z"/>
		<path fill="#333333" d="M279.321,17.527c0,0.1-0.011,0.21-0.021,0.31h-4.388c0.141,1.02,0.93,1.649,1.989,1.649
			c0.789,0,1.339-0.37,1.609-0.85l0.579,0.34c-0.42,0.68-1.189,1.149-2.198,1.149c-1.579,0-2.659-1.109-2.659-2.619
			c0-1.469,1.06-2.618,2.609-2.618C278.371,14.889,279.321,16.158,279.321,17.527z M274.913,17.197h3.729
			c-0.141-1.1-0.939-1.669-1.799-1.669C275.793,15.528,275.043,16.218,274.913,17.197z"/>
		<path fill="#333333" d="M284.917,15.009v4.997h-0.66v-2.179h-2.878v2.179h-0.66v-4.997h0.66v2.179h2.878v-2.179H284.917z"/>
		<path fill="#333333" d="M290.852,15.009v4.997h-0.66v-3.848l-2.978,3.848h-0.561v-4.997h0.66v3.848l2.979-3.848H290.852z"/>
		<path fill="#333333" d="M296.118,20.006h-0.66v-1.919h-0.859l-1.539,1.919h-0.84l1.579-1.938c-0.779-0.12-1.379-0.69-1.379-1.51
			c0-0.919,0.76-1.549,1.669-1.549h2.029V20.006z M295.458,17.467v-1.818h-1.369c-0.539,0-1.009,0.34-1.009,0.909
			s0.47,0.909,1.009,0.909H295.458z"/>
		<path fill="#333333" d="M196.597,31.366v1.979h-0.659v-1.339h-4.078v1.339H191.2v-1.979h0.609c0.319-0.42,0.51-0.909,0.51-1.889
			v-2.469h3.578v4.357H196.597z M195.237,31.366v-3.718h-2.259v1.829c0,0.819-0.13,1.409-0.369,1.889H195.237z"/>
		<path fill="#333333" d="M202.111,27.009v4.997h-0.66v-3.848l-2.978,3.848h-0.561v-4.997h0.66v3.848l2.979-3.848H202.111z"/>
		<path fill="#333333" d="M207.934,32.006h-0.66v-4.357h-2.259v2.229c0,1.779-0.779,2.199-1.779,2.129v-0.62
			c0.71,0.07,1.12-0.239,1.12-1.509v-2.868h3.578V32.006z"/>
		<path fill="#333333" d="M214.462,29.527c0,0.1-0.011,0.21-0.021,0.31h-4.388c0.141,1.02,0.93,1.649,1.989,1.649
			c0.789,0,1.339-0.37,1.609-0.85l0.579,0.34c-0.42,0.68-1.189,1.149-2.198,1.149c-1.579,0-2.659-1.109-2.659-2.619
			c0-1.469,1.06-2.618,2.609-2.618C213.512,26.889,214.462,28.158,214.462,29.527z M210.054,29.197h3.729
			c-0.141-1.1-0.939-1.669-1.799-1.669C210.934,27.528,210.184,28.218,210.054,29.197z"/>
		<path fill="#333333" d="M221.118,29.507c0,1.479-1.17,2.619-2.579,2.619c-0.89,0-1.599-0.43-2.019-1.1v2.979h-0.66v-6.996h0.66
			v0.979c0.42-0.67,1.129-1.1,2.019-1.1C219.948,26.889,221.118,28.028,221.118,29.507z M220.458,29.507
			c0-1.109-0.859-1.979-1.969-1.979s-1.969,0.869-1.969,1.979s0.859,1.979,1.969,1.979S220.458,30.616,220.458,29.507z"/>
		<path fill="#333333" d="M222.247,29.507c0-1.479,1.12-2.618,2.629-2.618c0.989,0,1.829,0.52,2.188,1.31l-0.539,0.31
			c-0.271-0.59-0.899-0.979-1.649-0.979c-1.109,0-1.969,0.869-1.969,1.979s0.859,1.979,1.969,1.979c0.76,0,1.369-0.4,1.689-0.979
			l0.55,0.319c-0.41,0.79-1.26,1.3-2.239,1.3C223.367,32.126,222.247,30.986,222.247,29.507z"/>
		<path fill="#333333" d="M231.562,32.006l-2.498-2.408v2.408h-0.66v-4.997h0.66v2.209l2.379-2.209h0.899l-2.579,2.398l2.679,2.599
			H231.562z"/>
		<path fill="#333333" d="M237.816,27.009v4.997h-0.66v-3.848l-2.978,3.848h-0.561v-4.997h0.66v3.848l2.979-3.848H237.816z"/>
		<path fill="#333333" d="M244.45,32.006h-0.659v-3.988l-1.749,2.839h-0.08l-1.749-2.839v3.988h-0.66v-4.997h0.76l1.689,2.738
			l1.688-2.738h0.76V32.006z"/>
		<path fill="#333333" d="M254.25,32.006h-0.659v-3.988l-1.749,2.839h-0.08l-1.749-2.839v3.988h-0.66v-4.997h0.76l1.689,2.738
			l1.688-2.738h0.76V32.006z"/>
		<path fill="#333333" d="M260.933,27.009v4.997h-0.66v-0.979c-0.42,0.67-1.129,1.1-2.019,1.1c-1.409,0-2.579-1.14-2.579-2.619
			c0-1.479,1.17-2.618,2.579-2.618c0.89,0,1.599,0.43,2.019,1.1v-0.979H260.933z M260.272,29.507c0-1.109-0.859-1.979-1.969-1.979
			s-1.969,0.869-1.969,1.979s0.859,1.979,1.969,1.979S260.272,30.616,260.272,29.507z"/>
		<path fill="#333333" d="M267.931,29.507c0,1.479-1.17,2.619-2.579,2.619c-0.89,0-1.599-0.43-2.019-1.1v2.979h-0.66v-6.996h0.66
			v0.979c0.42-0.67,1.129-1.1,2.019-1.1C266.761,26.889,267.931,28.028,267.931,29.507z M267.271,29.507
			c0-1.109-0.859-1.979-1.969-1.979s-1.969,0.869-1.969,1.979s0.859,1.979,1.969,1.979S267.271,30.616,267.271,29.507z"/>
		<path fill="#333333" d="M272.519,32.006l-2.498-2.408v2.408h-0.66v-4.997h0.66v2.209l2.379-2.209h0.899l-2.579,2.398l2.679,2.599
			H272.519z"/>
		<path fill="#333333" d="M279.035,29.527c0,0.1-0.011,0.21-0.021,0.31h-4.388c0.141,1.02,0.93,1.649,1.989,1.649
			c0.789,0,1.339-0.37,1.609-0.85l0.579,0.34c-0.42,0.68-1.189,1.149-2.198,1.149c-1.579,0-2.659-1.109-2.659-2.619
			c0-1.469,1.06-2.618,2.609-2.618C278.085,26.889,279.035,28.158,279.035,29.527z M274.627,29.197h3.729
			c-0.141-1.1-0.939-1.669-1.799-1.669C275.507,27.528,274.757,28.218,274.627,29.197z"/>
		<path fill="#333333" d="M283.911,27.648h-1.77v4.357h-0.659v-4.357h-1.77v-0.64h4.198V27.648z"/>
		<path fill="#333333" d="M289.232,27.009v4.997h-0.66v-3.848l-2.978,3.848h-0.561v-4.997h0.66v3.848l2.979-3.848H289.232z"/>
		<path fill="#333333" d="M295.166,27.009v4.997h-0.66v-2.179h-2.878v2.179h-0.66v-4.997h0.66v2.179h2.878v-2.179H295.166z"/>
		<path fill="#333333" d="M300.1,27.648h-2.538v4.357h-0.66v-4.997h3.198V27.648z"/>
		<path fill="#333333" d="M300.779,29.507c0-1.479,1.17-2.618,2.629-2.618s2.629,1.14,2.629,2.618c0,1.479-1.17,2.619-2.629,2.619
			S300.779,30.986,300.779,29.507z M305.377,29.507c0-1.109-0.859-1.979-1.969-1.979s-1.969,0.869-1.969,1.979
			s0.859,1.979,1.969,1.979S305.377,30.616,305.377,29.507z"/>
		<path fill="#333333" d="M312.363,32.006h-0.659v-3.988l-1.749,2.839h-0.08l-1.749-2.839v3.988h-0.66v-4.997h0.76l1.689,2.738
			l1.688-2.738h0.76V32.006z"/>
	</g>
	<line opacity="0.7" fill="none" stroke="#333333" stroke-miterlimit="10" x1="178" y1="0" x2="178" y2="48"/>
</g>
<g id="Layer_2" display="none">
</g>
</svg>
