<?xml version="1.0" encoding="utf-8"?>
<!-- Generator: Adobe Illustrator 16.0.0, SVG Export Plug-In . SVG Version: 6.00 Build 0)  -->
<!DOCTYPE svg PUBLIC "-//W3C//DTD SVG 1.1//EN" "http://www.w3.org/Graphics/SVG/1.1/DTD/svg11.dtd">
<svg version="1.1" id="Layer_1" xmlns="http://www.w3.org/2000/svg" xmlns:xlink="http://www.w3.org/1999/xlink" x="0px" y="0px"
	 width="96px" height="96px" viewBox="0 0 96 96" enable-background="new 0 0 96 96" xml:space="preserve">
<title>Png 48px Solid - 70 Basic Icons</title>
<g>
	<path fill="#2B7FFE" d="M48,18.379c-8.613,0-15.661,6.787-15.661,15.139c0,3.307,1.13,6.438,3.132,9.049l11.833,15.488
		c0.261,0.347,0.871,0.434,1.218,0.172c0.087-0.085,0.087-0.085,0.174-0.172l11.834-15.488c2.001-2.61,3.132-5.742,3.132-9.049
		C63.661,25.166,56.613,18.379,48,18.379z M46.782,39.435c-3.307-0.696-5.481-3.828-4.785-7.134
		c0.696-3.306,3.828-5.481,7.134-4.785c2.437,0.522,4.351,2.349,4.785,4.785c0.609,3.306-1.566,6.525-4.785,7.134
		C48.348,39.609,47.565,39.609,46.782,39.435z"/>
</g>
</svg>
